<svg width="2742" height="397" viewBox="0 0 2742 397" fill="none" xmlns="http://www.w3.org/2000/svg">
    <g clip-path="url(#clip0)">
        <g clip-path="url(#clip1)">
            <path d="M2641 378C2641.8 382.4 2643 383.833 2643.5 384L2596.5 391.5C2596.5 391.5 2584.17 376 2582 370.5C2548.95 326.949 2475.63 279.739 2445 264.5C2464.6 256.1 2494.83 258 2507.5 260C2509.1 260.8 2510.92 279.892 2512 284.5C2513.08 289.108 2524 275.189 2525.5 266.5C2535.5 266.5 2564.5 284 2574.5 291.5C2582.5 297.5 2577.83 313 2574.5 320C2587.5 323 2589.5 309.5 2594.5 310.5C2598.5 311.3 2603.17 317.167 2605 320C2602.5 320.5 2596.9 322.5 2594.5 326.5C2591.5 331.5 2606 361 2608 361.5L2633 380.5L2641 378Z" fill="#069681"/>
            <path d="M2682.5 156C2692.5 174.667 2721.6 213.4 2758 219C2758.8 222.2 2761.33 241.682 2762.5 251.023L2762.5 250.5V215C2761.7 218.6 2760.83 219.5 2760.5 219.5C2755.83 200.167 2745.7 159.5 2742.5 151.5C2748.67 145.333 2761.4 131.2 2763 124V73.5C2752.77 80.4983 2735.69 107.956 2742.5 151.5C2737.68 139 2727.68 113.8 2726.27 113C2731.87 66.9393 2699.59 37.2008 2682.5 28C2689.93 78.9775 2710.52 104.398 2722.71 113C2725.29 115.007 2733.64 136.445 2737.5 146.914H2735.5C2723.06 134.798 2696.59 116.292 2672 124C2674.83 134.333 2692.1 154 2738.5 150C2742.1 156.8 2752.49 197.833 2757.23 217.5C2750.85 205.77 2728.42 179.344 2682.5 156Z" fill="#003856"/>
            <path d="M2675 229.5C2719 235.1 2751.67 288.167 2762.5 314V323.5C2706.5 287.5 2680.83 245.833 2675 229.5Z" fill="#003856"/>
            <path d="M2717 355H2752.5C2751.3 331 2740.5 301.667 2735 290C2732.41 284.5 2728.83 283.5 2727 284C2711.8 290.8 2701.17 287.833 2697.5 285.5C2711.9 281.5 2715.5 265.167 2715.5 257.5C2698.7 229.9 2673.17 210.667 2662.5 204.5C2654.1 216.5 2641 219.5 2635.5 219.5C2639.1 211.9 2641.33 196.333 2642 189.5C2612 172.7 2572.83 167.167 2557 166.5C2647.8 244.9 2687.5 348.167 2696 390L2724 388.5L2717 355Z" fill="#069681"/>
            <path d="M2569.5 230.5C2567.9 229.7 2560.5 187.5 2557 166.5C2625.8 220.5 2685.83 319.5 2701.5 364L2632 383.5C2622.5 373.996 2609.27 366.648 2604.64 364.077L2604.5 364C2600.17 354 2592.5 330.8 2592.5 330C2592.5 329 2593.5 327.5 2594.5 326C2595.5 324.5 2595 324.5 2604.5 319C2612.1 314.6 2621.67 302.167 2625 296.5C2620.6 302.9 2596.5 302.167 2585 301C2581.4 294.2 2576.17 264.167 2574 250C2582 247.5 2602 222 2597.5 226C2593 230 2571.5 231.5 2569.5 230.5Z" fill="#00CAC8"/>
            <path d="M2522 408.5C2516.67 388 2503.6 342.6 2494 331C2496.33 352.667 2500.5 397.3 2498.5 402.5L2490.5 404.42C2490.5 401.956 2480.83 389.113 2476 383C2479 372 2479.5 344.5 2457.5 322.5C2456.17 327.667 2465 369 2470.5 375C2471 376 2473.4 378.3 2473 379.5C2467.09 372.833 2451.6 357.1 2438 345.5C2438 344.5 2438 307.5 2416 295C2416.47 301.122 2423.51 322.06 2435.69 341.853L2437 344.5C2436.41 344.155 2433.05 341.479 2432.5 341C2431.83 340.41 2411 327 2400.5 320.5C2400.5 319.5 2404 293 2383.5 284C2382.38 288.017 2384.46 300.777 2400 318.5C2400.47 319.757 2399.96 319.526 2399 319.5L2381 311C2376.67 303.833 2361.5 290.1 2335.5 292.5C2343.51 300.015 2363.39 314.032 2380 311.192L2398.5 320C2390.67 319.667 2372.5 323.7 2366.5 334.5C2374.7 341.208 2389.61 329.052 2397 321.564C2397.48 321.115 2398.63 320.296 2399.46 320.609C2411.06 327.947 2432.28 341.5 2431.5 341.5C2425.8 338.77 2408.09 337.372 2383.5 344.5C2392 347.333 2413.2 351.1 2430 343.5L2432 342.5H2433C2444.33 352.5 2467.9 374.1 2471.5 380.5C2458.33 374.5 2426.4 365 2404 375C2409.88 379.739 2430.42 387.087 2472 382.5L2473 381.665C2475 383.802 2484.83 397.885 2489.5 404.66L2473.5 408.5C2460 405.167 2431.6 399.9 2426 405.5L2428 408.5H2473.5H2522Z" fill="#BEE498"/>
            <path d="M2467.27 309.142C2465.93 308.868 2452.11 279.153 2445.37 264.33C2506.89 290.608 2598.11 364.223 2618.5 394L2543.89 407.397C2534.89 402.205 2525 398.995 2521.18 398.038C2516 391.508 2505.6 378.299 2505.44 377.708C2505.24 376.969 2504.95 375.861 2505.39 374.554C2505.83 373.248 2505.46 373.347 2511.39 367.403C2516.14 362.647 2520 351.765 2521.35 346.918C2519.36 352.518 2501.41 356.747 2492.68 358.162C2488.68 353.85 2478.86 332.697 2474.46 322.658C2479.87 319.228 2489.6 296.428 2487.07 300.274C2484.54 304.12 2468.95 309.485 2467.27 309.142Z" fill="#00CAC8"/>
            <path d="M2748 365C2752 365.4 2759.67 353.5 2763 347.5V409H2475C2471 406.2 2472.67 400.833 2474 398.5C2482 389.3 2498.33 394.667 2505.5 398.5C2507.67 393.333 2513.8 382.9 2521 382.5C2528.6 381.3 2532.83 392.667 2534 398.5C2548.8 379.3 2581.83 385.833 2596.5 391.5C2608.1 363.9 2632.67 375 2643.5 384C2657 361 2664.5 359 2673.5 358.5C2682.5 358 2691.5 367 2697 375.5C2701.4 382.3 2705.83 378.333 2707.5 375.5C2712.5 361.5 2717 354 2726 351.5C2735 349 2743 364.5 2748 365Z" fill="url(#paint0_linear)"/>
        </g>
        <g clip-path="url(#clip2)">
            <path d="M286.387 460.259C229.757 381.536 88.0546 281.104 -25.7195 460.259L286.387 460.259Z" fill="#57CF71"/>
            <path d="M364.703 413.385C338.962 427.285 332.956 448.349 333.17 457.144C330.596 499.874 297.777 513.988 281.689 515.704C247.368 506.051 178.211 480.825 176.152 457.144C173.578 427.542 172.934 360.616 190.953 346.459C208.971 332.301 224.416 344.528 227.633 346.459C230.851 348.389 244.365 372.843 244.365 322.649C244.365 272.454 251.444 249.287 255.305 239.635C259.166 229.982 263.67 224.834 273.323 222.26C281.045 220.2 288.124 232.985 290.698 239.635C293.701 243.067 300.737 246.585 304.856 233.2C308.974 219.814 316.868 204.456 320.3 198.45C325.877 190.084 343.081 173.738 367.277 175.283C391.473 176.827 394.948 199.522 393.661 210.676C391.087 218.613 387.483 239.506 393.661 259.584C399.839 279.662 396.235 302.27 393.661 311.065C368.564 338.737 365.99 352.25 367.277 356.112C368.564 359.973 387.226 379.922 389.8 383.139C392.374 386.357 396.879 396.01 364.703 413.385Z" fill="#33D7BE"/>
            <path d="M359.748 235.028C349.412 261.959 335.314 296.559 319.298 332.842M186.641 545.204C200.783 541.292 218.236 521.532 236.795 493.079M375.192 292.301C370.044 295.518 325.182 335.416 319.298 332.842M319.298 332.842C315.447 341.568 311.485 350.39 307.438 359.227M279.308 277.5C282.188 298.092 291.845 343.267 307.438 359.227M307.438 359.227C298.391 378.978 288.919 398.8 279.308 417.763M355.243 389.472C332.076 399.967 284.456 420.317 279.308 417.763M279.308 417.763C265.133 445.729 250.656 471.828 236.795 493.079M219.461 377.245C231.017 411.352 250.663 482.267 236.795 493.079" stroke="#173474" stroke-width="2.57407" stroke-linecap="round" stroke-linejoin="round"/>
            <path d="M233.178 338.635C245.534 412.253 188.561 431.945 158.53 432.588C90.0599 432.588 73.3713 379.82 73.5859 353.436C74.4623 319.055 91.8355 296.004 87.7433 272.996C84.1373 252.721 56.2109 256.264 56.2109 233.098C56.2109 209.931 77.447 193.2 87.7433 181.616C95.9803 172.35 91.1754 151.156 87.7433 141.718C52.9933 113.403 54.9238 88.306 56.2109 85.0884C57.4979 81.8708 58.7849 56.7736 96.7525 50.982C134.72 45.1903 148.234 76.7227 154.026 104.394C159.817 132.065 138.581 154.588 166.896 174.538C195.211 194.487 195.211 198.348 197.785 212.505C200.359 226.663 158.53 258.838 192.637 272.996C219.922 284.322 231.033 321.474 233.178 338.635Z" fill="#ACE98D"/>
            <path d="M-90.0001 153C51.574 177.711 107.989 361.5 118.5 450.306C120.001 479.049 118.757 542.715 109.491 567.426C-15.6093 524.696 -74.9846 273.338 -90.0001 153Z" fill="#069681"/>
            <path d="M111.35 112.116C118.877 148.978 129.607 206.487 138.808 265.917M157.04 458.329C157.981 437.361 156.456 409.328 153.392 377.889M166.692 212.505C158.613 224.732 141.726 252.532 138.808 265.917M138.808 265.917C135.548 259.739 117.857 235.457 109.419 224.088M138.808 265.917C144.719 304.103 149.999 343.083 153.392 377.889M189.216 323.19L153.392 377.889M153.392 377.889C142.381 363.303 118.171 333.486 109.419 330.912" stroke="#141E1E" stroke-width="2.57407" stroke-linecap="round" stroke-linejoin="round"/>
            <path d="M-73.912 215.421C-40.6427 238.906 -2.76809 300.966 29.4675 366.005M65.6123 445.157C76.762 471.648 142.714 667.154 149.389 686.477L65.6123 445.157ZM65.6123 445.157C71.6582 434.432 84.651 408.863 88.2547 392.389M65.6123 445.157C55.5703 439.58 30.9815 427.911 12.963 425.852M65.6123 445.157C54.9873 419.914 42.7027 392.708 29.4675 366.005M29.4675 366.005L-26.2916 340.264M29.4675 366.005C34.949 360.857 38.767 306.801 39.9908 280.417" stroke="#173474" stroke-width="2.57407" stroke-linecap="round" stroke-linejoin="round"/>
            <path d="M411.063 318.559C405.99 340.82 402.256 392.921 427.905 423.233C426.292 426.403 414.567 444.044 408.907 452.469L409.277 452.043L434.396 423.163C431.198 425.526 429.856 425.645 429.585 425.409C439.469 406.379 460.001 366.126 463.058 357.354C472.438 356.701 492.798 354.213 499.194 349.488L534.927 308.406C521.653 306.86 488.327 317.11 463.058 357.354C467.98 343.772 477.677 316.197 477.094 314.546C514.243 281.039 509.025 234.006 501.635 214.43C471.612 261.161 470.372 296.408 474.204 312.033C474.876 315.486 466.505 338.839 462.236 350.085L460.609 348.669C459.064 330.013 450.624 296.227 425.164 285.097C420.158 295.508 420.288 323.725 460.865 353.303C458.983 361.382 438.398 402.114 428.342 421.47C431.452 407.413 431.904 370.044 411.063 318.559Z" fill="#003856"/>
            <path d="M352.954 373.045C384.786 408.735 373.811 475.02 364.345 503.701L357.623 511.429C337.539 442.518 346.142 390.46 352.954 373.045Z" fill="#003856"/>
        </g>
    </g>
    <defs>
        <linearGradient id="paint0_linear" x1="2617.75" y1="347.5" x2="2617.75" y2="409" gradientUnits="userSpaceOnUse">
            <stop stop-color="#005F51"/>
            <stop offset="1" stop-color="#069681"/>
        </linearGradient>
        <clipPath id="clip0">
            <rect width="2742" height="397" fill="white"/>
        </clipPath>
        <clipPath id="clip1">
            <rect width="428" height="381" fill="white" transform="matrix(-1 0 0 1 2763 28)"/>
        </clipPath>
        <clipPath id="clip2">
            <rect width="556" height="409.278" fill="white" transform="matrix(-1 0 0 1 530 49)"/>
        </clipPath>
    </defs>
</svg>
