<svg width="432" height="318" viewBox="0 0 432 318" fill="none" xmlns="http://www.w3.org/2000/svg">
<g clip-path="url(#clip0)">
<path d="M242.718 319.54C198.718 258.373 88.6182 180.34 0.218246 319.54H242.718Z" fill="#57CF71"/>
<path d="M303.567 283.119C283.567 293.919 278.901 310.286 279.067 317.119C277.067 350.319 251.567 361.286 239.067 362.619C212.401 355.119 158.667 335.519 157.067 317.119C155.067 294.119 154.567 242.119 168.567 231.119C182.567 220.119 194.567 229.619 197.067 231.119C199.567 232.619 210.067 251.619 210.067 212.619C210.067 173.619 215.567 155.619 218.567 148.119C221.567 140.619 225.067 136.619 232.567 134.619C238.567 133.019 244.067 142.952 246.067 148.119C248.401 150.786 253.867 153.519 257.067 143.119C260.267 132.719 266.401 120.786 269.067 116.119C273.401 109.619 286.767 96.9191 305.567 98.1191C324.367 99.3191 327.067 116.952 326.067 125.619C324.067 131.786 321.267 148.019 326.067 163.619C330.867 179.219 328.067 196.786 326.067 203.619C306.567 225.119 304.567 235.619 305.567 238.619C306.567 241.619 321.067 257.119 323.067 259.619C325.067 262.119 328.567 269.619 303.567 283.119Z" fill="#33D7BE"/>
<path d="M190.718 255.04C199.697 281.54 214.961 336.64 204.186 345.04M299.718 144.54C291.687 165.465 280.733 192.348 268.289 220.54L299.718 144.54ZM165.218 385.54C176.205 382.501 189.766 367.147 204.186 345.04L165.218 385.54ZM311.718 189.04C307.718 191.54 272.861 222.54 268.289 220.54L311.718 189.04ZM268.289 220.54C265.297 227.319 262.219 234.174 259.074 241.04L268.289 220.54ZM237.218 177.54C239.455 193.54 246.959 228.64 259.074 241.04L237.218 177.54ZM259.074 241.04C252.045 256.386 244.685 271.787 237.218 286.521L259.074 241.04ZM296.218 264.54C278.218 272.694 241.218 288.506 237.218 286.521L296.218 264.54ZM237.218 286.521C226.204 308.25 214.956 328.529 204.186 345.04L237.218 286.521Z" stroke="#173474" stroke-width="2" stroke-linecap="round" stroke-linejoin="round"/>
<path d="M201.376 225.04C210.976 282.24 166.709 297.54 143.376 298.04C90.1761 298.04 77.2091 257.04 77.3761 236.54C78.0571 209.827 91.5561 191.916 88.3761 174.04C85.5741 158.287 63.8761 161.04 63.8761 143.04C63.8761 125.04 80.3761 112.04 88.3761 103.04C94.7761 95.8397 91.0431 79.373 88.3761 72.0397C61.3761 50.0397 62.8761 30.5397 63.8761 28.0397C64.8761 25.5397 65.8761 6.0397 95.3761 1.5397C124.876 -2.9603 135.376 21.5397 139.876 43.0397C144.376 64.5397 127.876 82.0397 149.876 97.5397C171.876 113.04 171.876 116.04 173.876 127.04C175.876 138.04 143.376 163.04 169.876 174.04C191.076 182.84 199.709 211.706 201.376 225.04Z" fill="#ACE98D"/>
<path d="M-67.2818 87.0397C42.7182 106.24 86.5512 249.04 94.7182 318.04C95.8842 340.373 94.9182 389.84 87.7182 409.04C-9.48176 375.84 -55.6158 180.54 -67.2818 87.0397Z" fill="#069681"/>
<path d="M320.947 278.426C317.337 294.267 314.68 331.342 332.932 352.912C331.784 355.168 323.441 367.721 319.413 373.716L319.676 373.414L337.551 352.863C335.276 354.544 334.321 354.628 334.128 354.461C341.161 340.919 355.772 312.275 357.947 306.032C364.622 305.567 379.11 303.797 383.662 300.435L409.09 271.2C399.644 270.1 375.929 277.395 357.947 306.032C361.45 296.367 368.35 276.745 367.935 275.57C394.371 251.726 390.658 218.257 385.399 204.327C364.034 237.581 363.152 262.663 365.879 273.782C366.357 276.238 360.4 292.857 357.362 300.859L356.204 299.852C355.105 286.576 349.099 262.534 330.982 254.614C327.419 262.022 327.512 282.102 356.387 303.15C355.047 308.899 340.399 337.884 333.243 351.657C335.456 341.654 335.778 315.063 320.947 278.426Z" fill="#003856"/>
<path d="M279.597 317.198C302.248 342.595 294.439 389.764 287.702 410.174L282.919 415.673C268.627 366.635 274.749 329.591 279.597 317.198Z" fill="#003856"/>
<path d="M139.383 255.54C130.828 244.206 112.018 221.04 105.218 219.04M106.718 49.0397C112.566 77.6808 120.903 122.364 128.052 168.54L106.718 49.0397ZM142.218 318.04C142.949 301.748 141.764 279.967 139.383 255.54L142.218 318.04ZM149.718 127.04C143.441 136.54 130.319 158.14 128.052 168.54L149.718 127.04ZM128.052 168.54C125.519 163.74 111.774 144.873 105.218 136.04L128.052 168.54ZM128.052 168.54C132.645 198.21 136.748 228.496 139.383 255.54L128.052 168.54ZM167.218 213.04L139.383 255.54L167.218 213.04Z" stroke="#141E1E" stroke-width="2" stroke-linecap="round" stroke-linejoin="round"/>
<path d="M25.5413 252.54C29.8003 248.54 32.7673 206.54 33.7183 186.04M-54.7817 135.54C-28.9327 153.786 0.49526 202.006 25.5413 252.54L-54.7817 135.54ZM53.6253 314.04C62.2883 334.622 113.531 486.526 118.718 501.54L53.6253 314.04ZM53.6253 314.04C58.3233 305.706 68.4183 285.84 71.2183 273.04L53.6253 314.04ZM53.6253 314.04C45.8233 309.706 26.7183 300.64 12.7183 299.04L53.6253 314.04ZM53.6253 314.04C45.3703 294.426 35.8253 273.288 25.5413 252.54L53.6253 314.04ZM25.5413 252.54L-17.7817 232.54L25.5413 252.54Z" stroke="#173474" stroke-width="2" stroke-linecap="round" stroke-linejoin="round"/>
</g>
<defs>
<clipPath id="clip0">
<rect width="432" height="318" fill="white" transform="matrix(-1 0 0 1 432 0)"/>
</clipPath>
</defs>
</svg>
