<svg width="432" height="318" viewBox="0 0 432 318" fill="none" xmlns="http://www.w3.org/2000/svg">
    <g clip-path="url(#clip0)">
        <path d="M189.282 319.54C233.282 258.373 343.382 180.34 431.782 319.54L189.282 319.54Z" fill="#57CF71"/>
        <path d="M128.433 283.119C148.433 293.919 153.099 310.286 152.933 317.119C154.933 350.319 180.433 361.286 192.933 362.619C219.599 355.119 273.333 335.519 274.933 317.119C276.933 294.119 277.433 242.119 263.433 231.119C249.433 220.119 237.433 229.619 234.933 231.119C232.433 232.619 221.933 251.619 221.933 212.619C221.933 173.619 216.433 155.619 213.433 148.119C210.433 140.619 206.933 136.619 199.433 134.619C193.433 133.019 187.933 142.952 185.933 148.119C183.599 150.786 178.133 153.519 174.933 143.119C171.733 132.719 165.599 120.786 162.933 116.119C158.599 109.619 145.233 96.9191 126.433 98.1191C107.633 99.3191 104.933 116.952 105.933 125.619C107.933 131.786 110.733 148.019 105.933 163.619C101.133 179.219 103.933 196.786 105.933 203.619C125.433 225.119 127.433 235.619 126.433 238.619C125.433 241.619 110.933 257.119 108.933 259.619C106.933 262.119 103.433 269.619 128.433 283.119Z" fill="#33D7BE"/>
        <path d="M132.282 144.54C140.313 165.465 151.267 192.348 163.711 220.54M266.782 385.54C255.795 382.501 242.234 367.147 227.814 345.04M120.282 189.04C124.282 191.54 159.139 222.54 163.711 220.54M163.711 220.54C166.703 227.319 169.781 234.174 172.926 241.04M194.782 177.54C192.545 193.54 185.041 228.64 172.926 241.04M172.926 241.04C179.955 256.386 187.315 271.787 194.782 286.521M135.782 264.54C153.782 272.694 190.782 288.506 194.782 286.521M194.782 286.521C205.796 308.25 217.044 328.529 227.814 345.04M241.282 255.04C232.303 281.54 217.039 336.64 227.814 345.04" stroke="#173474" stroke-width="2" stroke-linecap="round" stroke-linejoin="round"/>
        <path d="M230.624 225.04C221.024 282.24 265.291 297.54 288.624 298.04C341.824 298.04 354.791 257.04 354.624 236.54C353.943 209.827 340.444 191.916 343.624 174.04C346.426 158.287 368.124 161.04 368.124 143.04C368.124 125.04 351.624 112.04 343.624 103.04C337.224 95.8397 340.957 79.373 343.624 72.0397C370.624 50.0397 369.124 30.5397 368.124 28.0397C367.124 25.5397 366.124 6.0397 336.624 1.5397C307.124 -2.9603 296.624 21.5397 292.124 43.0397C287.624 64.5397 304.124 82.0397 282.124 97.5397C260.124 113.04 260.124 116.04 258.124 127.04C256.124 138.04 288.624 163.04 262.124 174.04C240.924 182.84 232.291 211.706 230.624 225.04Z" fill="#ACE98D"/>
        <path d="M499.282 87.0397C389.282 106.24 345.449 249.04 337.282 318.04C336.116 340.373 337.082 389.84 344.282 409.04C441.482 375.84 487.616 180.54 499.282 87.0397Z" fill="#069681"/>
        <path d="M111.053 278.426C114.663 294.267 117.32 331.342 99.0679 352.912C100.216 355.168 108.559 367.721 112.587 373.716L112.324 373.414L94.4488 352.863C96.7246 354.544 97.6795 354.628 97.8724 354.461C90.8391 340.919 76.2286 312.275 74.0528 306.032C67.3779 305.567 52.8901 303.797 48.3385 300.435L22.9104 271.2C32.3565 270.1 56.071 277.395 74.0528 306.032C70.5507 296.367 63.6502 276.745 64.0651 275.57C37.6296 251.726 41.3424 218.257 46.6013 204.327C67.9661 237.581 68.8481 262.663 66.1211 273.782C65.6432 276.238 71.5999 292.857 74.638 300.859L75.7958 299.852C76.8949 286.576 82.9013 262.534 101.018 254.614C104.581 262.022 104.488 282.102 75.6131 303.15C76.9531 308.899 91.6008 337.884 98.7572 351.657C96.5439 341.654 96.2224 315.063 111.053 278.426Z" fill="#003856"/>
        <path d="M152.403 317.198C129.752 342.595 137.561 389.764 144.298 410.174L149.081 415.673C163.373 366.635 157.251 329.591 152.403 317.198Z" fill="#003856"/>
        <path d="M325.282 49.0397C319.434 77.6808 311.097 122.364 303.948 168.54M289.782 318.04C289.051 301.748 290.236 279.967 292.617 255.54M282.282 127.04C288.559 136.54 301.681 158.14 303.948 168.54M303.948 168.54C306.481 163.74 320.226 144.873 326.782 136.04M303.948 168.54C299.355 198.21 295.252 228.496 292.617 255.54M264.782 213.04L292.617 255.54M292.617 255.54C301.172 244.206 319.982 221.04 326.782 219.04" stroke="#141E1E" stroke-width="2" stroke-linecap="round" stroke-linejoin="round"/>
        <path d="M486.782 135.54C460.933 153.786 431.505 202.006 406.459 252.54M378.375 314.04C369.712 334.622 318.469 486.526 313.282 501.54L378.375 314.04ZM378.375 314.04C373.677 305.706 363.582 285.84 360.782 273.04M378.375 314.04C386.177 309.706 405.282 300.64 419.282 299.04M378.375 314.04C386.63 294.426 396.175 273.288 406.459 252.54M406.459 252.54L449.782 232.54M406.459 252.54C402.2 248.54 399.233 206.54 398.282 186.04" stroke="#173474" stroke-width="2" stroke-linecap="round" stroke-linejoin="round"/>
    </g>
    <defs>
        <clipPath id="clip0">
            <rect width="432" height="318" fill="white"/>
        </clipPath>
    </defs>
</svg>
