<svg width="1770" height="468" viewBox="0 0 1770 468" fill="none" xmlns="http://www.w3.org/2000/svg">
    <g clip-path="url(#clip0)">
        <path d="M133.117 434.175C132.244 438.976 130.935 440.54 130.389 440.722L181.672 448.906C181.672 448.906 195.129 431.993 197.493 425.992C233.56 378.473 313.553 326.96 346.977 310.333C325.591 301.168 292.602 303.241 278.782 305.423C277.036 306.296 275.052 327.128 273.872 332.156C272.691 337.184 260.776 321.996 259.141 312.515C248.23 312.515 216.588 331.61 205.676 339.793C196.947 346.34 202.039 363.252 205.676 370.89C191.492 374.164 189.31 359.434 183.854 360.525C179.49 361.398 174.398 367.799 172.397 370.89C175.125 371.436 181.235 373.618 183.854 377.983C187.127 383.438 171.306 415.626 169.124 416.172L141.846 436.903L133.117 434.175Z" fill="#069681"/>
        <path d="M87.8353 191.946C76.9241 212.314 45.1724 254.577 5.45561 260.687C4.58271 264.178 1.81854 285.436 0.545561 295.628L0.545561 295.057V256.322C1.41846 260.25 2.3641 261.232 2.7278 261.232C7.8197 240.137 18.8764 195.765 22.368 187.036C15.6394 180.308 1.74579 164.886 0 157.03V101.929C11.1625 109.565 29.8008 139.525 22.368 187.036C27.6303 173.397 38.5403 145.901 40.0816 145.028C33.9697 94.7702 69.191 62.3219 87.8353 52.2827C79.7236 107.905 57.2603 135.642 43.9568 145.028C41.1512 147.218 32.0323 170.61 27.8236 182.032H30.0058C43.5762 168.812 72.46 148.62 99.2921 157.03C96.2005 168.305 77.3605 189.764 26.7325 185.4C22.8044 192.819 11.4698 237.592 6.29352 259.05C13.2547 246.251 37.728 217.417 87.8353 191.946Z" fill="#003856"/>
        <path d="M96.0187 272.144C48.0093 278.254 12.366 336.156 0.545561 364.343V374.709C61.6484 335.429 89.6538 289.965 96.0187 272.144Z" fill="#003856"/>
        <path d="M50.1916 409.079H11.4568C12.7661 382.893 24.5502 350.886 30.5514 338.157C33.3805 332.155 37.28 331.064 39.2804 331.61C55.8654 339.029 67.4677 335.792 71.4685 333.247C55.7563 328.882 51.8283 311.06 51.8283 302.695C70.1591 272.58 98.0191 251.594 109.658 244.866C118.823 257.959 133.117 261.233 139.118 261.233C135.19 252.94 132.753 235.955 132.026 228.499C164.759 210.168 207.495 204.13 224.771 203.403C125.697 288.947 82.3797 401.623 73.1052 447.269L42.5538 445.632L50.1916 409.079Z" fill="#069681"/>
        <path d="M211.132 273.235C212.878 272.362 220.952 226.317 224.771 203.403C149.702 262.324 84.1982 370.345 67.104 418.9L142.937 440.176C153.307 429.806 167.74 421.789 172.792 418.983L172.943 418.9C177.671 407.988 186.036 382.674 186.036 381.801C186.036 380.71 184.945 379.074 183.854 377.437C182.763 375.8 183.308 375.8 172.943 369.799C164.65 364.998 154.212 351.432 150.575 345.249C155.376 352.232 181.672 351.432 194.22 350.159C198.148 342.739 203.858 309.969 206.222 294.512C197.493 291.784 175.671 263.96 180.581 268.325C185.491 272.689 208.95 274.326 211.132 273.235Z" fill="#00CAC8"/>
        <path d="M262.96 467.454C268.78 445.086 283.037 395.55 293.512 382.893C290.966 406.534 286.419 455.234 288.602 460.908L297.331 463.003C297.331 460.314 307.878 446.301 313.152 439.631C309.878 427.629 309.333 397.623 333.338 373.618C334.792 379.256 325.154 424.355 319.153 430.902C318.607 431.993 315.989 434.503 316.425 435.812C322.878 428.538 339.775 411.371 354.614 398.714C354.614 397.623 354.614 357.251 378.619 343.612C378.105 350.292 370.428 373.138 357.138 394.735L355.706 397.623C356.345 397.246 360.021 394.326 360.616 393.804C361.349 393.16 384.075 378.528 395.532 371.436C395.532 370.345 391.713 341.43 414.081 331.61C415.308 335.993 413.039 349.915 396.077 369.254C395.567 370.625 396.126 370.373 397.168 370.345L416.808 361.07C421.537 353.25 438.085 338.266 466.454 340.884C457.72 349.084 436.019 364.379 417.9 361.28L397.714 370.89C406.261 370.527 426.083 374.927 432.63 386.711C423.684 394.03 407.415 380.767 399.35 372.597C398.832 372.107 397.569 371.213 396.663 371.555C384.015 379.561 360.858 394.349 361.707 394.349C367.927 391.371 387.249 389.845 414.081 397.623C404.806 400.714 381.674 404.824 363.343 396.532L361.161 395.44H360.07C347.704 406.352 321.99 429.92 318.062 436.903C332.428 430.356 367.271 419.991 391.713 430.902C385.293 436.073 362.887 444.09 317.516 439.085L316.425 438.174C314.243 440.506 303.514 455.873 298.422 463.265L315.88 467.454C330.61 463.817 361.598 458.071 367.708 464.181L365.526 467.454H315.88H262.96Z" fill="#BEE498"/>
        <path d="M322.674 359.043C324.137 358.743 339.218 326.321 346.576 310.148C279.447 338.819 179.91 419.143 157.667 451.633L239.08 466.251C248.893 460.586 259.682 457.083 263.85 456.039C269.503 448.914 280.854 434.501 281.026 433.856C281.242 433.05 281.567 431.841 281.084 430.416C280.602 428.99 281.005 429.098 274.535 422.612C269.358 417.424 265.138 405.55 263.675 400.261C265.839 406.371 285.427 410.986 294.949 412.53C299.321 407.825 310.027 384.744 314.834 373.791C308.925 370.047 298.31 345.17 301.073 349.367C303.837 353.563 320.846 359.417 322.674 359.043Z" fill="#00CAC8"/>
        <path d="M16.3668 419.991C12.0023 420.427 3.63707 407.443 0 400.896V468H314.243C318.607 464.945 316.789 459.089 315.334 456.543C306.605 446.505 288.784 452.361 280.964 456.543C278.6 450.906 271.908 439.522 264.051 439.085C255.759 437.776 251.14 450.178 249.867 456.543C233.718 435.594 197.675 442.722 181.672 448.905C169.015 418.79 142.21 430.902 130.389 440.722C115.659 415.626 107.475 413.444 97.6554 412.898C87.8353 412.353 78.0152 422.173 72.014 431.447C67.2131 438.867 62.3758 434.539 60.5572 431.447C55.1016 416.172 50.1916 407.988 40.3715 405.26C30.5514 402.533 21.8224 419.445 16.3668 419.991Z" fill="url(#paint0_linear)"/>
    </g>
    <g clip-path="url(#clip1)">
        <path d="M1527.28 469.54C1571.28 408.373 1681.38 330.34 1769.78 469.54L1527.28 469.54Z" fill="#57CF71"/>
        <path d="M1466.43 433.119C1486.43 443.919 1491.1 460.286 1490.93 467.119C1492.93 500.319 1518.43 511.286 1530.93 512.619C1557.6 505.119 1611.33 485.519 1612.93 467.119C1614.93 444.119 1615.43 392.119 1601.43 381.119C1587.43 370.119 1575.43 379.619 1572.93 381.119C1570.43 382.619 1559.93 401.619 1559.93 362.619C1559.93 323.619 1554.43 305.619 1551.43 298.119C1548.43 290.619 1544.93 286.619 1537.43 284.619C1531.43 283.019 1525.93 292.952 1523.93 298.119C1521.6 300.786 1516.13 303.519 1512.93 293.119C1509.73 282.719 1503.6 270.786 1500.93 266.119C1496.6 259.619 1483.23 246.919 1464.43 248.119C1445.63 249.319 1442.93 266.952 1443.93 275.619C1445.93 281.786 1448.73 298.019 1443.93 313.619C1439.13 329.219 1441.93 346.786 1443.93 353.619C1463.43 375.119 1465.43 385.619 1464.43 388.619C1463.43 391.619 1448.93 407.119 1446.93 409.619C1444.93 412.119 1441.43 419.619 1466.43 433.119Z" fill="#33D7BE"/>
        <path d="M1470.28 294.54C1478.31 315.465 1489.27 342.348 1501.71 370.54M1604.78 535.54C1593.79 532.5 1580.23 517.147 1565.81 495.04M1458.28 339.04C1462.28 341.54 1497.14 372.54 1501.71 370.54M1501.71 370.54C1504.7 377.319 1507.78 384.174 1510.93 391.04M1532.78 327.54C1530.54 343.54 1523.04 378.64 1510.93 391.04M1510.93 391.04C1517.95 406.386 1525.31 421.787 1532.78 436.521M1473.78 414.54C1491.78 422.694 1528.78 438.506 1532.78 436.521M1532.78 436.521C1543.8 458.25 1555.04 478.529 1565.81 495.04M1579.28 405.04C1570.3 431.54 1555.04 486.64 1565.81 495.04" stroke="#173474" stroke-width="2" stroke-linecap="round" stroke-linejoin="round"/>
        <path d="M1568.62 375.04C1559.02 432.24 1603.29 447.54 1626.62 448.04C1679.82 448.04 1692.79 407.04 1692.62 386.54C1691.94 359.827 1678.44 341.916 1681.62 324.04C1684.43 308.287 1706.12 311.04 1706.12 293.04C1706.12 275.04 1689.62 262.04 1681.62 253.04C1675.22 245.84 1678.96 229.373 1681.62 222.04C1708.62 200.04 1707.12 180.54 1706.12 178.04C1705.12 175.54 1704.12 156.04 1674.62 151.54C1645.12 147.04 1634.62 171.54 1630.12 193.04C1625.62 214.54 1642.12 232.04 1620.12 247.54C1598.12 263.04 1598.12 266.04 1596.12 277.04C1594.12 288.04 1626.62 313.04 1600.12 324.04C1578.92 332.84 1570.29 361.706 1568.62 375.04Z" fill="#ACE98D"/>
        <path d="M1837.28 237.04C1727.28 256.24 1683.45 399.04 1675.28 468.04C1674.12 490.373 1675.08 539.84 1682.28 559.04C1779.48 525.84 1825.62 330.54 1837.28 237.04Z" fill="#069681"/>
        <path d="M1449.05 428.425C1452.66 444.267 1455.32 481.342 1437.07 502.912C1438.22 505.168 1446.56 517.721 1450.59 523.716L1450.32 523.413L1432.45 502.863C1434.72 504.544 1435.68 504.628 1435.87 504.461C1428.84 490.919 1414.23 462.274 1412.05 456.032C1405.38 455.567 1390.89 453.797 1386.34 450.435L1360.91 421.2C1370.36 420.1 1394.07 427.395 1412.05 456.032C1408.55 446.367 1401.65 426.744 1402.07 425.57C1375.63 401.726 1379.34 368.257 1384.6 354.327C1405.97 387.581 1406.85 412.663 1404.12 423.782C1403.64 426.238 1409.6 442.857 1412.64 450.859L1413.8 449.852C1414.89 436.576 1420.9 412.534 1439.02 404.614C1442.58 412.022 1442.49 432.102 1413.61 453.15C1414.95 458.899 1429.6 487.883 1436.76 501.657C1434.54 491.654 1434.22 465.063 1449.05 428.425Z" fill="#003856"/>
        <path d="M1490.4 467.198C1467.75 492.595 1475.56 539.764 1482.3 560.173L1487.08 565.673C1501.37 516.635 1495.25 479.591 1490.4 467.198Z" fill="#003856"/>
        <path d="M1663.28 199.04C1657.43 227.681 1649.1 272.363 1641.95 318.54M1627.78 468.04C1627.05 451.748 1628.24 429.967 1630.62 405.54M1620.28 277.04C1626.56 286.54 1639.68 308.14 1641.95 318.54M1641.95 318.54C1644.48 313.74 1658.23 294.873 1664.78 286.04M1641.95 318.54C1637.35 348.209 1633.25 378.496 1630.62 405.54M1602.78 363.04L1630.62 405.54M1630.62 405.54C1639.17 394.206 1657.98 371.04 1664.78 369.04" stroke="#141E1E" stroke-width="2" stroke-linecap="round" stroke-linejoin="round"/>
        <path d="M1824.78 285.54C1798.93 303.786 1769.5 352.006 1744.46 402.54M1716.37 464.04C1707.71 484.622 1656.47 636.526 1651.28 651.54L1716.37 464.04ZM1716.37 464.04C1711.68 455.706 1701.58 435.84 1698.78 423.04M1716.37 464.04C1724.18 459.706 1743.28 450.64 1757.28 449.04M1716.37 464.04C1724.63 444.426 1734.18 423.288 1744.46 402.54M1744.46 402.54L1787.78 382.54M1744.46 402.54C1740.2 398.54 1737.23 356.54 1736.28 336.04" stroke="#173474" stroke-width="2" stroke-linecap="round" stroke-linejoin="round"/>
    </g>
    <defs>
        <linearGradient id="paint0_linear" x1="158.49" y1="400.896" x2="158.49" y2="468" gradientUnits="userSpaceOnUse">
            <stop stop-color="#005F51"/>
            <stop offset="1" stop-color="#069681"/>
        </linearGradient>
        <clipPath id="clip0">
            <rect width="467" height="415.717" fill="white" transform="translate(0 52.2827)"/>
        </clipPath>
        <clipPath id="clip1">
            <rect width="432" height="318" fill="white" transform="translate(1338 150)"/>
        </clipPath>
    </defs>
</svg>
