<svg width="896" height="900" viewBox="0 0 896 900" fill="none" xmlns="http://www.w3.org/2000/svg">
    <path d="M525.646 712C516.168 735.129 510.693 748.436 498.646 777C528.646 774 604.445 753.8 667.646 697L719.146 721.5L694.645 669.683C752.412 603.945 771.581 529.584 774.645 502L895.645 450L721.645 450C715.424 620.794 588.177 695.83 525.646 712Z" fill="url(#paint0_linear)"/>
    <path d="M539.03 804.646L546.689 802.593L540.365 778.994L532.707 781.046L539.03 804.646Z" fill="#004665"/>
    <path d="M627.375 769.592L634.91 765.242L622.64 743.988L615.104 748.339L627.375 769.592Z" fill="#004665"/>
    <path d="M763.173 636.344L767.396 629.03L746.088 616.729L741.866 624.042L763.173 636.344Z" fill="#004665"/>
    <path d="M800.496 548.75L802.702 540.42L779.408 534.25L777.202 542.58L800.496 548.75Z" fill="#004665"/>
    <path d="M185.645 530C162.517 520.522 149.209 515.048 120.645 503C123.645 533 143.845 608.8 200.645 672L176.146 723.5L227.963 699C293.701 756.767 368.061 775.935 395.646 779L447.646 900L447.646 726C276.852 719.779 201.815 592.532 185.645 530Z" fill="url(#paint1_linear)"/>
    <path d="M92.9999 543.385L95.052 551.043L118.652 544.72L116.599 537.061L92.9999 543.385Z" fill="#004665"/>
    <path d="M128.053 631.729L132.404 639.265L153.657 626.994L149.307 619.459L128.053 631.729Z" fill="#004665"/>
    <path d="M261.301 767.528L268.615 771.751L280.917 750.443L273.603 746.22L261.301 767.528Z" fill="#004665"/>
    <path d="M348.895 804.851L357.225 807.057L363.395 783.763L355.066 781.556L348.895 804.851Z" fill="#004665"/>
    <path d="M370 188C379.478 164.871 384.952 151.564 397 123C367 126 291.2 146.2 228 203L176.5 178.5L201 230.317C143.233 296.055 124.065 370.416 121 398L0 450H174C180.221 279.206 307.468 204.17 370 188Z" fill="url(#paint2_linear)"/>
    <path d="M356.615 95.3545L348.957 97.4066L355.28 121.006L362.939 118.954L356.615 95.3545Z" fill="#004665"/>
    <path d="M268.271 130.408L260.735 134.758L273.006 156.012L280.541 151.661L268.271 130.408Z" fill="#004665"/>
    <path d="M132.472 263.656L128.25 270.97L149.557 283.271L153.78 275.958L132.472 263.656Z" fill="#004665"/>
    <path d="M95.1493 351.25L92.9429 359.58L116.237 365.75L118.444 357.42L95.1493 351.25Z" fill="#004665"/>
    <path d="M710 370C733.129 379.478 746.436 384.952 775 397C772 367 751.8 291.2 695 228L719.5 176.5L667.683 201C601.945 143.233 527.584 124.065 500 121L448 4.67415e-05L448 174C618.794 180.221 693.83 307.468 710 370Z" fill="url(#paint3_linear)"/>
    <path d="M802.645 356.616L800.593 348.957L776.994 355.28L779.046 362.939L802.645 356.616Z" fill="#004665"/>
    <path d="M767.592 268.271L763.241 260.735L741.988 273.006L746.339 280.541L767.592 268.271Z" fill="#004665"/>
    <path d="M634.344 132.472L627.031 128.25L614.729 149.557L622.042 153.78L634.344 132.472Z" fill="#004665"/>
    <path d="M546.75 95.1495L538.42 92.9431L532.25 116.238L540.58 118.444L546.75 95.1495Z" fill="#004665"/>
    <defs>
        <linearGradient id="paint0_linear" x1="697.146" y1="777" x2="697.145" y2="450" gradientUnits="userSpaceOnUse">
            <stop stop-color="#00CAC7"/>
            <stop offset="0.848958" stop-color="#069782"/>
        </linearGradient>
        <linearGradient id="paint1_linear" x1="120.645" y1="701.5" x2="447.645" y2="701.5" gradientUnits="userSpaceOnUse">
            <stop stop-color="#00CAC7"/>
            <stop offset="0.848958" stop-color="#069782"/>
        </linearGradient>
        <linearGradient id="paint2_linear" x1="198.5" y1="123" x2="198.5" y2="450" gradientUnits="userSpaceOnUse">
            <stop stop-color="#00CAC7"/>
            <stop offset="0.848958" stop-color="#069782"/>
        </linearGradient>
        <linearGradient id="paint3_linear" x1="775" y1="198.5" x2="448" y2="198.5" gradientUnits="userSpaceOnUse">
            <stop stop-color="#00CAC7"/>
            <stop offset="0.848958" stop-color="#069782"/>
        </linearGradient>
    </defs>
</svg>
