<svg width="895" height="901" viewBox="0 0 895 901" fill="none" xmlns="http://www.w3.org/2000/svg">
    <path fill-rule="evenodd" clip-rule="evenodd" d="M610.831 458C610.943 455.514 611 453.014 611 450.5C611 447.649 610.927 444.815 610.783 442H562V422H608.525C607.57 416.57 606.348 411.232 604.871 406H562V386H597.785C581.268 347.564 550.436 316.733 512 300.215V336H492V293.129C486.768 291.653 481.43 290.43 476 289.475V336H456V287.217C453.185 287.073 450.351 287 447.5 287C444.986 287 442.486 287.057 440 287.169V336H420V289.303C414.571 290.222 409.233 291.41 404 292.85V336H384V299.789C345.099 316.199 313.876 347.231 297.215 386H334V406H290.129C288.652 411.232 287.43 416.57 286.475 422H334V442H284.217C284.073 444.815 284 447.649 284 450.5C284 453.014 284.057 455.514 284.169 458H334V478H286.303C287.222 483.429 288.409 488.767 289.85 494H334V514H296.789C313.34 553.235 344.765 584.66 384 601.211V564H404V608.15C409.233 609.591 414.571 610.778 420 611.697V564H440V613.831C442.486 613.943 444.986 614 447.5 614C450.351 614 453.185 613.927 456 613.783V564H476V611.525C481.43 610.57 486.768 609.348 492 607.871V564H512V600.785C550.769 584.125 581.801 552.901 598.211 514H562V494H605.15C606.591 488.767 607.778 483.429 608.697 478H562V458H610.831ZM447.5 633C548.292 633 630 551.292 630 450.5C630 349.708 548.292 268 447.5 268C346.708 268 265 349.708 265 450.5C265 551.292 346.708 633 447.5 633ZM396 398H500V502H396V398ZM382 384H514V516H382V384ZM347 349H382H514H549V384V516V551H514H382H347V516V384V349ZM367.5 377C372.194 377 376 373.195 376 368.5C376 363.806 372.194 360 367.5 360C362.806 360 359 363.806 359 368.5C359 373.195 362.806 377 367.5 377ZM538 531.5C538 536.195 534.194 540 529.5 540C524.806 540 521 536.195 521 531.5C521 526.806 524.806 523 529.5 523C534.194 523 538 526.806 538 531.5Z" fill="url(#paint0_linear)"/>
    <defs>
        <linearGradient id="paint0_linear" x1="630" y1="468.569" x2="255.965" y2="470.376" gradientUnits="userSpaceOnUse">
            <stop stop-color="#002E46"/>
            <stop offset="0.0001" stop-color="#002E46"/>
            <stop offset="1" stop-color="#006182"/>
        </linearGradient>
    </defs>
</svg>
