<svg width="896" height="900" viewBox="0 0 896 900" fill="none" xmlns="http://www.w3.org/2000/svg">
    <path d="M525.646 712C516.168 735.129 510.693 748.436 498.646 777C528.646 774 604.445 753.8 667.646 697L719.146 721.5L694.645 669.683C752.412 603.945 771.581 529.584 774.645 502L895.645 450L721.645 450C715.424 620.794 588.177 695.83 525.646 712Z" fill="url(#paint0_linear)"/>
    <path d="M539.03 804.645L546.689 802.593L540.365 778.994L532.707 781.046L539.03 804.645Z" fill="#004665"/>
    <path d="M627.375 769.592L634.91 765.241L622.64 743.988L615.104 748.339L627.375 769.592Z" fill="#004665"/>
    <path d="M763.173 636.344L767.396 629.03L746.088 616.729L741.866 624.042L763.173 636.344Z" fill="#004665"/>
    <path d="M800.496 548.75L802.703 540.42L779.408 534.25L777.202 542.58L800.496 548.75Z" fill="#004665"/>
    <path d="M185.645 530C162.517 520.522 149.209 515.048 120.645 503C123.645 533 143.845 608.8 200.645 672L176.146 723.5L227.963 699C293.701 756.767 368.061 775.935 395.646 779L447.646 900L447.646 726C276.852 719.779 201.815 592.532 185.645 530Z" fill="url(#paint1_linear)"/>
    <path d="M92.9999 543.385L95.052 551.043L118.652 544.72L116.599 537.061L92.9999 543.385Z" fill="#004665"/>
    <path d="M128.053 631.729L132.404 639.265L153.657 626.994L149.307 619.459L128.053 631.729Z" fill="#004665"/>
    <path d="M261.301 767.528L268.615 771.75L280.917 750.443L273.603 746.22L261.301 767.528Z" fill="#004665"/>
    <path d="M348.895 804.851L357.225 807.057L363.395 783.763L355.066 781.556L348.895 804.851Z" fill="#004665"/>
    <path d="M370 188C379.478 164.871 384.952 151.564 397 123C367 126 291.2 146.2 228 203L176.5 178.5L201 230.317C143.233 296.055 124.065 370.416 121 398L0 450H174C180.221 279.206 307.468 204.17 370 188Z" fill="url(#paint2_linear)"/>
    <path d="M356.615 95.3545L348.957 97.4066L355.28 121.006L362.939 118.954L356.615 95.3545Z" fill="#004665"/>
    <path d="M268.271 130.408L260.735 134.758L273.006 156.012L280.541 151.661L268.271 130.408Z" fill="#004665"/>
    <path d="M132.472 263.656L128.25 270.969L149.557 283.271L153.78 275.958L132.472 263.656Z" fill="#004665"/>
    <path d="M95.1493 351.25L92.9429 359.58L116.237 365.75L118.444 357.42L95.1493 351.25Z" fill="#004665"/>
    <path d="M710 370C733.129 379.478 746.436 384.952 775 397C772 367 751.8 291.2 695 228L719.5 176.5L667.683 201C601.945 143.233 527.584 124.065 500 121L448 -1.42936e-05L448 174C618.794 180.221 693.83 307.468 710 370Z" fill="url(#paint3_linear)"/>
    <path d="M802.645 356.615L800.593 348.957L776.994 355.28L779.046 362.939L802.645 356.615Z" fill="#004665"/>
    <path d="M767.592 268.271L763.241 260.735L741.988 273.006L746.339 280.541L767.592 268.271Z" fill="#004665"/>
    <path d="M634.344 132.472L627.031 128.25L614.729 149.557L622.042 153.78L634.344 132.472Z" fill="#004665"/>
    <path d="M546.75 95.1494L538.42 92.943L532.25 116.237L540.58 118.444L546.75 95.1494Z" fill="#004665"/>
    <path fill-rule="evenodd" clip-rule="evenodd" d="M610.477 457C610.589 454.514 610.646 452.014 610.646 449.5C610.646 446.649 610.573 443.815 610.428 441H561.646V421H608.17C607.216 415.57 605.993 410.232 604.517 405H561.646V385H597.431C580.913 346.564 550.081 315.733 511.646 299.215V335H491.646V292.129C486.414 290.652 481.076 289.43 475.646 288.475V335H455.646V286.217C452.83 286.073 449.996 286 447.146 286C444.632 286 442.131 286.057 439.646 286.169V335H419.646V288.303C414.216 289.222 408.878 290.409 403.646 291.85V335H383.646V298.789C344.745 315.199 313.521 346.231 296.86 385H333.646V405H289.774C288.298 410.232 287.075 415.57 286.121 421H333.646V441H283.863C283.718 443.815 283.646 446.649 283.646 449.5C283.646 452.014 283.702 454.514 283.814 457H333.646V477H285.948C286.868 482.429 288.055 487.767 289.496 493H333.646V513H296.434C312.986 552.235 344.411 583.66 383.646 600.211V563H403.646V607.15C408.878 608.591 414.216 609.778 419.646 610.697V563H439.646V612.831C442.131 612.943 444.632 613 447.146 613C449.996 613 452.83 612.927 455.646 612.783V563H475.646V610.525C481.076 609.57 486.414 608.348 491.646 606.871V563H511.646V599.785C550.414 583.124 581.446 551.901 597.857 513H561.646V493H604.795C606.236 487.767 607.423 482.429 608.343 477H561.646V457H610.477ZM447.146 632C547.937 632 629.646 550.292 629.646 449.5C629.646 348.708 547.937 267 447.146 267C346.354 267 264.646 348.708 264.646 449.5C264.646 550.292 346.354 632 447.146 632ZM395.646 397H499.646V501H395.646V397ZM381.646 383H513.646V515H381.646V383ZM346.646 348H381.646H513.646H548.646V383V515V550H513.646H381.646H346.646V515V383V348ZM367.146 376C371.84 376 375.646 372.194 375.646 367.5C375.646 362.806 371.84 359 367.146 359C362.451 359 358.646 362.806 358.646 367.5C358.646 372.194 362.451 376 367.146 376ZM537.646 530.5C537.646 535.194 533.84 539 529.146 539C524.451 539 520.646 535.194 520.646 530.5C520.646 525.806 524.451 522 529.146 522C533.84 522 537.646 525.806 537.646 530.5Z" fill="url(#paint4_linear)"/>
    <path fill-rule="evenodd" clip-rule="evenodd" d="M454.877 228.5C454.877 233.194 451.072 237 446.377 237C441.683 237 437.877 233.194 437.877 228.5C437.877 223.806 441.683 220 446.377 220C451.072 220 454.877 223.806 454.877 228.5ZM463.461 235.613C460.673 242.3 454.074 247 446.377 247C438.709 247 432.13 242.334 429.325 235.687C424.39 236.075 419.501 236.624 414.662 237.331C413.299 246.205 405.632 253 396.377 253C390.038 253 384.443 249.812 381.11 244.951C375.907 246.571 370.786 248.377 365.755 250.364C365.836 251.065 365.877 251.777 365.877 252.5C365.877 262.717 357.594 271 347.377 271C342.334 271 337.762 268.982 334.424 265.709C328.076 269.469 321.932 273.537 316.012 277.894C314.865 274.28 312.637 271.147 309.708 268.875C315.976 264.272 322.484 259.977 329.21 256.011C328.992 254.874 328.877 253.701 328.877 252.5C328.877 242.283 337.16 234 347.377 234C352.92 234 357.894 236.438 361.285 240.3C366.718 238.142 372.252 236.183 377.877 234.433C377.913 224.247 386.182 216 396.377 216C403.709 216 410.045 220.265 413.039 226.45C418.062 225.716 423.138 225.143 428.26 224.736C429.999 216.324 437.45 210 446.377 210C455.312 210 462.767 216.334 464.498 224.756L464.496 224.748C464.49 224.718 464.484 224.688 464.478 224.658C469.945 225.068 475.36 225.667 480.716 226.45C483.71 220.265 490.045 216 497.377 216C507.594 216 515.877 224.283 515.877 234.5V234.433C521.503 236.184 527.037 238.142 532.47 240.3C535.861 236.438 540.834 234 546.377 234C556.594 234 564.877 242.283 564.877 252.5C564.877 253.701 564.763 254.874 564.545 256.011C571.089 259.87 577.428 264.042 583.541 268.504C586.586 266.3 590.33 265 594.377 265C604.594 265 612.877 273.283 612.877 283.5C612.877 286.522 612.153 289.374 610.868 291.893C639.233 320.239 660.295 355.892 670.987 395.787C673.857 395.914 676.739 396.714 679.399 398.25C688.247 403.359 691.279 414.673 686.17 423.521C684.117 427.077 681.063 429.693 677.569 431.219C678.394 438.984 678.835 446.864 678.874 454.838C679.852 455.198 680.812 455.647 681.745 456.185C690.594 461.294 693.625 472.608 688.517 481.457C685.792 486.177 681.3 489.242 676.359 490.299C675.486 496.196 674.39 502.021 673.081 507.765L673.058 507.752L672.982 507.707L672.921 507.671L672.834 507.62C672.834 507.62 672.834 507.621 672.834 507.62C681.682 512.729 684.714 524.044 679.605 532.892C675.966 539.196 669.176 542.547 662.373 542.106C660.461 546.887 658.394 551.59 656.179 556.208C662.529 561.929 664.246 571.494 659.801 579.193C655.344 586.913 646.163 590.205 638.018 587.527C634.933 592.001 631.696 596.361 628.313 600.6C632.239 606.296 632.794 613.971 629.105 620.361C623.997 629.209 612.682 632.241 603.834 627.132C603.771 627.096 603.708 627.059 603.645 627.022C599.376 630.937 594.959 634.695 590.405 638.286C590.077 637.372 589.677 636.483 589.207 635.627C592.216 641.11 592.372 647.985 589.017 653.796C583.908 662.644 572.594 665.676 563.745 660.567C562.591 659.901 561.536 659.129 560.585 658.271C554.081 661.935 547.382 665.295 540.508 668.331C540.163 665.57 539.199 662.903 537.675 660.549C541.329 666.195 541.764 673.64 538.17 679.865C533.061 688.713 521.747 691.745 512.899 686.636C510.135 685.041 507.939 682.84 506.381 680.298C487.391 685.323 467.447 688 446.877 688C426.118 688 405.995 685.273 386.848 680.159C385.285 682.76 383.059 685.012 380.245 686.636C371.397 691.745 360.083 688.713 354.974 679.865C352.832 676.155 352.121 672.013 352.67 668.075C345.549 664.907 338.618 661.391 331.897 657.549C330.989 658.35 329.988 659.072 328.899 659.701C320.05 664.81 308.736 661.778 303.627 652.93C300.793 648.021 300.464 642.355 302.244 637.409C297.722 633.799 293.339 630.025 289.103 626.093C289.006 626.152 288.908 626.209 288.81 626.266C279.962 631.375 268.647 628.343 263.539 619.494C259.788 612.998 260.425 605.173 264.53 599.45C261.434 595.52 258.462 591.487 255.62 587.357C247.354 590.337 237.89 587.069 233.342 579.193C228.799 571.323 230.695 561.502 237.395 555.832C235.106 551.036 232.976 546.149 231.012 541.177C223.965 541.921 216.81 538.559 213.039 532.026C207.93 523.177 210.962 511.863 219.81 506.754C219.998 506.646 220.186 506.542 220.376 506.441C219.149 500.905 218.119 495.296 217.295 489.62C211.961 488.784 207.037 485.631 204.127 480.591C199.018 471.742 202.05 460.428 210.899 455.319C212.186 454.576 213.525 454.005 214.889 453.6C214.965 446.131 215.394 438.747 216.159 431.463C212.423 429.98 209.14 427.274 206.974 423.521C201.865 414.673 204.897 403.359 213.745 398.25C216.595 396.605 219.701 395.804 222.772 395.77C233.384 356.187 254.203 320.781 282.236 292.546C280.734 289.871 279.877 286.786 279.877 283.5C279.877 273.283 288.16 265 298.377 265C308.594 265 316.877 273.283 316.877 283.5C316.877 293.717 308.594 302 298.377 302C295.452 302 292.685 301.321 290.225 300.112C263.361 327.107 243.428 361.006 233.32 398.916C235.591 400.44 237.557 402.493 239.017 405.021C244.126 413.87 241.094 425.184 232.245 430.293C230.607 431.239 228.885 431.906 227.132 432.308C226.38 439.363 225.96 446.516 225.888 453.753C230.076 455.119 233.794 457.976 236.17 462.091C241.279 470.939 238.247 482.254 229.399 487.362C228.997 487.594 228.59 487.81 228.178 488.008C228.981 493.541 229.988 499.006 231.193 504.398C236.802 505.053 242.041 508.259 245.082 513.526C249.605 521.361 247.746 531.129 241.118 536.811C243.083 541.808 245.224 546.717 247.534 551.529C254.542 550.837 261.635 554.198 265.385 560.693C269.132 567.182 268.5 574.998 264.407 580.719C267.242 584.859 270.214 588.897 273.316 592.827C281.579 589.854 291.036 593.122 295.582 600.994C298.678 606.358 298.784 612.628 296.416 617.873C300.435 621.61 304.594 625.2 308.883 628.633C309.367 628.288 309.873 627.962 310.399 627.658C319.247 622.55 330.561 625.581 335.67 634.43C338.163 638.748 338.718 643.653 337.603 648.138C343.993 651.78 350.583 655.113 357.351 658.115C358.595 656.757 360.065 655.563 361.745 654.594C370.594 649.485 381.908 652.517 387.017 661.365C388.497 663.93 389.294 666.701 389.464 669.469C407.772 674.381 427.019 677 446.877 677C466.512 677 485.548 674.44 503.671 669.634C503.818 666.812 504.617 663.981 506.127 661.365C511.236 652.517 522.55 649.485 531.399 654.594C533.158 655.609 534.687 656.87 535.968 658.308C542.479 655.436 548.826 652.259 554.99 648.795C553.944 644.367 554.519 639.547 556.974 635.296C562.083 626.447 573.397 623.416 582.245 628.524C582.775 628.83 583.285 629.158 583.772 629.507C588.074 626.109 592.246 622.554 596.279 618.851C593.859 613.584 593.943 607.263 597.062 601.861C601.668 593.884 611.316 590.634 619.655 593.814C622.933 589.709 626.069 585.484 629.053 581.148C624.678 575.393 623.917 567.346 627.758 560.693C631.612 554.019 638.995 550.654 646.189 551.596C648.304 547.194 650.278 542.71 652.104 538.152C645.009 532.553 642.91 522.45 647.562 514.392C650.771 508.834 656.429 505.571 662.386 505.179C663.574 499.95 664.577 494.651 665.387 489.289C664.66 488.985 663.945 488.632 663.245 488.228C654.397 483.12 651.365 471.805 656.474 462.957C659.059 458.48 663.232 455.492 667.871 454.294C667.815 446.918 667.398 439.628 666.636 432.44C664.669 432.06 662.731 431.351 660.899 430.293C652.05 425.184 649.018 413.87 654.127 405.021C655.697 402.302 657.853 400.132 660.344 398.579C650.166 360.646 630.146 326.741 603.189 299.771C600.569 301.192 597.568 302 594.377 302C584.16 302 575.877 293.717 575.877 283.5C575.877 281.327 576.252 279.242 576.94 277.306C571.268 273.171 565.392 269.299 559.33 265.709C555.993 268.982 551.421 271 546.377 271C536.16 271 527.877 262.717 527.877 252.5C527.877 251.777 527.919 251.065 527.999 250.364C522.969 248.377 517.848 246.571 512.645 244.951C509.311 249.812 503.717 253 497.377 253C488.123 253 480.455 246.205 479.093 237.331C473.938 236.578 468.725 236.003 463.461 235.613ZM497.377 243C502.072 243 505.877 239.194 505.877 234.5C505.877 229.806 502.072 226 497.377 226C492.683 226 488.877 229.806 488.877 234.5C488.877 239.194 492.683 243 497.377 243ZM594.377 292C599.072 292 602.877 288.194 602.877 283.5C602.877 278.806 599.072 275 594.377 275C589.683 275 585.877 278.806 585.877 283.5C585.877 288.194 589.683 292 594.377 292ZM554.877 252.5C554.877 257.194 551.072 261 546.377 261C541.683 261 537.877 257.194 537.877 252.5C537.877 247.806 541.683 244 546.377 244C551.072 244 554.877 247.806 554.877 252.5ZM396.377 243C401.072 243 404.877 239.194 404.877 234.5C404.877 229.806 401.072 226 396.377 226C391.683 226 387.877 229.806 387.877 234.5C387.877 239.194 391.683 243 396.377 243ZM355.877 252.5C355.877 257.194 352.072 261 347.377 261C342.683 261 338.877 257.194 338.877 252.5C338.877 247.806 342.683 244 347.377 244C352.072 244 355.877 247.806 355.877 252.5ZM298.377 292C303.072 292 306.877 288.194 306.877 283.5C306.877 278.806 303.072 275 298.377 275C293.683 275 289.877 278.806 289.877 283.5C289.877 288.194 293.683 292 298.377 292ZM218.745 406.91C222.811 404.563 228.009 405.956 230.357 410.021C232.704 414.087 231.311 419.286 227.245 421.633C223.18 423.98 217.981 422.587 215.634 418.521C213.287 414.456 214.68 409.257 218.745 406.91ZM227.51 467.091C225.163 463.025 219.964 461.632 215.899 463.979C211.833 466.327 210.44 471.525 212.787 475.591C215.135 479.656 220.333 481.049 224.399 478.702C228.464 476.355 229.857 471.156 227.51 467.091ZM224.81 515.415C228.876 513.067 234.074 514.46 236.421 518.526C238.768 522.591 237.376 527.79 233.31 530.137C229.245 532.484 224.046 531.091 221.699 527.026C219.352 522.96 220.745 517.762 224.81 515.415ZM256.725 565.693C254.378 561.628 249.179 560.235 245.114 562.582C241.048 564.929 239.655 570.128 242.003 574.193C244.35 578.259 249.548 579.652 253.614 577.304C257.679 574.957 259.072 569.759 256.725 565.693ZM275.31 602.883C279.376 600.536 284.574 601.929 286.921 605.994C289.268 610.06 287.876 615.258 283.81 617.606C279.745 619.953 274.546 618.56 272.199 614.494C269.852 610.429 271.245 605.23 275.31 602.883ZM315.399 636.319C319.464 633.971 324.663 635.364 327.01 639.43C329.357 643.495 327.964 648.694 323.899 651.041C319.833 653.388 314.635 651.995 312.287 647.93C309.94 643.864 311.333 638.666 315.399 636.319ZM366.745 663.254C370.811 660.907 376.009 662.3 378.357 666.365C380.704 670.43 379.311 675.629 375.245 677.976C371.18 680.323 365.981 678.93 363.634 674.865C361.287 670.8 362.68 665.601 366.745 663.254ZM665.899 421.633C661.833 419.285 660.44 414.087 662.787 410.021C665.135 405.956 670.333 404.563 674.399 406.91C678.464 409.257 679.857 414.456 677.51 418.521C675.163 422.587 669.964 423.98 665.899 421.633ZM668.245 479.568C664.18 477.221 662.787 472.022 665.134 467.957C667.481 463.891 672.68 462.498 676.745 464.845C680.811 467.193 682.204 472.391 679.857 476.457C677.509 480.522 672.311 481.915 668.245 479.568ZM656.223 519.392C653.875 523.457 655.268 528.656 659.334 531.003C663.399 533.35 668.598 531.957 670.945 527.892C673.292 523.826 671.899 518.628 667.834 516.281C663.768 513.934 658.57 515.326 656.223 519.392ZM639.53 577.304C635.464 574.957 634.071 569.759 636.419 565.693C638.766 561.628 643.964 560.235 648.03 562.582C652.095 564.929 653.488 570.128 651.141 574.193C648.794 578.259 643.595 579.652 639.53 577.304ZM605.723 606.861C603.375 610.926 604.768 616.125 608.834 618.472C612.899 620.819 618.098 619.426 620.445 615.361C622.792 611.295 621.399 606.097 617.334 603.749C613.268 601.402 608.07 602.795 605.723 606.861ZM568.745 651.907C564.68 649.56 563.287 644.361 565.634 640.296C567.981 636.23 573.18 634.837 577.245 637.185C581.311 639.532 582.704 644.73 580.357 648.796C578.009 652.861 572.811 654.254 568.745 651.907ZM514.787 666.365C512.44 670.43 513.833 675.629 517.899 677.976C521.964 680.323 527.163 678.93 529.51 674.865C531.857 670.799 530.464 665.601 526.399 663.254C522.333 660.907 517.135 662.299 514.787 666.365Z" fill="url(#paint5_linear)"/>
    <defs>
        <linearGradient id="paint0_linear" x1="697.146" y1="777" x2="697.145" y2="450" gradientUnits="userSpaceOnUse">
            <stop stop-color="#00CAC7"/>
            <stop offset="0.848958" stop-color="#069782"/>
        </linearGradient>
        <linearGradient id="paint1_linear" x1="120.645" y1="701.5" x2="447.645" y2="701.5" gradientUnits="userSpaceOnUse">
            <stop stop-color="#00CAC7"/>
            <stop offset="0.848958" stop-color="#069782"/>
        </linearGradient>
        <linearGradient id="paint2_linear" x1="198.5" y1="123" x2="198.5" y2="450" gradientUnits="userSpaceOnUse">
            <stop stop-color="#00CAC7"/>
            <stop offset="0.848958" stop-color="#069782"/>
        </linearGradient>
        <linearGradient id="paint3_linear" x1="775" y1="198.5" x2="448" y2="198.5" gradientUnits="userSpaceOnUse">
            <stop stop-color="#00CAC7"/>
            <stop offset="0.848958" stop-color="#069782"/>
        </linearGradient>
        <linearGradient id="paint4_linear" x1="629.645" y1="467.569" x2="255.611" y2="469.376" gradientUnits="userSpaceOnUse">
            <stop stop-color="#002E46"/>
            <stop offset="0.0001" stop-color="#002E46"/>
            <stop offset="1" stop-color="#006182"/>
        </linearGradient>
        <linearGradient id="paint5_linear" x1="690.645" y1="450" x2="201.645" y2="450" gradientUnits="userSpaceOnUse">
            <stop stop-color="#55CE6F"/>
            <stop offset="1" stop-color="#80ED9C"/>
        </linearGradient>
    </defs>
</svg>
