<svg width="428" height="381" viewBox="0 0 428 381" fill="none" xmlns="http://www.w3.org/2000/svg">
<path d="M306 350C306.8 354.4 308 355.833 308.5 356L261.5 363.5C261.5 363.5 249.167 348 247 342.5C213.945 298.949 140.632 251.739 110 236.5C129.6 228.1 159.833 230 172.5 232C174.1 232.8 175.918 251.892 177 256.5C178.082 261.108 189.002 247.189 190.5 238.5C200.5 238.5 229.5 256 239.5 263.5C247.5 269.5 242.833 285 239.5 292C252.5 295 254.5 281.5 259.5 282.5C263.5 283.3 268.167 289.167 270 292C267.5 292.5 261.9 294.5 259.5 298.5C256.5 303.5 271 333 273 333.5L298 352.5L306 350Z" fill="#069681"/>
<path d="M347.5 128C357.5 146.667 386.6 185.4 423 191C423.8 194.2 426.333 213.682 427.5 223.023V222.5V187C426.7 190.6 425.833 191.5 425.5 191.5C420.833 172.167 410.7 131.5 407.5 123.5C413.667 117.333 426.4 103.2 428 96V45.5C417.77 52.4983 400.688 79.9565 407.5 123.5C402.677 111 392.678 85.8 391.266 85C396.867 38.9393 364.587 9.20084 347.5 0C354.934 50.9775 375.522 76.3982 387.714 85C390.285 87.0071 398.643 108.445 402.5 118.914H400.5C388.063 106.798 361.591 88.2923 337 96C339.833 106.333 357.1 126 403.5 122C407.1 128.8 417.488 169.833 422.232 189.5C415.852 177.77 393.423 151.344 347.5 128Z" fill="#003856"/>
<path d="M340 201.5C384 207.1 416.667 260.167 427.5 286V295.5C371.5 259.5 345.833 217.833 340 201.5Z" fill="#003856"/>
<path d="M382 327H417.5C416.3 303 405.5 273.667 400 262C397.407 256.5 393.833 255.5 392 256C376.8 262.8 366.167 259.833 362.5 257.5C376.9 253.5 380.5 237.167 380.5 229.5C363.7 201.9 338.167 182.667 327.5 176.5C319.1 188.5 306 191.5 300.5 191.5C304.1 183.9 306.333 168.333 307 161.5C277 144.7 237.833 139.167 222 138.5C312.8 216.9 352.5 320.167 361 362L389 360.5L382 327Z" fill="#069681"/>
<path d="M234.5 202.5C232.9 201.7 225.5 159.5 222 138.5C290.8 192.5 350.833 291.5 366.5 336L297 355.5C287.496 345.996 274.268 338.648 269.638 336.077L269.5 336C265.167 326 257.5 302.8 257.5 302C257.5 301 258.5 299.5 259.5 298C260.5 296.5 260 296.5 269.5 291C277.1 286.6 286.667 274.167 290 268.5C285.6 274.9 261.5 274.167 250 273C246.4 266.2 241.167 236.167 239 222C247 219.5 267 194 262.5 198C258 202 236.5 203.5 234.5 202.5Z" fill="#00CAC8"/>
<path d="M187 380.5C181.667 360 168.6 314.6 159 303C161.333 324.667 165.5 369.3 163.5 374.5L155.5 376.42C155.5 373.956 145.833 361.113 141 355C144 344 144.5 316.5 122.5 294.5C121.167 299.667 130 341 135.5 347C136 348 138.4 350.3 138 351.5C132.086 344.833 116.6 329.1 103 317.5C103 316.5 103 279.5 81 267C81.471 273.122 88.507 294.06 100.687 313.853L102 316.5C101.414 316.155 98.045 313.479 97.5 313C96.828 312.41 76 299 65.5 292.5C65.5 291.5 69 265 48.5 256C47.375 260.017 49.455 272.777 65 290.5C65.468 291.757 64.955 291.526 64 291.5L46 283C41.667 275.833 26.5 262.1 0.5 264.5C8.505 272.015 28.393 286.032 45 283.192L63.5 292C55.667 291.667 37.5 295.7 31.5 306.5C39.698 313.208 54.609 301.052 62 293.564C62.475 293.115 63.633 292.296 64.463 292.609C76.055 299.947 97.278 313.5 96.5 313.5C90.799 310.77 73.091 309.372 48.5 316.5C57 319.333 78.2 323.1 95 315.5L97 314.5H98C109.333 324.5 132.9 346.1 136.5 352.5C123.333 346.5 91.4 337 69 347C74.883 351.739 95.419 359.087 137 354.5L138 353.665C140 355.802 149.833 369.885 154.5 376.66L138.5 380.5C125 377.167 96.6 371.9 91 377.5L93 380.5H138.5H187Z" fill="#BEE498"/>
<path d="M132.273 281.142C130.933 280.868 117.111 251.153 110.367 236.33C171.89 262.608 263.115 336.223 283.5 366L208.886 379.397C199.892 374.205 190.004 370.995 186.185 370.038C181.003 363.508 170.601 350.299 170.443 349.708C170.245 348.969 169.948 347.861 170.389 346.554C170.831 345.248 170.462 345.347 176.392 339.403C181.136 334.647 185.004 323.765 186.345 318.918C184.361 324.518 166.41 328.747 157.682 330.162C153.676 325.851 143.864 304.697 139.458 294.659C144.874 291.228 154.603 268.428 152.07 272.274C149.537 276.12 133.949 281.485 132.273 281.142Z" fill="#00CAC8"/>
<path d="M413 337C417 337.4 424.667 325.5 428 319.5V381H140C136 378.2 137.667 372.833 139 370.5C147 361.3 163.333 366.667 170.5 370.5C172.667 365.333 178.8 354.9 186 354.5C193.6 353.3 197.833 364.667 199 370.5C213.8 351.3 246.833 357.833 261.5 363.5C273.1 335.9 297.667 347 308.5 356C322 333 329.5 331 338.5 330.5C347.5 330 356.5 339 362 347.5C366.4 354.3 370.833 350.333 372.5 347.5C377.5 333.5 382 326 391 323.5C400 321 408 336.5 413 337Z" fill="url(#paint0_linear)"/>
<defs>
<linearGradient id="paint0_linear" x1="282.746" y1="319.5" x2="282.746" y2="381" gradientUnits="userSpaceOnUse">
<stop stop-color="#005F51"/>
<stop offset="1" stop-color="#069681"/>
</linearGradient>
</defs>
</svg>
