<svg width="428" height="381" viewBox="0 0 428 381" fill="none" xmlns="http://www.w3.org/2000/svg">
    <g clip-path="url(#clip0)">
        <path d="M122 350C121.2 354.4 120 355.833 119.5 356L166.5 363.5C166.5 363.5 178.833 348 181 342.5C214.055 298.949 287.368 251.739 318 236.5C298.4 228.1 268.167 230 255.5 232C253.9 232.8 252.082 251.892 251 256.5C249.918 261.108 238.998 247.189 237.5 238.5C227.5 238.5 198.5 256 188.5 263.5C180.5 269.5 185.167 285 188.5 292C175.5 295 173.5 281.5 168.5 282.5C164.5 283.3 159.833 289.167 158 292C160.5 292.5 166.1 294.5 168.5 298.5C171.5 303.5 157 333 155 333.5L130 352.5L122 350Z" fill="#069681"/>
        <path d="M80.5 128C70.5 146.667 41.4 185.4 5 191C4.2 194.2 1.66667 213.682 0.5 223.023L0.5 222.5V187C1.3 190.6 2.16667 191.5 2.5 191.5C7.16667 172.167 17.3 131.5 20.5 123.5C14.3333 117.333 1.6 103.2 0 96V45.5C10.2303 52.4983 27.3121 79.9565 20.5 123.5C25.3229 111 35.3217 85.8 36.7343 85C31.1328 38.9393 63.4127 9.20084 80.5 0C73.0658 50.9775 52.4784 76.3982 40.2859 85C37.7146 87.0071 29.3572 108.445 25.5 118.914H27.5C39.9371 106.798 66.4087 88.2923 91 96C88.1667 106.333 70.9 126 24.5 122C20.9 128.8 10.512 169.833 5.76794 189.5C12.1478 177.77 34.5773 151.344 80.5 128Z" fill="#003856"/>
        <path d="M88 201.5C44 207.1 11.3333 260.167 0.5 286V295.5C56.5 259.5 82.1667 217.833 88 201.5Z" fill="#003856"/>
        <path d="M46 327H10.5C11.7 303 22.5 273.667 28 262C30.5929 256.5 34.1667 255.5 36 256C51.2 262.8 61.8333 259.833 65.5 257.5C51.1 253.5 47.5 237.167 47.5 229.5C64.3 201.9 89.8333 182.667 100.5 176.5C108.9 188.5 122 191.5 127.5 191.5C123.9 183.9 121.667 168.333 121 161.5C151 144.7 190.167 139.167 206 138.5C115.2 216.9 75.5 320.167 67 362L39 360.5L46 327Z" fill="#069681"/>
        <path d="M193.5 202.5C195.1 201.7 202.5 159.5 206 138.5C137.2 192.5 77.1667 291.5 61.5 336L131 355.5C140.504 345.996 153.732 338.648 158.362 336.077L158.5 336C162.833 326 170.5 302.8 170.5 302C170.5 301 169.5 299.5 168.5 298C167.5 296.5 168 296.5 158.5 291C150.9 286.6 141.333 274.167 138 268.5C142.4 274.9 166.5 274.167 178 273C181.6 266.2 186.833 236.167 189 222C181 219.5 161 194 165.5 198C170 202 191.5 203.5 193.5 202.5Z" fill="#00CAC8"/>
        <path d="M241 380.5C246.333 360 259.4 314.6 269 303C266.667 324.667 262.5 369.3 264.5 374.5L272.5 376.42C272.5 373.956 282.167 361.113 287 355C284 344 283.5 316.5 305.5 294.5C306.833 299.667 298 341 292.5 347C292 348 289.6 350.3 290 351.5C295.914 344.833 311.4 329.1 325 317.5C325 316.5 325 279.5 347 267C346.529 273.122 339.493 294.06 327.313 313.853L326 316.5C326.586 316.155 329.955 313.479 330.5 313C331.172 312.41 352 299 362.5 292.5C362.5 291.5 359 265 379.5 256C380.625 260.017 378.545 272.777 363 290.5C362.532 291.757 363.045 291.526 364 291.5L382 283C386.333 275.833 401.5 262.1 427.5 264.5C419.495 272.015 399.607 286.032 383 283.192L364.5 292C372.333 291.667 390.5 295.7 396.5 306.5C388.302 313.208 373.391 301.052 366 293.564C365.525 293.115 364.367 292.296 363.537 292.609C351.945 299.947 330.722 313.5 331.5 313.5C337.201 310.77 354.909 309.372 379.5 316.5C371 319.333 349.8 323.1 333 315.5L331 314.5H330C318.667 324.5 295.1 346.1 291.5 352.5C304.667 346.5 336.6 337 359 347C353.117 351.739 332.581 359.087 291 354.5L290 353.665C288 355.802 278.167 369.885 273.5 376.66L289.5 380.5C303 377.167 331.4 371.9 337 377.5L335 380.5H289.5H241Z" fill="#BEE498"/>
        <path d="M295.727 281.142C297.067 280.868 310.889 251.153 317.633 236.33C256.11 262.608 164.885 336.223 144.5 366L219.114 379.397C228.108 374.205 237.996 370.995 241.815 370.038C246.997 363.508 257.399 350.299 257.557 349.708C257.755 348.969 258.052 347.861 257.611 346.554C257.169 345.248 257.538 345.347 251.608 339.403C246.864 334.647 242.996 323.765 241.655 318.918C243.639 324.518 261.59 328.747 270.318 330.162C274.324 325.851 284.136 304.697 288.542 294.659C283.126 291.228 273.397 268.428 275.93 272.274C278.463 276.12 294.051 281.485 295.727 281.142Z" fill="#00CAC8"/>
        <path d="M15 337C11 337.4 3.33333 325.5 0 319.5V381H288C292 378.2 290.333 372.833 289 370.5C281 361.3 264.667 366.667 257.5 370.5C255.333 365.333 249.2 354.9 242 354.5C234.4 353.3 230.167 364.667 229 370.5C214.2 351.3 181.167 357.833 166.5 363.5C154.9 335.9 130.333 347 119.5 356C106 333 98.5 331 89.5 330.5C80.5 330 71.5 339 66 347.5C61.6 354.3 57.1667 350.333 55.5 347.5C50.5 333.5 46 326 37 323.5C28 321 20 336.5 15 337Z" fill="url(#paint0_linear)"/>
    </g>
    <defs>
        <linearGradient id="paint0_linear" x1="145.254" y1="319.5" x2="145.254" y2="381" gradientUnits="userSpaceOnUse">
            <stop stop-color="#005F51"/>
            <stop offset="1" stop-color="#069681"/>
        </linearGradient>
        <clipPath id="clip0">
            <rect width="428" height="381" fill="white"/>
        </clipPath>
    </defs>
</svg>
