<svg width="896" height="900" viewBox="0 0 896 900" fill="none" xmlns="http://www.w3.org/2000/svg">
    <path fill-rule="evenodd" clip-rule="evenodd" d="M456.232 228.5C456.232 233.194 452.426 237 447.732 237C443.037 237 439.232 233.194 439.232 228.5C439.232 223.806 443.037 220 447.732 220C452.426 220 456.232 223.806 456.232 228.5ZM464.815 235.613C462.028 242.3 455.429 247 447.732 247C440.063 247 433.485 242.334 430.68 235.687C425.745 236.075 420.855 236.624 416.016 237.331C414.654 246.205 406.986 253 397.732 253C391.392 253 385.798 249.812 382.464 244.951C377.261 246.571 372.14 248.377 367.11 250.364C367.19 251.065 367.232 251.777 367.232 252.5C367.232 262.717 358.949 271 348.732 271C343.688 271 339.116 268.982 335.779 265.709C329.43 269.469 323.286 273.537 317.367 277.894C316.219 274.28 313.991 271.147 311.063 268.875C317.331 264.272 323.839 259.977 330.564 256.011C330.346 254.874 330.232 253.701 330.232 252.5C330.232 242.283 338.514 234 348.732 234C354.275 234 359.248 236.438 362.639 240.3C368.072 238.142 373.606 236.183 379.232 234.433C379.268 224.247 387.537 216 397.732 216C405.064 216 411.4 220.265 414.393 226.45C419.417 225.716 424.492 225.143 429.615 224.736C431.354 216.324 438.804 210 447.732 210C456.666 210 464.121 216.334 465.853 224.756L465.851 224.748C465.845 224.718 465.839 224.688 465.832 224.658C471.3 225.068 476.715 225.667 482.07 226.45C485.064 220.265 491.4 216 498.732 216C508.949 216 517.232 224.283 517.232 234.5V234.433C522.857 236.184 528.391 238.142 533.825 240.3C537.215 236.438 542.189 234 547.732 234C557.949 234 566.232 242.283 566.232 252.5C566.232 253.701 566.117 254.874 565.899 256.011C572.444 259.87 578.783 264.042 584.895 268.504C587.941 266.3 591.684 265 595.732 265C605.949 265 614.232 273.283 614.232 283.5C614.232 286.522 613.507 289.374 612.223 291.893C640.588 320.239 661.649 355.892 672.341 395.787C675.211 395.914 678.093 396.714 680.753 398.25C689.601 403.359 692.633 414.673 687.524 423.521C685.472 427.077 682.418 429.693 678.924 431.219C679.748 438.984 680.19 446.864 680.229 454.838C681.207 455.198 682.167 455.647 683.1 456.185C691.948 461.294 694.98 472.608 689.871 481.457C687.146 486.177 682.655 489.242 677.714 490.299C676.84 496.196 675.744 502.021 674.435 507.765L674.412 507.752L674.337 507.707L674.275 507.671L674.188 507.62C674.188 507.62 674.188 507.621 674.188 507.62C683.037 512.729 686.068 524.044 680.96 532.892C677.32 539.196 670.531 542.547 663.727 542.106C661.815 546.887 659.749 551.59 657.534 556.208C663.883 561.929 665.601 571.494 661.156 579.193C656.699 586.913 647.518 590.205 639.372 587.527C636.288 592.001 633.051 596.361 629.668 600.6C629.225 599.957 628.739 599.339 628.211 598.751C633.414 604.547 634.565 613.25 630.46 620.361C625.351 629.209 614.037 632.241 605.188 627.132C605.125 627.096 605.062 627.059 605 627.022C600.73 630.937 596.314 634.695 591.759 638.286C590.987 636.136 589.817 634.121 588.28 632.364C593.348 638.159 594.435 646.758 590.371 653.796C585.263 662.644 573.948 665.676 565.1 660.567C563.946 659.901 562.891 659.129 561.94 658.271C555.436 661.935 548.737 665.295 541.863 668.331C541.402 664.65 539.842 661.136 537.322 658.308C543.834 655.436 550.181 652.259 556.344 648.795C555.298 644.367 555.874 639.547 558.328 635.296C563.437 626.447 574.751 623.416 583.6 628.524C584.13 628.83 584.639 629.158 585.127 629.507C589.428 626.109 593.6 622.554 597.634 618.851C595.213 613.584 595.298 607.263 598.417 601.861C603.022 593.884 612.67 590.634 621.009 593.814C624.288 589.709 627.423 585.484 630.408 581.148C626.033 575.393 625.272 567.346 629.113 560.693C632.966 554.019 640.35 550.654 647.543 551.596C649.658 547.194 651.632 542.71 653.458 538.152C646.363 532.553 644.264 522.45 648.917 514.392C652.126 508.834 657.783 505.571 663.74 505.179C664.928 499.95 665.931 494.651 666.741 489.289C666.015 488.985 665.3 488.632 664.6 488.228C655.751 483.12 652.72 471.805 657.828 462.957C660.413 458.48 664.586 455.492 669.225 454.294C669.17 446.918 668.752 439.628 667.991 432.44C666.024 432.06 664.085 431.351 662.253 430.293C653.405 425.184 650.373 413.87 655.482 405.021C657.052 402.302 659.208 400.132 661.699 398.579C651.52 360.646 631.5 326.741 604.544 299.771C601.924 301.192 598.922 302 595.732 302C585.514 302 577.232 293.717 577.232 283.5C577.232 281.327 577.606 279.242 578.294 277.306C572.623 273.171 566.747 269.299 560.685 265.709C557.347 268.982 552.775 271 547.732 271C537.514 271 529.232 262.717 529.232 252.5C529.232 251.777 529.273 251.065 529.354 250.364C524.323 248.377 519.203 246.571 513.999 244.951C510.666 249.812 505.071 253 498.732 253C489.477 253 481.81 246.205 480.447 237.331C475.292 236.578 470.079 236.003 464.815 235.613ZM498.732 243C503.426 243 507.232 239.194 507.232 234.5C507.232 229.806 503.426 226 498.732 226C494.037 226 490.232 229.806 490.232 234.5C490.232 239.194 494.037 243 498.732 243ZM234.675 398.916C244.782 361.006 264.715 327.107 291.58 300.112C294.039 301.321 296.806 302 299.732 302C309.949 302 318.232 293.717 318.232 283.5C318.232 273.283 309.949 265 299.732 265C289.514 265 281.232 273.283 281.232 283.5C281.232 286.786 282.088 289.871 283.59 292.546C255.558 320.781 234.738 356.187 224.127 395.77C221.055 395.804 217.95 396.605 215.1 398.25C206.252 403.359 203.22 414.673 208.328 423.521C210.495 427.274 213.777 429.98 217.514 431.463C216.748 438.747 216.32 446.131 216.244 453.6C214.879 454.005 213.54 454.576 212.253 455.319C203.405 460.428 200.373 471.742 205.482 480.591C208.392 485.631 213.315 488.784 218.65 489.62C219.474 495.296 220.503 500.905 221.73 506.441C221.541 506.542 221.352 506.646 221.165 506.754C212.316 511.863 209.284 523.177 214.393 532.026C218.165 538.559 225.319 541.921 232.367 541.177C234.33 546.149 236.46 551.036 238.75 555.832C232.049 561.502 230.153 571.323 234.697 579.193C239.244 587.069 248.709 590.337 256.974 587.357C259.816 591.487 262.788 595.52 265.885 599.45C261.78 605.173 261.143 612.998 264.893 619.494C270.002 628.343 281.316 631.375 290.164 626.266C290.263 626.209 290.361 626.152 290.457 626.093C294.694 630.025 299.077 633.799 303.598 637.409C301.819 642.355 302.148 648.021 304.982 652.93C310.09 661.778 321.405 664.81 330.253 659.701C331.342 659.072 332.343 658.35 333.252 657.549C339.972 661.391 346.904 664.907 354.024 668.075C353.476 672.013 354.187 676.155 356.328 679.865C361.437 688.713 372.751 691.745 381.6 686.636C384.414 685.012 386.64 682.76 388.202 680.159C407.35 685.273 427.472 688 448.232 688C468.801 688 488.746 685.323 507.736 680.298C509.294 682.84 511.49 685.041 514.253 686.636C523.101 691.745 534.416 688.713 539.524 679.865C544.633 671.017 541.601 659.702 532.753 654.594C523.905 649.485 512.59 652.517 507.482 661.365C505.971 663.981 505.173 666.812 505.025 669.634C486.902 674.44 467.866 677 448.232 677C428.373 677 409.127 674.381 390.819 669.469C390.649 666.701 389.852 663.93 388.371 661.365C383.263 652.517 371.948 649.485 363.1 654.594C361.42 655.563 359.95 656.757 358.705 658.115C351.937 655.113 345.348 651.78 338.958 648.138C340.072 643.653 339.518 638.748 337.025 634.43C331.916 625.581 320.601 622.55 311.753 627.658C311.227 627.962 310.722 628.288 310.238 628.633C305.948 625.2 301.79 621.61 297.77 617.873C300.138 612.628 300.033 606.358 296.936 600.994C292.391 593.122 282.933 589.854 274.671 592.827C271.568 588.897 268.596 584.859 265.762 580.719C269.855 574.998 270.486 567.182 266.74 560.693C262.99 554.198 255.896 550.837 248.888 551.529C246.578 546.717 244.437 541.808 242.473 536.811C249.101 531.129 250.96 521.361 246.436 513.526C243.395 508.259 238.156 505.053 232.547 504.398C231.343 499.006 230.335 493.541 229.533 488.008C229.944 487.81 230.351 487.594 230.753 487.362C239.601 482.254 242.633 470.939 237.525 462.091C235.149 457.976 231.431 455.119 227.243 453.753C227.315 446.516 227.735 439.363 228.487 432.308C230.239 431.906 231.962 431.239 233.6 430.293C242.448 425.184 245.48 413.87 240.371 405.021C238.912 402.493 236.945 400.44 234.675 398.916ZM595.732 292C600.426 292 604.232 288.194 604.232 283.5C604.232 278.806 600.426 275 595.732 275C591.037 275 587.232 278.806 587.232 283.5C587.232 288.194 591.037 292 595.732 292ZM556.232 252.5C556.232 257.194 552.426 261 547.732 261C543.037 261 539.232 257.194 539.232 252.5C539.232 247.806 543.037 244 547.732 244C552.426 244 556.232 247.806 556.232 252.5ZM397.732 243C402.426 243 406.232 239.194 406.232 234.5C406.232 229.806 402.426 226 397.732 226C393.037 226 389.232 229.806 389.232 234.5C389.232 239.194 393.037 243 397.732 243ZM357.232 252.5C357.232 257.194 353.426 261 348.732 261C344.037 261 340.232 257.194 340.232 252.5C340.232 247.806 344.037 244 348.732 244C353.426 244 357.232 247.806 357.232 252.5ZM299.732 292C304.426 292 308.232 288.194 308.232 283.5C308.232 278.806 304.426 275 299.732 275C295.037 275 291.232 278.806 291.232 283.5C291.232 288.194 295.037 292 299.732 292ZM220.1 406.91C224.165 404.563 229.364 405.956 231.711 410.021C234.058 414.087 232.665 419.286 228.6 421.633C224.534 423.98 219.336 422.587 216.989 418.521C214.642 414.456 216.034 409.257 220.1 406.91ZM228.864 467.091C226.517 463.025 221.319 461.632 217.253 463.979C213.188 466.327 211.795 471.525 214.142 475.591C216.489 479.656 221.688 481.049 225.753 478.702C229.819 476.355 231.212 471.156 228.864 467.091ZM226.165 515.415C230.23 513.067 235.429 514.46 237.776 518.526C240.123 522.591 238.73 527.79 234.665 530.137C230.599 532.484 225.401 531.091 223.053 527.026C220.706 522.96 222.099 517.762 226.165 515.415ZM258.08 565.693C255.732 561.628 250.534 560.235 246.468 562.582C242.403 564.929 241.01 570.128 243.357 574.193C245.704 578.259 250.903 579.652 254.968 577.304C259.034 574.957 260.427 569.759 258.08 565.693ZM276.665 602.883C280.73 600.536 285.929 601.929 288.276 605.994C290.623 610.06 289.23 615.258 285.164 617.606C281.099 619.953 275.9 618.56 273.553 614.494C271.206 610.429 272.599 605.23 276.665 602.883ZM316.753 636.319C320.819 633.971 326.017 635.364 328.364 639.43C330.711 643.495 329.319 648.694 325.253 651.041C321.188 653.388 315.989 651.995 313.642 647.93C311.295 643.864 312.688 638.666 316.753 636.319ZM368.1 663.254C372.165 660.907 377.364 662.3 379.711 666.365C382.058 670.43 380.665 675.629 376.6 677.976C372.534 680.323 367.336 678.93 364.989 674.865C362.641 670.8 364.034 665.601 368.1 663.254ZM667.253 421.633C663.188 419.285 661.795 414.087 664.142 410.021C666.489 405.956 671.688 404.563 675.753 406.91C679.818 409.257 681.211 414.456 678.864 418.521C676.517 422.587 671.318 423.98 667.253 421.633ZM669.6 479.568C665.534 477.221 664.141 472.022 666.489 467.957C668.836 463.891 674.034 462.498 678.1 464.845C682.165 467.193 683.558 472.391 681.211 476.457C678.864 480.522 673.665 481.915 669.6 479.568ZM657.577 519.392C655.23 523.457 656.623 528.656 660.688 531.003C664.754 533.35 669.952 531.957 672.299 527.892C674.647 523.826 673.254 518.628 669.188 516.281C665.123 513.934 659.924 515.326 657.577 519.392ZM640.884 577.304C636.819 574.957 635.426 569.759 637.773 565.693C640.12 561.628 645.319 560.235 649.384 562.582C653.45 564.929 654.843 570.128 652.496 574.193C650.148 578.259 644.95 579.652 640.884 577.304ZM607.077 606.861C604.73 610.926 606.123 616.125 610.188 618.472C614.254 620.819 619.452 619.426 621.799 615.361C624.147 611.295 622.754 606.097 618.688 603.749C614.623 601.402 609.424 602.795 607.077 606.861ZM570.1 651.907C566.034 649.56 564.641 644.361 566.989 640.296C569.336 636.23 574.534 634.837 578.6 637.185C582.665 639.532 584.058 644.73 581.711 648.796C579.364 652.861 574.165 654.254 570.1 651.907ZM516.142 666.365C513.795 670.43 515.188 675.629 519.253 677.976C523.318 680.323 528.517 678.93 530.864 674.865C533.211 670.799 531.818 665.601 527.753 663.254C523.688 660.907 518.489 662.299 516.142 666.365Z" fill="url(#paint0_linear)"/>
    <defs>
        <linearGradient id="paint0_linear" x1="692" y1="450" x2="203" y2="450" gradientUnits="userSpaceOnUse">
            <stop stop-color="#55CE6F"/>
            <stop offset="1" stop-color="#80ED9C"/>
        </linearGradient>
    </defs>
</svg>
