<svg width="1538" height="528" viewBox="0 0 1538 528" fill="none" xmlns="http://www.w3.org/2000/svg">
    <path d="M646.468 210.295V240.011H714.39V380.469H646.468V410H813.688V380.469H748.535V210.295H646.468ZM709.96 157.877C709.96 163.414 711.621 168.028 714.943 171.72C718.389 175.411 723.557 177.257 730.447 177.257C737.215 177.257 742.321 175.411 745.767 171.72C749.212 168.028 750.935 163.414 750.935 157.877C750.935 154.801 750.442 151.971 749.458 149.387C748.474 146.803 746.997 144.649 745.028 142.927C743.429 141.327 741.398 140.097 738.938 139.235C736.477 138.251 733.646 137.759 730.447 137.759C727.248 137.759 724.356 138.251 721.772 139.235C719.312 140.097 717.281 141.327 715.682 142.927C713.713 144.772 712.236 146.987 711.252 149.571C710.391 152.155 709.96 154.924 709.96 157.877ZM868.048 410H902.378V236.688H979.344V210.295H902.378V196.268C902.378 187.9 903.424 180.579 905.516 174.304C907.731 168.028 910.93 162.922 915.114 158.984C919.051 155.17 923.973 152.34 929.879 150.494C935.908 148.525 942.799 147.541 950.551 147.541C958.18 147.541 965.317 148.218 971.961 149.571C978.729 150.802 984.635 152.278 989.68 154.001L993.741 125.762C990.541 124.9 987.404 124.162 984.327 123.547C981.251 122.809 978.175 122.132 975.099 121.517C970.423 120.655 965.686 119.979 960.887 119.486C956.088 118.871 951.228 118.563 946.306 118.563C934.493 118.563 923.788 120.225 914.191 123.547C904.593 126.869 896.41 131.791 889.643 138.312C882.752 144.834 877.4 152.955 873.585 162.676C869.894 172.273 868.048 183.471 868.048 196.268V210.295H813.046V236.688H868.048V410ZM1061.26 412.148C1072.58 412.148 1082.07 409.893 1089.73 405.381C1097.46 400.798 1103.26 395.57 1107.13 389.697L1094.99 380.244C1091.34 384.971 1086.76 388.766 1081.24 391.631C1075.73 394.495 1069.43 395.928 1062.34 395.928C1056.97 395.928 1052.06 394.925 1047.62 392.92C1043.18 390.915 1039.38 388.158 1036.23 384.648C1033.15 381.354 1030.72 377.559 1028.93 373.262C1027.21 368.965 1026.1 363.988 1025.6 358.33V357.578H1108.64V348.662C1108.64 340.57 1107.6 333.05 1105.52 326.104C1103.51 319.157 1100.44 313.105 1096.28 307.949C1092.13 302.865 1086.9 298.89 1080.6 296.025C1074.37 293.089 1067.06 291.621 1058.68 291.621C1052.02 291.621 1045.51 292.982 1039.13 295.703C1032.83 298.424 1027.21 302.327 1022.27 307.412C1017.25 312.568 1013.24 318.87 1010.24 326.318C1007.23 333.695 1005.72 342.074 1005.72 351.455V355.967C1005.72 364.059 1007.09 371.543 1009.81 378.418C1012.53 385.293 1016.32 391.237 1021.19 396.25C1026.06 401.263 1031.9 405.166 1038.7 407.959C1045.58 410.752 1053.1 412.148 1061.26 412.148ZM1058.68 307.949C1063.77 307.949 1068.14 308.88 1071.79 310.742C1075.51 312.604 1078.59 315.039 1081.03 318.047C1083.46 321.055 1085.36 324.635 1086.72 328.789C1088.08 332.871 1088.76 336.702 1088.76 340.283V341.25H1026.24C1027.03 335.879 1028.39 331.152 1030.32 327.07C1032.33 322.917 1034.76 319.408 1037.63 316.543C1040.49 313.75 1043.72 311.637 1047.3 310.205C1050.88 308.701 1054.67 307.949 1058.68 307.949ZM1153.96 245V262.295H1193.49V392.812H1153.96V410H1251.28V392.812H1213.36V245H1153.96ZM1369.01 379.17C1369.01 381.032 1368.65 382.786 1367.93 384.434C1367.22 386.081 1366.18 387.585 1364.82 388.945C1362.6 391.165 1359.52 392.92 1355.58 394.209C1351.64 395.426 1347.02 396.035 1341.72 396.035C1338.36 396.035 1334.96 395.677 1331.52 394.961C1328.08 394.245 1324.97 393.027 1322.17 391.309C1319.31 389.59 1316.91 387.334 1314.98 384.541C1313.11 381.748 1312.04 378.311 1311.75 374.229H1291.88C1291.88 379.17 1292.99 383.932 1295.21 388.516C1297.5 393.099 1300.8 397.109 1305.09 400.547C1309.32 404.056 1314.51 406.885 1320.67 409.033C1326.83 411.11 1333.85 412.148 1341.72 412.148C1348.6 412.148 1354.94 411.325 1360.74 409.678C1366.54 408.031 1371.52 405.703 1375.67 402.695C1379.82 399.688 1383.05 396.071 1385.34 391.846C1387.7 387.62 1388.88 382.93 1388.88 377.773C1388.88 372.975 1387.84 368.75 1385.77 365.098C1383.76 361.445 1380.82 358.223 1376.96 355.43C1373.09 352.708 1368.33 350.381 1362.67 348.447C1357.01 346.442 1350.6 344.688 1343.44 343.184C1338 342.109 1333.49 340.999 1329.91 339.854C1326.4 338.708 1323.6 337.419 1321.53 335.986C1319.38 334.554 1317.88 332.943 1317.02 331.152C1316.16 329.362 1315.73 327.321 1315.73 325.029C1315.73 322.809 1316.26 320.661 1317.34 318.584C1318.41 316.507 1320.02 314.681 1322.17 313.105C1324.25 311.53 1326.86 310.277 1330.01 309.346C1333.24 308.415 1336.96 307.949 1341.19 307.949C1345.27 307.949 1348.92 308.522 1352.14 309.668C1355.44 310.814 1358.23 312.318 1360.52 314.18C1362.81 316.042 1364.6 318.19 1365.89 320.625C1367.18 322.988 1367.83 325.423 1367.83 327.93H1387.7C1387.7 322.845 1386.59 318.118 1384.37 313.75C1382.22 309.31 1379.14 305.443 1375.13 302.148C1371.12 298.854 1366.25 296.276 1360.52 294.414C1354.79 292.552 1348.35 291.621 1341.19 291.621C1334.53 291.621 1328.4 292.516 1322.82 294.307C1317.3 296.097 1312.54 298.532 1308.53 301.611C1304.52 304.691 1301.4 308.307 1299.18 312.461C1296.96 316.543 1295.85 320.947 1295.85 325.674C1295.85 330.472 1296.93 334.697 1299.08 338.35C1301.23 341.93 1304.27 345.046 1308.21 347.695C1312.07 350.417 1316.73 352.744 1322.17 354.678C1327.69 356.611 1333.77 358.258 1340.43 359.619C1345.88 360.693 1350.42 361.911 1354.08 363.271C1357.73 364.561 1360.67 365.993 1362.89 367.568C1365.11 369.144 1366.68 370.898 1367.61 372.832C1368.54 374.694 1369.01 376.807 1369.01 379.17ZM1484.05 412.148C1495.36 412.148 1504.85 409.893 1512.52 405.381C1520.25 400.798 1526.05 395.57 1529.92 389.697L1517.78 380.244C1514.13 384.971 1509.54 388.766 1504.03 391.631C1498.51 394.495 1492.21 395.928 1485.12 395.928C1479.75 395.928 1474.85 394.925 1470.41 392.92C1465.97 390.915 1462.17 388.158 1459.02 384.648C1455.94 381.354 1453.51 377.559 1451.71 373.262C1450 368.965 1448.89 363.988 1448.38 358.33V357.578H1531.42V348.662C1531.42 340.57 1530.38 333.05 1528.31 326.104C1526.3 319.157 1523.22 313.105 1519.07 307.949C1514.91 302.865 1509.69 298.89 1503.38 296.025C1497.15 293.089 1489.85 291.621 1481.47 291.621C1474.81 291.621 1468.29 292.982 1461.92 295.703C1455.62 298.424 1450 302.327 1445.05 307.412C1440.04 312.568 1436.03 318.87 1433.02 326.318C1430.02 333.695 1428.51 342.074 1428.51 351.455V355.967C1428.51 364.059 1429.87 371.543 1432.59 378.418C1435.32 385.293 1439.11 391.237 1443.98 396.25C1448.85 401.263 1454.69 405.166 1461.49 407.959C1468.37 410.752 1475.88 412.148 1484.05 412.148ZM1481.47 307.949C1486.56 307.949 1490.92 308.88 1494.58 310.742C1498.3 312.604 1501.38 315.039 1503.81 318.047C1506.25 321.055 1508.15 324.635 1509.51 328.789C1510.87 332.871 1511.55 336.702 1511.55 340.283V341.25H1449.03C1449.82 335.879 1451.18 331.152 1453.11 327.07C1455.12 322.917 1457.55 319.408 1460.42 316.543C1463.28 313.75 1466.5 311.637 1470.08 310.205C1473.66 308.701 1477.46 307.949 1481.47 307.949Z" fill="white"/>
    <path d="M1324.52 215V206.152H1281.69L1304.6 181.309C1306.75 178.965 1308.78 176.621 1310.69 174.277C1312.64 171.895 1314.36 169.492 1315.85 167.07C1317.29 164.648 1318.45 162.207 1319.3 159.746C1320.16 157.246 1320.59 154.727 1320.59 152.188C1320.59 148.789 1319.99 145.645 1318.78 142.754C1317.61 139.863 1315.91 137.363 1313.68 135.254C1311.45 133.145 1308.72 131.504 1305.48 130.332C1302.27 129.121 1298.66 128.516 1294.64 128.516C1290.26 128.516 1286.36 129.219 1282.92 130.625C1279.52 132.031 1276.65 133.926 1274.3 136.309C1271.92 138.691 1270.11 141.484 1268.86 144.688C1267.61 147.852 1266.98 151.23 1266.98 154.824H1277.88C1277.88 152.168 1278.21 149.766 1278.88 147.617C1279.58 145.469 1280.63 143.633 1282.04 142.109C1283.41 140.625 1285.12 139.473 1287.2 138.652C1289.3 137.832 1291.79 137.422 1294.64 137.422C1296.98 137.422 1299.07 137.832 1300.91 138.652C1302.78 139.434 1304.38 140.508 1305.71 141.875C1307 143.242 1307.98 144.863 1308.64 146.738C1309.34 148.574 1309.7 150.547 1309.7 152.656C1309.7 154.375 1309.48 156.055 1309.05 157.695C1308.62 159.297 1307.9 160.996 1306.88 162.793C1305.87 164.629 1304.52 166.621 1302.84 168.77C1301.16 170.918 1299.07 173.379 1296.57 176.152L1268.62 207.207V215H1324.52ZM1402.62 182.363V162.383C1402.62 156.953 1402 152.148 1400.75 147.969C1399.5 143.75 1397.7 140.195 1395.35 137.305C1392.97 134.414 1390.06 132.227 1386.62 130.742C1383.23 129.219 1379.34 128.457 1374.96 128.457C1370.63 128.457 1366.74 129.219 1363.3 130.742C1359.91 132.227 1357.03 134.414 1354.69 137.305C1352.31 140.195 1350.49 143.75 1349.24 147.969C1347.99 152.148 1347.37 156.953 1347.37 162.383V182.363C1347.37 187.793 1347.99 192.617 1349.24 196.836C1350.49 201.016 1352.31 204.531 1354.69 207.383C1357.07 210.312 1359.98 212.52 1363.42 214.004C1366.86 215.449 1370.75 216.172 1375.08 216.172C1379.46 216.172 1383.34 215.43 1386.74 213.945C1390.14 212.461 1393.01 210.273 1395.35 207.383C1397.7 204.531 1399.5 201.016 1400.75 196.836C1402 192.617 1402.62 187.793 1402.62 182.363ZM1358.26 180.195C1358.26 179.18 1358.26 178.184 1358.26 177.207C1358.26 176.23 1358.26 175.254 1358.26 174.277V159.98C1358.26 155.996 1358.66 152.5 1359.44 149.492C1360.26 146.445 1361.49 143.965 1363.13 142.051C1364.5 140.527 1366.16 139.375 1368.11 138.594C1370.1 137.773 1372.39 137.363 1374.96 137.363C1377.5 137.363 1379.73 137.734 1381.64 138.477C1383.6 139.219 1385.24 140.332 1386.57 141.816C1387.93 143.262 1389.01 145.078 1389.79 147.266C1390.61 149.414 1391.18 151.895 1391.49 154.707L1358.26 180.195ZM1391.72 184.648C1391.72 188.828 1391.29 192.461 1390.43 195.547C1389.61 198.633 1388.3 201.133 1386.51 203.047C1385.18 204.453 1383.56 205.527 1381.64 206.27C1379.73 207.012 1377.54 207.383 1375.08 207.383C1372.74 207.383 1370.63 207.051 1368.75 206.387C1366.88 205.684 1365.28 204.668 1363.95 203.34C1362.5 201.934 1361.33 200.156 1360.43 198.008C1359.53 195.82 1358.91 193.301 1358.56 190.449L1391.72 165.078C1391.72 166.172 1391.72 167.559 1391.72 169.238C1391.72 170.879 1391.72 171.992 1391.72 172.578V184.648ZM1478.26 215V206.152H1435.43L1458.34 181.309C1460.49 178.965 1462.52 176.621 1464.43 174.277C1466.39 171.895 1468.1 169.492 1469.59 167.07C1471.03 164.648 1472.19 162.207 1473.05 159.746C1473.9 157.246 1474.33 154.727 1474.33 152.188C1474.33 148.789 1473.73 145.645 1472.52 142.754C1471.35 139.863 1469.65 137.363 1467.42 135.254C1465.19 133.145 1462.46 131.504 1459.22 130.332C1456.01 129.121 1452.4 128.516 1448.38 128.516C1444 128.516 1440.1 129.219 1436.66 130.625C1433.26 132.031 1430.39 133.926 1428.05 136.309C1425.66 138.691 1423.85 141.484 1422.6 144.688C1421.35 147.852 1420.72 151.23 1420.72 154.824H1431.62C1431.62 152.168 1431.95 149.766 1432.62 147.617C1433.32 145.469 1434.37 143.633 1435.78 142.109C1437.15 140.625 1438.87 139.473 1440.94 138.652C1443.05 137.832 1445.53 137.422 1448.38 137.422C1450.72 137.422 1452.81 137.832 1454.65 138.652C1456.52 139.434 1458.12 140.508 1459.45 141.875C1460.74 143.242 1461.72 144.863 1462.38 146.738C1463.08 148.574 1463.44 150.547 1463.44 152.656C1463.44 154.375 1463.22 156.055 1462.79 157.695C1462.36 159.297 1461.64 160.996 1460.62 162.793C1459.61 164.629 1458.26 166.621 1456.58 168.77C1454.9 170.918 1452.81 173.379 1450.31 176.152L1422.36 207.207V215H1478.26ZM1537.96 215V129.688H1537.08L1504.8 142.109V152.012L1527.12 143.516V215H1537.96Z" fill="white"/>
    <path d="M308.117 417.353C302.562 430.91 299.353 438.711 292.291 455.454C309.876 453.695 354.307 441.855 391.353 408.56L421.541 422.921L407.18 392.548C441.041 354.014 452.277 310.426 454.073 294.257L525 263.776L423.006 263.776C419.36 363.891 344.772 407.875 308.117 417.353Z" fill="url(#paint0_linear)"/>
    <path d="M315.963 471.659L320.452 470.456L316.746 456.622L312.256 457.825L315.963 471.659Z" fill="#004665"/>
    <path d="M367.748 451.111L372.165 448.561L364.972 436.103L360.555 438.653L367.748 451.111Z" fill="#004665"/>
    <path d="M447.349 373.006L449.824 368.719L437.334 361.508L434.859 365.795L447.349 373.006Z" fill="#004665"/>
    <path d="M469.226 321.661L470.52 316.778L456.865 313.161L455.572 318.044L469.226 321.661Z" fill="#004665"/>
    <path d="M108.82 310.67C95.2624 305.114 87.4618 301.905 70.7187 294.843C72.4772 312.428 84.3179 356.86 117.612 393.906L103.251 424.094L133.625 409.732C172.159 443.594 215.746 454.829 231.915 456.626L262.396 527.552L262.396 425.559C162.282 421.912 118.298 347.324 108.82 310.67Z" fill="url(#paint1_linear)"/>
    <path d="M54.5137 318.515L55.7166 323.005L69.5499 319.298L68.347 314.809L54.5137 318.515Z" fill="#004665"/>
    <path d="M75.0609 370.3L77.6111 374.718L90.069 367.525L87.5188 363.108L75.0609 370.3Z" fill="#004665"/>
    <path d="M153.167 449.901L157.454 452.377L164.665 439.887L160.378 437.412L153.167 449.901Z" fill="#004665"/>
    <path d="M204.512 471.779L209.395 473.072L213.011 459.418L208.129 458.124L204.512 471.779Z" fill="#004665"/>
    <path d="M216.883 110.2C222.438 96.6425 225.647 88.8419 232.709 72.0988C215.124 73.8573 170.693 85.6979 133.647 118.992L103.459 104.631L117.82 135.005C83.9589 173.539 72.7231 217.126 70.9265 233.295L0 263.776H101.993C105.64 163.662 180.228 119.678 216.883 110.2Z" fill="url(#paint2_linear)"/>
    <path d="M209.037 55.8938L204.548 57.0967L208.254 70.9301L212.744 69.7272L209.037 55.8938Z" fill="#004665"/>
    <path d="M157.252 76.4411L152.835 78.9913L160.028 91.4492L164.445 88.899L157.252 76.4411Z" fill="#004665"/>
    <path d="M77.6509 154.547L75.1758 158.834L87.6656 166.045L90.1408 161.758L77.6509 154.547Z" fill="#004665"/>
    <path d="M55.7736 205.892L54.4802 210.775L68.1347 214.391L69.4281 209.509L55.7736 205.892Z" fill="#004665"/>
    <path d="M416.18 216.883C429.738 222.438 437.538 225.647 454.281 232.709C452.523 215.124 440.682 170.693 407.388 133.647L421.749 103.459L391.375 117.82C352.841 83.9589 309.254 72.7231 293.085 70.9265L262.604 -8.37849e-06L262.604 101.993C362.718 105.64 406.702 180.228 416.18 216.883Z" fill="url(#paint3_linear)"/>
    <path d="M470.486 209.037L469.283 204.548L455.45 208.254L456.653 212.744L470.486 209.037Z" fill="#004665"/>
    <path d="M449.939 157.252L447.389 152.835L434.931 160.027L437.481 164.444L449.939 157.252Z" fill="#004665"/>
    <path d="M371.833 77.6511L367.546 75.1759L360.335 87.6657L364.622 90.1409L371.833 77.6511Z" fill="#004665"/>
    <path d="M320.488 55.7737L315.606 54.4804L311.989 68.1349L316.872 69.4282L320.488 55.7737Z" fill="#004665"/>
    <path fill-rule="evenodd" clip-rule="evenodd" d="M357.843 267.879C357.908 266.422 357.942 264.957 357.942 263.483C357.942 261.812 357.899 260.151 357.814 258.501H329.219V246.777H356.491C355.931 243.594 355.214 240.465 354.349 237.399H329.219V225.675H350.195C340.513 203.145 322.441 185.073 299.911 175.391V196.367H288.187V171.237C285.121 170.372 281.992 169.655 278.809 169.096V196.367H267.085V167.772C265.435 167.687 263.774 167.645 262.103 167.645C260.63 167.645 259.164 167.678 257.707 167.744V196.367H245.983V168.994C242.801 169.533 239.672 170.229 236.605 171.074V196.367H224.881V175.141C202.079 184.76 183.776 202.95 174.01 225.675H195.573V237.399H169.857C168.991 240.465 168.275 243.594 167.715 246.777H195.573V258.501H166.391C166.307 260.151 166.264 261.812 166.264 263.483C166.264 264.957 166.297 266.422 166.363 267.879H195.573V279.603H167.614C168.153 282.785 168.849 285.914 169.693 288.982H195.573V300.705H173.761C183.462 323.703 201.883 342.124 224.881 351.826V330.013H236.605V355.893C239.672 356.737 242.801 357.433 245.983 357.972V330.013H257.707V359.223C259.164 359.289 260.63 359.322 262.103 359.322C263.774 359.322 265.435 359.279 267.085 359.195V330.013H278.809V357.871C281.992 357.311 285.121 356.595 288.187 355.729V330.013H299.911V351.576C322.636 341.81 340.826 323.508 350.445 300.705H329.219V288.982H354.512C355.357 285.914 356.053 282.785 356.592 279.603H329.219V267.879H357.843ZM262.103 370.459C321.184 370.459 369.079 322.564 369.079 263.483C369.079 204.402 321.184 156.507 262.103 156.507C203.022 156.507 155.127 204.402 155.127 263.483C155.127 322.564 203.022 370.459 262.103 370.459ZM231.915 232.709H292.877V293.671H231.915V232.709ZM223.709 224.503H301.083V301.877H223.709V224.503ZM203.193 203.987H223.709H301.083H321.599V224.503V301.877V322.393H301.083H223.709H203.193V301.877V224.503V203.987ZM215.209 220.4C217.961 220.4 220.192 218.169 220.192 215.417C220.192 212.666 217.961 210.435 215.209 210.435C212.458 210.435 210.227 212.666 210.227 215.417C210.227 218.169 212.458 220.4 215.209 220.4ZM315.151 310.963C315.151 313.715 312.921 315.945 310.169 315.945C307.417 315.945 305.186 313.715 305.186 310.963C305.186 308.211 307.417 305.981 310.169 305.981C312.921 305.981 315.151 308.211 315.151 310.963Z" fill="url(#paint4_linear)"/>
    <path fill-rule="evenodd" clip-rule="evenodd" d="M266.635 133.939C266.635 136.691 264.405 138.922 261.653 138.922C258.901 138.922 256.67 136.691 256.67 133.939C256.67 131.188 258.901 128.957 261.653 128.957C264.405 128.957 266.635 131.188 266.635 133.939ZM271.667 138.109C270.033 142.028 266.164 144.783 261.653 144.783C257.158 144.783 253.302 142.049 251.657 138.152C248.765 138.379 245.899 138.702 243.062 139.116C243.145 138.575 243.188 138.02 243.188 137.456C243.188 135.765 242.801 134.164 242.111 132.738C245.055 132.307 248.031 131.971 251.033 131.733C252.052 126.802 256.42 123.095 261.653 123.095C267.642 123.095 272.497 127.95 272.497 133.939C272.497 134.252 272.484 134.561 272.458 134.867C272.484 134.561 272.497 134.252 272.497 133.939C272.497 133.167 272.416 132.414 272.263 131.687C275.468 131.927 278.642 132.279 281.781 132.738C283.536 129.112 287.25 126.612 291.547 126.612C297.536 126.612 302.392 131.467 302.392 137.456L302.392 137.456L302.392 137.417C305.689 138.443 308.933 139.591 312.118 140.856L312.118 140.856C314.105 138.592 317.021 137.163 320.27 137.163C326.259 137.163 331.114 142.018 331.114 148.007C331.114 148.711 331.047 149.399 330.919 150.066C334.755 152.328 338.471 154.773 342.054 157.389C343.839 156.096 346.034 155.334 348.406 155.334C354.395 155.334 359.25 160.19 359.25 166.179C359.25 167.95 358.825 169.622 358.072 171.098C374.699 187.713 387.045 208.612 393.312 231.997C391.118 231.9 388.936 232.473 387.074 233.634C381.107 211.399 369.372 191.525 353.571 175.716C352.036 176.549 350.276 177.023 348.406 177.023C342.417 177.023 337.562 172.168 337.562 166.179C337.562 164.905 337.781 163.683 338.185 162.548C334.86 160.124 331.416 157.855 327.862 155.75C325.906 157.669 323.226 158.852 320.27 158.852C314.281 158.852 309.426 153.996 309.426 148.007C309.426 147.584 309.45 147.166 309.497 146.755C306.549 145.591 303.547 144.532 300.497 143.582C298.543 146.431 295.263 148.3 291.547 148.3C286.123 148.3 281.628 144.317 280.83 139.116C277.808 138.675 274.752 138.338 271.667 138.109ZM291.547 142.439C294.299 142.439 296.53 140.208 296.53 137.456C296.53 134.705 294.299 132.474 291.547 132.474C288.796 132.474 286.565 134.705 286.565 137.456C286.565 140.208 288.796 142.439 291.547 142.439ZM232.344 148.3C228.628 148.3 225.349 146.431 223.395 143.582C220.345 144.532 217.343 145.591 214.395 146.755C214.136 144.508 213.191 142.47 211.774 140.856C214.959 139.591 218.203 138.443 221.5 137.417C221.521 131.446 226.368 126.612 232.344 126.612C238.333 126.612 243.188 131.467 243.188 137.456C243.188 143.445 238.333 148.3 232.344 148.3ZM196.03 155.75C192.308 157.954 188.707 160.339 185.237 162.892C184.564 160.774 183.259 158.938 181.542 157.606C185.216 154.908 189.031 152.39 192.973 150.066C192.845 149.399 192.778 148.711 192.778 148.007C192.778 142.018 197.633 137.163 203.622 137.163C209.611 137.163 214.466 142.018 214.466 148.007C214.466 153.996 209.611 158.852 203.622 158.852C200.666 158.852 197.986 157.669 196.03 155.75ZM174.9 177.023C173.185 177.023 171.563 176.625 170.121 175.916C154.374 191.74 142.69 211.61 136.766 233.832C134.938 232.605 132.775 231.963 130.583 231.987C136.803 208.785 149.006 188.032 165.438 171.481C164.558 169.913 164.056 168.105 164.056 166.179C164.056 160.19 168.911 155.334 174.9 155.334C180.889 155.334 185.744 160.19 185.744 166.179C185.744 172.168 180.889 177.023 174.9 177.023ZM126.706 252.91C124.516 252.041 122.592 250.454 121.322 248.255C118.327 243.068 120.105 236.436 125.291 233.442C130.478 230.447 137.11 232.224 140.105 237.411C143.099 242.598 141.322 249.23 136.135 252.224C135.175 252.779 134.165 253.169 133.138 253.405C132.698 257.541 132.451 261.734 132.409 265.976C130.353 265.306 128.104 265.249 125.962 265.886C126.006 261.508 126.257 257.18 126.706 252.91ZM134.466 285.677C134.231 285.813 133.992 285.939 133.751 286.055C134.222 289.298 134.812 292.502 135.518 295.662C133.399 295.415 131.19 295.788 129.178 296.859C128.459 293.615 127.855 290.327 127.372 287C124.245 286.51 121.359 284.662 119.653 281.708C116.659 276.521 118.436 269.889 123.622 266.894C128.809 263.9 135.441 265.677 138.436 270.863C141.43 276.05 139.653 282.682 134.466 285.677ZM135.413 317.221C131.282 317.658 127.088 315.687 124.877 311.857C121.882 306.671 123.659 300.038 128.846 297.044C134.033 294.049 140.665 295.826 143.659 301.013C146.311 305.606 145.221 311.331 141.336 314.662C142.488 317.591 143.743 320.468 145.097 323.289C143.609 323.436 142.127 323.895 140.748 324.691C140.174 325.022 139.642 325.398 139.154 325.811C137.812 323 136.564 320.135 135.413 317.221ZM160.21 347.496C158.391 345.193 156.649 342.826 154.988 340.399C157.387 337.046 157.757 332.465 155.561 328.661C152.566 323.474 145.934 321.697 140.748 324.692C135.561 327.686 133.784 334.319 136.778 339.505C139.444 344.122 144.992 346.037 149.837 344.29C151.503 346.711 153.245 349.075 155.06 351.379C152.653 354.734 152.28 359.321 154.478 363.128C157.473 368.315 164.105 370.092 169.292 367.098C169.319 367.082 169.346 367.066 169.372 367.051C169.391 367.039 169.41 367.028 169.429 367.017C169.441 367.01 169.452 367.003 169.464 366.996C171.947 369.301 174.516 371.513 177.166 373.629C176.123 376.528 176.316 379.85 177.977 382.727C180.972 387.914 187.604 389.691 192.79 386.696C193.429 386.328 194.016 385.904 194.548 385.435C198.488 387.687 202.55 389.748 206.724 391.605C206.402 393.913 206.819 396.341 208.075 398.516C211.069 403.703 217.701 405.48 222.888 402.485C224.538 401.533 225.842 400.213 226.758 398.688C237.982 401.686 249.777 403.284 261.946 403.284C274.003 403.284 285.694 401.715 296.825 398.77C297.738 400.26 299.026 401.55 300.645 402.485C305.832 405.48 312.464 403.703 315.459 398.516C318.453 393.329 316.676 386.697 311.49 383.703C306.303 380.708 299.671 382.485 296.676 387.672C295.791 389.205 295.323 390.864 295.236 392.519C284.613 395.335 273.455 396.836 261.946 396.836C250.306 396.836 239.024 395.301 228.292 392.422C228.192 390.799 227.725 389.175 226.857 387.672C223.863 382.485 217.231 380.708 212.044 383.703C211.059 384.271 210.198 384.97 209.468 385.766C205.501 384.006 201.639 382.053 197.893 379.918C198.546 377.29 198.221 374.414 196.76 371.883C193.765 366.696 187.133 364.919 181.946 367.914C181.576 368.128 181.222 368.36 180.887 368.61C180.943 368.568 181 368.526 181.058 368.485C178.544 366.473 176.106 364.368 173.75 362.177C173.733 362.215 173.716 362.253 173.698 362.291C175.139 359.194 175.098 355.467 173.261 352.284C170.266 347.098 163.634 345.321 158.447 348.315C158.081 348.527 157.732 348.756 157.4 349.002C157.732 348.756 158.081 348.526 158.448 348.315C159.02 347.985 159.609 347.712 160.21 347.496ZM314.168 385.879C315.645 387.537 316.56 389.597 316.83 391.755C320.859 389.975 324.785 388.006 328.598 385.858C329.155 386.361 329.774 386.814 330.45 387.204C335.637 390.199 342.269 388.422 345.264 383.235C348.258 378.048 346.481 371.416 341.294 368.422C336.108 365.427 329.476 367.204 326.481 372.391C325.042 374.883 324.705 377.708 325.318 380.304C321.705 382.334 317.985 384.196 314.168 385.879ZM342.19 368.997C344.031 370.314 345.353 372.127 346.078 374.144C348.747 372.039 351.336 369.836 353.838 367.541C353.875 367.563 353.912 367.584 353.949 367.605C359.136 370.6 365.768 368.823 368.762 363.636C371.757 358.45 369.98 351.817 364.793 348.823C359.606 345.828 352.974 347.605 349.98 352.792C348.151 355.959 348.102 359.664 349.521 362.751C347.156 364.922 344.711 367.005 342.19 368.997ZM363.223 348.075C363.757 348.279 364.282 348.527 364.793 348.822C366.235 349.655 367.413 350.768 368.298 352.053C370.281 349.568 372.179 347.012 373.986 344.39C378.761 345.96 384.143 344.03 386.755 339.505C389.75 334.319 387.973 327.686 382.786 324.692C377.599 321.697 370.967 323.474 367.973 328.661C365.721 332.561 366.167 337.278 368.732 340.651C366.982 343.193 365.145 345.669 363.223 348.075ZM378.776 323.328C380.15 323.508 381.512 323.956 382.787 324.691C383.46 325.08 384.077 325.531 384.632 326.032C385.931 323.325 387.142 320.569 388.263 317.766C392.251 318.025 396.23 316.06 398.364 312.365C401.358 307.178 399.581 300.546 394.395 297.552C389.208 294.557 382.576 296.334 379.581 301.521C376.854 306.244 378.084 312.167 382.243 315.449C381.173 318.12 380.016 320.748 378.776 323.328ZM388.27 296.12C390.338 295.984 392.466 296.438 394.395 297.551L394.444 297.58C394.476 297.598 394.508 297.617 394.54 297.636C395.307 294.269 395.949 290.855 396.461 287.398C399.358 286.779 401.99 284.982 403.588 282.215C406.582 277.028 404.805 270.396 399.618 267.402C394.432 264.407 387.799 266.184 384.805 271.371C381.81 276.558 383.588 283.19 388.774 286.184C389.184 286.421 389.604 286.628 390.029 286.806C389.555 289.949 388.967 293.055 388.27 296.12ZM391.486 266.293C393.574 265.753 395.824 265.833 397.936 266.612C397.913 261.937 397.654 257.319 397.171 252.767C399.218 251.872 401.009 250.339 402.212 248.255C405.206 243.068 403.429 236.436 398.243 233.442C393.056 230.447 386.424 232.224 383.429 237.411C380.435 242.598 382.212 249.23 387.398 252.224C388.473 252.845 389.609 253.26 390.762 253.483C391.208 257.696 391.453 261.969 391.486 266.293ZM348.406 171.161C351.158 171.161 353.388 168.93 353.388 166.179C353.388 163.427 351.158 161.196 348.406 161.196C345.654 161.196 343.424 163.427 343.424 166.179C343.424 168.93 345.654 171.161 348.406 171.161ZM325.252 148.007C325.252 150.759 323.022 152.99 320.27 152.99C317.518 152.99 315.288 150.759 315.288 148.007C315.288 145.256 317.518 143.025 320.27 143.025C323.022 143.025 325.252 145.256 325.252 148.007ZM232.344 142.439C235.096 142.439 237.327 140.208 237.327 137.456C237.327 134.705 235.096 132.474 232.344 132.474C229.592 132.474 227.362 134.705 227.362 137.456C227.362 140.208 229.592 142.439 232.344 142.439ZM208.604 148.007C208.604 150.759 206.374 152.99 203.622 152.99C200.87 152.99 198.64 150.759 198.64 148.007C198.64 145.256 200.87 143.025 203.622 143.025C206.374 143.025 208.604 145.256 208.604 148.007ZM174.9 171.161C177.651 171.161 179.882 168.93 179.882 166.179C179.882 163.427 177.651 161.196 174.9 161.196C172.148 161.196 169.917 163.427 169.917 166.179C169.917 168.93 172.148 171.161 174.9 171.161ZM128.222 238.518C130.605 237.142 133.652 237.959 135.028 240.342C136.404 242.725 135.588 245.772 133.204 247.148C130.821 248.524 127.774 247.707 126.398 245.324C125.022 242.941 125.839 239.894 128.222 238.518ZM133.359 273.794C131.983 271.411 128.936 270.595 126.553 271.971C124.17 273.346 123.354 276.394 124.73 278.777C126.105 281.16 129.153 281.976 131.536 280.6C133.919 279.225 134.735 276.177 133.359 273.794ZM131.777 302.12C134.16 300.744 137.207 301.561 138.583 303.944C139.959 306.327 139.142 309.374 136.759 310.75C134.376 312.126 131.329 311.309 129.953 308.926C128.577 306.543 129.394 303.496 131.777 302.12ZM150.484 331.592C149.109 329.209 146.061 328.392 143.678 329.768C141.295 331.144 140.479 334.191 141.855 336.574C143.231 338.957 146.278 339.774 148.661 338.398C151.044 337.022 151.86 333.975 150.484 331.592ZM161.378 353.392C163.761 352.016 166.808 352.832 168.184 355.215C169.56 357.598 168.744 360.645 166.361 362.021C163.978 363.397 160.93 362.581 159.555 360.198C158.179 357.815 158.995 354.767 161.378 353.392ZM184.877 372.99C187.26 371.614 190.307 372.431 191.683 374.814C193.059 377.197 192.243 380.244 189.86 381.62C187.476 382.996 184.429 382.179 183.053 379.796C181.678 377.413 182.494 374.366 184.877 372.99ZM214.975 388.779C217.358 387.403 220.405 388.22 221.781 390.603C223.157 392.986 222.34 396.033 219.957 397.409C217.574 398.785 214.527 397.968 213.151 395.585C211.775 393.202 212.592 390.155 214.975 388.779ZM390.329 247.148C387.946 245.772 387.13 242.725 388.506 240.342C389.882 237.959 392.929 237.142 395.312 238.518C397.695 239.894 398.511 242.941 397.135 245.324C395.76 247.707 392.712 248.524 390.329 247.148ZM391.705 281.108C389.322 279.732 388.505 276.685 389.881 274.302C391.257 271.919 394.304 271.102 396.687 272.478C399.071 273.854 399.887 276.901 398.511 279.284C397.135 281.667 394.088 282.484 391.705 281.108ZM384.658 304.452C383.282 306.835 384.098 309.882 386.481 311.258C388.864 312.634 391.912 311.817 393.287 309.434C394.663 307.051 393.847 304.004 391.464 302.628C389.081 301.252 386.033 302.069 384.658 304.452ZM374.873 338.398C372.49 337.022 371.673 333.975 373.049 331.592C374.425 329.209 377.472 328.392 379.855 329.768C382.238 331.144 383.055 334.191 381.679 336.574C380.303 338.957 377.256 339.774 374.873 338.398ZM355.056 355.723C353.68 358.106 354.497 361.153 356.88 362.529C359.263 363.905 362.31 363.088 363.686 360.705C365.062 358.322 364.245 355.275 361.862 353.899C359.479 352.523 356.432 353.34 355.056 355.723ZM333.381 382.128C330.998 380.752 330.182 377.705 331.557 375.322C332.933 372.939 335.981 372.122 338.364 373.498C340.747 374.874 341.563 377.921 340.187 380.304C338.811 382.687 335.764 383.504 333.381 382.128ZM301.753 390.603C300.377 392.986 301.193 396.033 303.576 397.409C305.959 398.785 309.007 397.968 310.382 395.585C311.758 393.202 310.942 390.155 308.559 388.779C306.176 387.403 303.128 388.22 301.753 390.603Z" fill="url(#paint5_linear)"/>
    <defs>
        <linearGradient id="paint0_linear" x1="408.645" y1="455.454" x2="408.645" y2="263.776" gradientUnits="userSpaceOnUse">
            <stop stop-color="#00CAC7"/>
            <stop offset="0.848958" stop-color="#069782"/>
        </linearGradient>
        <linearGradient id="paint1_linear" x1="70.7187" y1="411.198" x2="262.396" y2="411.198" gradientUnits="userSpaceOnUse">
            <stop stop-color="#00CAC7"/>
            <stop offset="0.848958" stop-color="#069782"/>
        </linearGradient>
        <linearGradient id="paint2_linear" x1="116.355" y1="72.0988" x2="116.355" y2="263.776" gradientUnits="userSpaceOnUse">
            <stop stop-color="#00CAC7"/>
            <stop offset="0.848958" stop-color="#069782"/>
        </linearGradient>
        <linearGradient id="paint3_linear" x1="454.281" y1="116.355" x2="262.604" y2="116.355" gradientUnits="userSpaceOnUse">
            <stop stop-color="#00CAC7"/>
            <stop offset="0.848958" stop-color="#069782"/>
        </linearGradient>
        <linearGradient id="paint4_linear" x1="369.079" y1="274.075" x2="149.831" y2="275.134" gradientUnits="userSpaceOnUse">
            <stop stop-color="#002E46"/>
            <stop offset="0.0001" stop-color="#002E46"/>
            <stop offset="1" stop-color="#006182"/>
        </linearGradient>
        <linearGradient id="paint5_linear" x1="404.835" y1="263.776" x2="118.198" y2="263.776" gradientUnits="userSpaceOnUse">
            <stop stop-color="#55CE6F"/>
            <stop offset="1" stop-color="#80ED9C"/>
        </linearGradient>
    </defs>
</svg>
