<svg xmlns="http://www.w3.org/2000/svg" viewBox="0 0 227.88 331.45"><defs><style>.cls-1{isolation:isolate;}.cls-2,.cls-4{fill:#fdd6b0;}.cls-3{fill:#f46b4d;}.cls-4{opacity:0.6;mix-blend-mode:multiply;}</style></defs><g class="cls-1"><g id="Layer_2" data-name="Layer 2"><g id="Layer_1-2" data-name="Layer 1"><path class="cls-2" d="M107.09,178.66a98.13,98.13,0,0,1,18.52,14.63,83.21,83.21,0,0,1,12.93,16.63c.52.83,1,1.67,1.47,2.53a50.5,50.5,0,0,0,14.26,16.93,201.47,201.47,0,0,0,21.62,14A121.79,121.79,0,0,0,199.6,253a39.65,39.65,0,0,1,9.11,4.11,40.13,40.13,0,0,1-33.17,72.45v.06s-.33-.14-.91-.33c-.33-.11-.66-.25-1-.35-8.8-3.14-47.54-17.28-83.85-35.49-7.3-3.64-14.47-7.46-21.31-11.39a226.46,226.46,0,0,1-26.24-17.24c-.78-.61-1.54-1.2-2.31-1.84a.35.35,0,0,1-.15-.12l-.07,0C12.88,240.93,2.2,208.63,16,186.1,31.57,160.7,72.35,157.37,107.09,178.66Z"/><path class="cls-3" d="M125.61,193.29a83.21,83.21,0,0,1,12.93,16.63L78.33,224.37l11.46,69.07c-7.3-3.64-14.47-7.46-21.31-11.39l-12-72.16Z"/><path class="cls-4" d="M179.33,262.87c15.79,9.68,23.39,26,17,36.5s-24.43,11.12-40.22,1.44-23.4-26-17-36.5S163.53,253.19,179.33,262.87Z"/><path class="cls-2" d="M40.75,106a98.07,98.07,0,0,0,21.44,9.87,83.92,83.92,0,0,0,20.69,4c1,.08,1.94.13,2.93.15a50.57,50.57,0,0,1,21.55,5,205.2,205.2,0,0,1,22.3,12.91A121.8,121.8,0,0,1,149,154.69a39.57,39.57,0,0,0,7.79,6.25A40.13,40.13,0,0,0,206.27,98.5l.06,0s-.28-.24-.72-.67c-.24-.24-.51-.47-.75-.71-6.8-6.42-37-34.52-69.68-58.61C128.62,33.62,122,29,115.36,24.66A227.52,227.52,0,0,0,88.09,9.1c-.9-.42-1.77-.83-2.69-1.23a.44.44,0,0,0-.17-.07l-.07,0C53.49-6.23,19.85-1.09,6.05,21.44-9.52,46.84,6,84.69,40.75,106Z"/><path class="cls-3" d="M62.19,115.85a83.92,83.92,0,0,0,20.69,4L68.43,59.62l66.75-21.14C128.62,33.62,122,29,115.36,24.66L45.63,46.73Z"/><path class="cls-4" d="M148.58,132.14c15.79,9.68,33.8,9,40.22-1.44s-1.18-26.82-17-36.5-33.8-9-40.22,1.44S132.78,122.46,148.58,132.14Z"/></g></g></g></svg>