<svg xmlns="http://www.w3.org/2000/svg" viewBox="0 0 209.24 326.79"><defs><style>.cls-1{isolation:isolate;}.cls-2{fill:#2a875a;}.cls-3,.cls-7{fill:#fdd6b0;}.cls-3,.cls-6{mix-blend-mode:multiply;}.cls-4{fill:#fff;}.cls-4,.cls-8{opacity:0.2;mix-blend-mode:overlay;}.cls-5{fill:#3bc680;}</style></defs><g class="cls-1"><g id="Layer_2" data-name="Layer 2"><g id="Layer_1-2" data-name="Layer 1"><path class="cls-2" d="M118.49,9.85a29.63,29.63,0,0,0-10.26,7.28A70.42,70.42,0,0,0,94.43,38.4a4.38,4.38,0,0,1-4.1,2.8c-1.48.14-2.16-.55-1.74-2a11.36,11.36,0,0,1,1.6-3.52c2.92-3.95,5.84-7.92,9-11.67C103.5,18.92,108,14,112.59,8.82a14.65,14.65,0,0,0-2.44-.22A41.92,41.92,0,0,1,97.52,7.28c-1.77-.51-3-.34-4,.67-2,2-4.23,3.94-6.1,6.11C80.64,21.91,76.06,31,72.5,40.64c-.46,1.24-.9,2.49-1.35,3.74l-.43,0a36.35,36.35,0,0,1-.85-3.65,20.54,20.54,0,0,1,1.88-10.58c2.76-6.58,7.09-12.1,11.89-17.29,1.82-2,3.74-3.87,5.73-5.92A61.86,61.86,0,0,0,72.68,6.7a24.82,24.82,0,0,0-10.49,3.69,4.07,4.07,0,0,0-1.93,2.9c-2,11.13-4.16,22.25-6.24,33.37a5.74,5.74,0,0,0,.07,1.25c-5.16-3-7.86-8.68-6.06-14.66a25.61,25.61,0,0,1,5.84-9.62l1.69-1.89c-.8-.32-1.43-.61-2.08-.82-6.29-2.05-18-.08-23.12,8.07a42.75,42.75,0,0,0-5.68,14.72,2.48,2.48,0,0,1-1.26,1.8,11.21,11.21,0,0,1-2.08,1.19C19.89,47,20,47.94,20.21,49c0,.2.06.4.11.6a64.49,64.49,0,0,0,7.83,18.7,6.13,6.13,0,0,0,2.53,2.23,12.88,12.88,0,0,0,9.79.61C17.16,82.5,0,73.88,0,73.88L3.72,88.33a39.32,39.32,0,0,0,9.73-.24c.94,2,2.37,4.76,2.37,4.76L32.05,82.64a124.63,124.63,0,0,0,13.11-6.55,28.7,28.7,0,0,0-.91,27.63A52.43,52.43,0,0,0,49,111.51c3.4,4.58,7.51,8.34,12.89,10.48,6.44,2.56,12.91,2.15,19.36.09,2-.63,3.91-1.46,6.09-2.28-.63-.49-1-.77-1.32-1A89.46,89.46,0,0,1,71.69,106c-2.21-2.51-4.36-5.12-5.17-8.45a9.71,9.71,0,0,1,0-4.39,2.67,2.67,0,0,1,3.8-1.81,12.29,12.29,0,0,1,2.75,1.77A56.19,56.19,0,0,1,82.42,104c2.34,3.33,4.52,6.77,6.8,10.13.76,1.11,1.42,2.73,2.47,3.08s2.74-.36,4.12-.71a95.38,95.38,0,0,0,19.85-8c1.23-.63,2.37-1.41,3.82-2.29-.76-.16-1.2-.23-1.63-.34a114.86,114.86,0,0,1-21.48-7.64c-6.45-3.14-12.51-6.82-17-12.59a16.18,16.18,0,0,1-3.07-6c.58.36.89.54,1.23.77,2.65,1.83,5.3,3.65,8,5.36,8.1,5.09,16.43,9.76,25.63,12.58a30.52,30.52,0,0,0,11.3,1.56,2.8,2.8,0,0,0,2.15-1.13c3.88-4.75,7.8-9.46,11.7-14.2,1.54-1.86,3-3.73,4.74-5.78l-1.23.13a113.21,113.21,0,0,1-26.66.11c-5.77-.73-11.39-2-16.47-5a17.18,17.18,0,0,1-5.45-4.8A2.85,2.85,0,0,1,91.62,66c.71-.86,1.48-.56,2.3-.18,3,1.39,6,2.83,9.13,4.11,7.8,3.26,15.78,5.94,24.24,6.85,4.86.52,9.67.4,14.28-1.49a1.84,1.84,0,0,0,1-1c2.23-5.24,4.42-10.5,6.61-15.76a6.76,6.76,0,0,0,.23-.82c-3,.95-5.93,2-8.9,2.77C134.74,62.07,128.93,63,123,62a14.24,14.24,0,0,1-8-4,8.22,8.22,0,0,1-2.48-4c.65,0,1.11,0,1.62.05a86,86,0,0,0,20.21-1c5.09-.83,10-2.14,14.39-5.14,1-.71,1.41-1.45.95-3.29a45.68,45.68,0,0,1-1.17-17.49c.68-4.88,1.21-5.93-.37-6.62-5-2.18-9.92-4.57-15-6.56C129,12.24,124.63,11,120.36,9.7A3,3,0,0,0,118.49,9.85Z"/><path class="cls-3" d="M126.3,3.62A30,30,0,0,0,116,10.9a70.25,70.25,0,0,0-13.79,21.28A4.38,4.38,0,0,1,98.14,35c-1.47.14-2.16-.55-1.74-1.95A11.44,11.44,0,0,1,98,29.49c2.92-3.95,5.84-7.91,9-11.67,4.31-5.12,8.84-10.06,13.4-15.22A13.5,13.5,0,0,0,118,2.38a42.5,42.5,0,0,1-12.62-1.32c-1.77-.52-3-.35-4,.67-2.06,2-4.23,3.93-6.11,6.11-6.75,7.84-11.33,16.93-14.89,26.57-.46,1.24-.9,2.49-1.34,3.74l-.43,0a31,31,0,0,1-.85-3.64A20.52,20.52,0,0,1,79.56,23.9c2.77-6.58,7.09-12.11,11.89-17.3,1.83-2,3.74-3.86,5.74-5.92A62.35,62.35,0,0,0,80.49.47,24.92,24.92,0,0,0,70,4.17a4,4,0,0,0-1.93,2.89c-2,11.13-4.17,22.25-6.25,33.38a6.31,6.31,0,0,0,.07,1.24C56.75,38.66,54,33,55.84,27a25.66,25.66,0,0,1,5.84-9.62l1.7-1.89c-.81-.32-1.43-.61-2.08-.82-6.3-2.06-18-.09-23.12,8.06A42.72,42.72,0,0,0,32.5,37.49a2.5,2.5,0,0,1-1.26,1.79,10.25,10.25,0,0,1-2.09,1.19c-1.44.35-1.34,1.25-1.13,2.3,0,.2.07.4.12.6A64.46,64.46,0,0,0,36,62.07a6.18,6.18,0,0,0,2.54,2.24,12.9,12.9,0,0,0,9.78.6C25,76.27,7.81,67.66,7.81,67.66l3.73,14.45a40.24,40.24,0,0,0,9.72-.24c.95,2,2.37,4.76,2.37,4.76L39.86,76.41A124,124,0,0,0,53,69.87a28.7,28.7,0,0,0-.92,27.63,53.89,53.89,0,0,0,4.8,7.79c3.4,4.57,7.5,8.33,12.89,10.48,6.43,2.56,12.91,2.14,19.36.09,2-.64,3.91-1.46,6.08-2.29-.63-.49-1-.77-1.32-1A89.88,89.88,0,0,1,79.5,99.78c-2.21-2.51-4.36-5.12-5.17-8.45a9.76,9.76,0,0,1,0-4.4,2.68,2.68,0,0,1,3.8-1.81,12.39,12.39,0,0,1,2.76,1.78,55.8,55.8,0,0,1,9.36,10.87c2.35,3.32,4.53,6.76,6.81,10.13.75,1.11,1.41,2.73,2.46,3.07s2.75-.35,4.12-.7a95.47,95.47,0,0,0,19.86-8c1.22-.63,2.37-1.42,3.82-2.29-.77-.16-1.21-.24-1.64-.35A114.65,114.65,0,0,1,104.18,92c-6.44-3.13-12.5-6.81-17-12.58a16.2,16.2,0,0,1-3.08-6c.59.36.9.54,1.24.77,2.65,1.82,5.29,3.64,8,5.35,8.11,5.1,16.43,9.77,25.63,12.59a30.33,30.33,0,0,0,11.31,1.55,2.79,2.79,0,0,0,2.15-1.12c3.87-4.75,7.8-9.47,11.7-14.2,1.53-1.86,3-3.73,4.73-5.79l-1.23.13a113.21,113.21,0,0,1-26.66.12c-5.77-.74-11.39-2-16.47-5A17.42,17.42,0,0,1,99.07,63a2.85,2.85,0,0,1,.36-3.15c.71-.86,1.48-.56,2.31-.19,3,1.4,6,2.83,9.12,4.12,7.81,3.26,15.78,5.94,24.25,6.84,4.86.52,9.67.4,14.28-1.49a1.74,1.74,0,0,0,1-1c2.24-5.24,4.42-10.5,6.62-15.76a6.9,6.9,0,0,0,.23-.83c-3,1-5.93,2-8.9,2.78-5.74,1.53-11.54,2.49-17.49,1.43a14.14,14.14,0,0,1-8-4,8.19,8.19,0,0,1-2.49-4c.65,0,1.12,0,1.63,0a86.06,86.06,0,0,0,20.21-1c5.09-.83,10-2.14,14.39-5.14,1-.71,1.41-1.45.94-3.3a45.83,45.83,0,0,1-1.17-17.48c.69-4.89,1.21-5.94-.37-6.63-5-2.18-9.91-4.56-15-6.56-4.16-1.63-8.48-2.84-12.75-4.17A3,3,0,0,0,126.3,3.62Z"/><path class="cls-2" d="M38.8,76.74c.74.46,1.45.92,2.18,1.4a2.26,2.26,0,0,1,.28.2c.66.42,1.33.87,2,1.3s1.47,1,2.18,1.48l2.15,1.52q2,1.41,3.87,2.85l1.82,1.4,1.87,1.45q1.81,1.47,3.56,2.92c1,.78,1.9,1.57,2.81,2.37.57.49,1.12,1,1.68,1.47s1,.91,1.52,1.36c.81.72,1.62,1.48,2.42,2.21s1.38,1.29,2.07,2c1.09,1.05,2.17,2.13,3.23,3.2s2.12,2.16,3.17,3.24c.69.72,1.38,1.46,2.05,2.2s1.35,1.46,2,2.22c1.33,1.48,2.64,3,3.92,4.48.63.76,1.27,1.52,1.88,2.27.94,1.14,1.87,2.28,2.79,3.47l.9,1.15c.61.76,1.2,1.55,1.79,2.34s1.18,1.54,1.74,2.33c.77,1.05,1.52,2.08,2.26,3.13.39.54.76,1.06,1.13,1.62,2,2.89,4,5.85,5.85,8.8.18.28.33.55.49.82l-32.7-8.51,42.24,25.39.1.05c.82,1.58,1.63,3.19,2.42,4.8s1.55,3.19,2.31,4.8,1.42,3.09,2.12,4.62a1,1,0,0,0,.08.2c.72,1.6,1.4,3.2,2.08,4.77l0,.06q1,2.43,2,4.84c.64,1.6,1.26,3.19,1.88,4.82.35.9.69,1.81,1,2.72.85,2.31,1.68,4.6,2.46,6.9L100.52,186l32.47,26c.79,2.7,1.53,5.4,2.23,8.07.41,1.52.79,3,1.16,4.53.58,2.37,1.13,4.7,1.67,7,.43,1.94.86,3.89,1.26,5.8.26,1.17.48,2.32.71,3.47l-26.6-13.49,29.11,27.41.18,1.1c.21,1.39.43,2.76.62,4.12s.39,2.74.57,4.09c.13,1,.27,2,.39,3s.25,1.87.35,2.8.23,1.91.33,2.83c.3,2.79.58,5.46.82,8,.09,1.12.2,2.25.28,3.34.06.82.13,1.65.18,2.44s.13,1.57.18,2.33.1,1.74.15,2.58c.09,1.12.15,2.19.19,3.23,0,.55,0,1.09.08,1.64.07,1.24.11,2.4.15,3.51s.05,1.94.08,2.82c0,.21,0,.41,0,.59,0,.71,0,1.41,0,2.05,0,1,.05,1.88.05,2.72,0,.54,0,1.05,0,1.55s0,.68,0,1,0,.6,0,.87,0,.43,0,.61c0,.86,0,1.51,0,1.91a2,2,0,0,0,0,.35c0,.05,0,.08,0,.09v0c-32.74-13.72-58.25-29.78-78.07-46.94l-16-41.76,2.29,28.87a191.74,191.74,0,0,1-25.32-32.21l-1.51-44.51-7.34,28.51C-10.17,142.1,8.68,82.06,8.68,82.06l9.58-6.29,9-5.89C31.22,72.06,35.07,74.35,38.8,76.74Z"/><path class="cls-4" d="M38.8,76.74c.74.46,1.45.92,2.18,1.4a2.26,2.26,0,0,1,.28.2c.66.42,1.33.87,2,1.3s1.47,1,2.18,1.48l2.15,1.52q2,1.41,3.87,2.85l1.82,1.4,1.87,1.45q1.81,1.47,3.56,2.92c1,.78,1.9,1.57,2.81,2.37.57.49,1.12,1,1.68,1.47s1,.91,1.52,1.36c.81.72,1.62,1.48,2.42,2.21s1.38,1.29,2.07,2c1.09,1.05,2.17,2.13,3.23,3.2s2.12,2.16,3.17,3.24c.69.72,1.38,1.46,2.05,2.2s1.35,1.46,2,2.22c1.33,1.48,2.64,3,3.92,4.48.63.76,1.27,1.52,1.88,2.27.94,1.14,1.87,2.28,2.79,3.47l.9,1.15c.61.76,1.2,1.55,1.79,2.34s1.18,1.54,1.74,2.33c.77,1.05,1.52,2.08,2.26,3.13.39.54.76,1.06,1.13,1.62,2,2.89,4,5.85,5.85,8.8.18.28.33.55.49.82l-32.7-8.51,42.24,25.39c0-.12-.07-.22-.09-.31a.89.89,0,0,1,.15.34l0,0c.82,1.58,1.63,3.19,2.42,4.8s1.55,3.19,2.31,4.8,1.42,3.09,2.12,4.62a1,1,0,0,0,.08.2c.72,1.6,1.4,3.2,2.08,4.77l0,.06q1,2.43,2,4.84c.64,1.6,1.26,3.19,1.88,4.82.35.9.69,1.81,1,2.72.85,2.31,1.68,4.6,2.46,6.9L100.52,186l32.47,26c.79,2.7,1.53,5.4,2.23,8.07.41,1.52.79,3,1.16,4.53.58,2.37,1.13,4.7,1.67,7,.43,1.94.86,3.89,1.26,5.8.26,1.17.48,2.32.71,3.47l-26.6-13.49,29.11,27.41.18,1.1c.21,1.39.43,2.76.62,4.12s.39,2.74.57,4.09c.13,1,.27,2,.39,3s.25,1.87.35,2.8.23,1.91.33,2.83c.3,2.79.58,5.46.82,8,.09,1.12.2,2.25.28,3.34.06.82.13,1.65.18,2.44s.13,1.57.18,2.33.1,1.74.15,2.58c.09,1.12.15,2.19.19,3.23,0,.55,0,1.09.08,1.64.07,1.24.11,2.4.15,3.51s.05,1.94.08,2.82c0,.21,0,.41,0,.59,0,.71,0,1.41,0,2.05,0,1,.05,1.88.05,2.72,0,.53,0,1.06,0,1.55s0,.68,0,1,0,.6,0,.87,0,.43,0,.61c0,.86,0,1.51,0,1.91a2,2,0,0,0,0,.35c0,.05,0,.08,0,.09C145.6,312.36,39.93,177.06,18.26,75.77l9-5.89C31.22,72.06,35.07,74.35,38.8,76.74Z"/><path class="cls-5" d="M51.78,59.6c.64.07,1.26.14,1.89.23l.26,0,1.72.23c.63.09,1.28.18,1.92.29l1.92.32c1.17.2,2.33.41,3.48.65l1.66.34,1.71.36c1.12.26,2.22.52,3.31.8.88.2,1.76.43,2.63.67l1.59.43,1.44.42c.77.21,1.55.46,2.32.69l2,.63c1.06.35,2.12.72,3.17,1.09s2.1.75,3.15,1.14l2.07.79c.68.27,1.37.54,2,.83,1.37.56,2.72,1.13,4,1.72l2,.9c1,.46,2,.92,3,1.41l1,.47L102,75c.63.31,1.28.65,1.91,1,.84.45,1.67.89,2.5,1.35l1.27.71c2.29,1.27,4.52,2.61,6.72,4l.59.39L90.52,87.3l36.23,3.28h.08c1,.79,2.11,1.59,3.15,2.41s2.06,1.62,3.08,2.45L136,97.83a1.31,1.31,0,0,0,.12.11c1,.83,2,1.67,2.92,2.5l0,0c1,.86,1.92,1.72,2.87,2.58s1.86,1.71,2.8,2.6c.52.48,1,1,1.56,1.48,1.3,1.26,2.59,2.52,3.84,3.79l-22.18,1.39,29.92,6.81q2.08,2.31,4.07,4.65c.76.87,1.5,1.76,2.23,2.63,1.15,1.39,2.27,2.76,3.37,4.13.91,1.15,1.82,2.31,2.7,3.45.55.69,1.07,1.38,1.58,2.07l-22-.41,28.16,8.85c.15.23.31.45.47.67.58.86,1.17,1.7,1.73,2.54s1.14,1.7,1.69,2.54c.42.61.83,1.23,1.22,1.85s.77,1.16,1.13,1.74.77,1.2,1.13,1.78q1.65,2.63,3.12,5.06c.42.71.86,1.43,1.26,2.12l.91,1.57c.31.51.59,1,.86,1.49s.63,1.12.93,1.66c.42.72.81,1.41,1.17,2.09l.58,1.06c.45.8.84,1.56,1.23,2.29s.66,1.26,1,1.84c.09.14.14.27.21.39.23.47.46.93.68,1.35l.91,1.79c.16.36.32.7.5,1s.22.46.33.68l.26.58c.07.16.14.29.19.41l.6,1.27a1.94,1.94,0,0,0,.11.24.25.25,0,0,1,0,.07h0c-26.17,1.41-48.28-1-67-6.08l-24-22.6L120,172.36A142,142,0,0,1,92.78,159.1L77.46,130l4.29,21.31c-41.49-32.55-48.27-78.5-48.27-78.5l4.33-7.26,4.06-6.79C45.24,58.93,48.53,59.21,51.78,59.6Z"/><path class="cls-4" d="M51.78,59.6c.64.07,1.26.14,1.89.23l.26,0,1.72.23c.63.09,1.28.18,1.92.29l1.92.32c1.17.2,2.33.41,3.48.65l1.66.34,1.71.36c1.12.26,2.22.52,3.31.8.88.2,1.76.43,2.63.67l1.59.43,1.44.42c.77.21,1.55.46,2.32.69l2,.63c1.06.35,2.12.72,3.17,1.09s2.1.75,3.15,1.14l2.07.79c.68.27,1.37.54,2,.83,1.37.56,2.72,1.13,4,1.72l2,.9c1,.46,2,.92,3,1.41l1,.47L102,75c.63.31,1.28.65,1.91,1,.84.45,1.67.89,2.5,1.35l1.27.71c2.29,1.27,4.52,2.61,6.72,4l.59.39L90.52,87.3l36.23,3.28-.17-.17a.58.58,0,0,1,.21.18h0c1,.79,2.11,1.59,3.15,2.41s2.06,1.62,3.08,2.45L136,97.83a1.31,1.31,0,0,0,.12.11c1,.83,2,1.67,2.92,2.5l0,0c1,.86,1.92,1.72,2.87,2.58s1.86,1.71,2.8,2.6c.52.48,1,1,1.56,1.48,1.3,1.26,2.59,2.52,3.84,3.79l-22.18,1.39,29.92,6.81q2.08,2.31,4.07,4.65c.76.87,1.5,1.76,2.23,2.63,1.15,1.39,2.27,2.76,3.37,4.13.91,1.15,1.82,2.31,2.7,3.45.55.69,1.07,1.38,1.58,2.07l-22-.41,28.16,8.85c.15.23.31.45.47.67.58.86,1.17,1.7,1.73,2.54s1.14,1.7,1.69,2.54c.42.61.83,1.23,1.22,1.85s.77,1.16,1.13,1.74.77,1.2,1.13,1.78q1.65,2.63,3.12,5.06c.42.71.86,1.43,1.26,2.12l.91,1.57c.31.51.59,1,.86,1.49s.63,1.12.93,1.66c.42.72.81,1.41,1.17,2.09l.58,1.06c.45.8.84,1.56,1.23,2.29s.66,1.26,1,1.84c.09.14.14.27.21.39.23.47.46.93.68,1.35l.91,1.79c.17.35.33.7.5,1s.22.46.33.68l.26.58c.07.16.14.29.19.41l.6,1.27a1.94,1.94,0,0,0,.11.24.25.25,0,0,1,0,.07c-1.63-.79-115.35-56.7-162.33-117l4.06-6.79C45.24,58.93,48.53,59.21,51.78,59.6Z"/><g class="cls-6"><path class="cls-7" d="M44.74,78.38c.77.49,1.52,1,2.28,1.47a2.28,2.28,0,0,1,.3.21c.69.44,1.38.91,2,1.36s1.53,1,2.28,1.55l2.25,1.59c1.37,1,2.71,2,4,3L59.84,89c.65.49,1.29,1,1.95,1.51,1.27,1,2.51,2,3.73,3.06,1,.81,2,1.64,2.94,2.48l1.75,1.53L71.8,99c.85.75,1.69,1.55,2.53,2.32s1.45,1.34,2.17,2c1.13,1.1,2.26,2.23,3.37,3.34s2.22,2.26,3.31,3.4c.72.74,1.45,1.52,2.15,2.29s1.41,1.54,2.11,2.32c1.4,1.56,2.76,3.12,4.1,4.69.66.79,1.33,1.59,2,2.37,1,1.2,1.95,2.39,2.91,3.63l1,1.2c.63.8,1.25,1.63,1.87,2.45s1.23,1.61,1.82,2.44c.8,1.09,1.58,2.17,2.36,3.27.4.56.79,1.11,1.18,1.69,2.13,3,4.15,6.12,6.11,9.2.19.3.34.58.52.87L77,137.62l44.17,26.54.09.06c.86,1.65,1.71,3.33,2.53,5s1.63,3.33,2.42,5,1.48,3.22,2.22,4.82a1.11,1.11,0,0,0,.08.21c.75,1.67,1.47,3.35,2.18,5v.06c.71,1.7,1.4,3.38,2.08,5.06s1.32,3.33,2,5c.37.94.72,1.89,1.07,2.85.89,2.41,1.76,4.81,2.57,7.21l-29.15-11.92,34,27.14c.83,2.83,1.6,5.65,2.33,8.44.43,1.59.83,3.18,1.22,4.73.6,2.49,1.18,4.92,1.74,7.35.45,2,.9,4.07,1.32,6.06.27,1.23.5,2.43.74,3.63l-27.81-14.11,30.44,28.67c.06.38.13.76.19,1.14.21,1.46.44,2.89.65,4.31s.4,2.87.58,4.28c.15,1,.29,2.08.42,3.11s.26,1.95.37,2.92.23,2,.34,3q.48,4.38.85,8.38c.1,1.17.21,2.35.3,3.49.06.86.13,1.72.19,2.55s.13,1.64.18,2.44.1,1.81.16,2.69c.09,1.17.16,2.3.2,3.38,0,.57.05,1.14.08,1.72.07,1.29.11,2.5.16,3.67s.06,2,.09,2.94c0,.22,0,.43,0,.62,0,.75,0,1.47,0,2.14,0,1,0,2,0,2.84a12.45,12.45,0,0,0,0,1.62c0,.37,0,.72,0,1.06s0,.63,0,.92,0,.45,0,.63c0,.9,0,1.58,0,2,0,.16,0,.29,0,.37a.25.25,0,0,1,0,.1v0c-34.23-14.35-60.9-31.14-81.62-49.08l-16.7-43.66,2.4,30.19a200.67,200.67,0,0,1-26.48-33.69L34,184l-7.67,29.81C-6.47,146.72,13.25,84,13.25,84l10-6.58,9.36-6.15Q38.91,74.63,44.74,78.38Z"/><g class="cls-8"><path class="cls-7" d="M44.74,78.38c.77.49,1.52,1,2.28,1.47a2.28,2.28,0,0,1,.3.21c.69.44,1.38.91,2,1.36s1.53,1,2.28,1.55l2.25,1.59c1.37,1,2.71,2,4,3L59.84,89c.65.49,1.29,1,1.95,1.51,1.27,1,2.51,2,3.73,3.06,1,.81,2,1.64,2.94,2.48l1.75,1.53L71.8,99c.85.75,1.69,1.55,2.53,2.32s1.45,1.34,2.17,2c1.13,1.1,2.26,2.23,3.37,3.34s2.22,2.26,3.31,3.4c.72.74,1.45,1.52,2.15,2.29s1.41,1.54,2.11,2.32c1.4,1.56,2.76,3.12,4.1,4.69.66.79,1.33,1.59,2,2.37,1,1.2,1.95,2.39,2.91,3.63l1,1.2c.63.8,1.25,1.63,1.87,2.45s1.23,1.61,1.82,2.44c.8,1.09,1.58,2.17,2.36,3.27.4.56.79,1.11,1.18,1.69,2.13,3,4.15,6.12,6.11,9.2.19.3.34.58.52.87L77,137.62l44.17,26.54c0-.13-.08-.23-.1-.33a1.08,1.08,0,0,1,.15.36l0,0c.86,1.65,1.71,3.33,2.53,5s1.63,3.33,2.42,5,1.48,3.22,2.22,4.82a1.11,1.11,0,0,0,.08.21c.75,1.67,1.47,3.35,2.18,5v.06c.71,1.7,1.4,3.38,2.08,5.06s1.32,3.33,2,5c.37.94.72,1.89,1.07,2.85.89,2.41,1.76,4.81,2.57,7.21l-29.15-11.92,34,27.14c.83,2.83,1.6,5.65,2.33,8.44.43,1.59.83,3.18,1.22,4.73.6,2.49,1.18,4.92,1.74,7.35.45,2,.9,4.07,1.32,6.06.27,1.23.5,2.43.74,3.63l-27.81-14.11,30.44,28.67c.06.38.13.76.19,1.14.21,1.46.44,2.89.65,4.31s.4,2.87.58,4.28c.15,1,.29,2.08.42,3.11s.26,1.95.37,2.92.23,2,.34,3q.48,4.38.85,8.38c.1,1.17.21,2.35.3,3.49.06.86.13,1.72.19,2.55s.13,1.64.18,2.44.1,1.81.16,2.69c.09,1.17.16,2.3.2,3.38,0,.57.05,1.14.08,1.72.07,1.29.11,2.5.16,3.67s.06,2,.09,2.94c0,.22,0,.43,0,.62,0,.75,0,1.47,0,2.14,0,1,0,2,0,2.84,0,.56,0,1.11,0,1.62s0,.72,0,1.06,0,.63,0,.92,0,.45,0,.63c0,.9,0,1.58,0,2,0,.16,0,.29,0,.37a.25.25,0,0,1,0,.1c-1.59-2-112.08-143.48-134.74-249.39l9.36-6.15Q38.91,74.63,44.74,78.38Z"/></g><path class="cls-7" d="M60.87,65.82l1.89.24a1,1,0,0,1,.26,0c.57.07,1.16.16,1.71.24l1.93.28,1.92.32c1.17.2,2.33.42,3.48.65l1.66.34,1.71.37,3.31.79c.88.21,1.76.43,2.63.67l1.58.43,1.45.42,2.32.69c.66.21,1.33.41,2,.64,1.07.35,2.13.72,3.18,1.08s2.1.76,3.15,1.14l2.07.8c.68.27,1.37.54,2,.83,1.37.55,2.71,1.13,4,1.71l2,.9c1,.46,2,.92,3,1.41l1,.48c.64.31,1.29.64,1.94,1s1.27.64,1.9,1c.85.44,1.68.89,2.51,1.35.43.23.84.46,1.27.71,2.29,1.27,4.52,2.61,6.71,4,.22.13.4.26.6.39L99.61,93.53l36.22,3.28h.08c1.06.79,2.12,1.59,3.15,2.41s2.06,1.62,3.08,2.45l2.9,2.39a.63.63,0,0,0,.12.1c1,.83,2,1.68,2.91,2.5l0,0,2.88,2.58c.94.85,1.86,1.71,2.79,2.6l1.56,1.47q2,1.89,3.85,3.79L137,118.54l29.92,6.8c1.4,1.54,2.75,3.1,4.08,4.65.76.87,1.5,1.76,2.23,2.63,1.15,1.39,2.26,2.76,3.36,4.14.92,1.14,1.83,2.3,2.71,3.44.55.7,1.06,1.39,1.58,2.08l-22-.41L187,150.72l.47.67,1.74,2.54c.59.86,1.14,1.69,1.69,2.53l1.22,1.85c.38.58.77,1.16,1.13,1.74l1.13,1.78q1.65,2.64,3.12,5.06c.42.72.86,1.43,1.26,2.13.31.53.62,1,.91,1.56s.58,1,.86,1.5.63,1.11.93,1.66c.42.71.81,1.41,1.17,2.08l.58,1.07c.44.8.84,1.56,1.23,2.28l1,1.84.21.39c.23.48.46.93.68,1.35.33.64.63,1.23.9,1.79a11,11,0,0,0,.51,1c.1.23.21.45.32.67l.27.59.19.4.6,1.28a1.91,1.91,0,0,0,.1.23l0,.07v0c-26.16,1.41-48.27-1.06-67-6.08l-24-22.61,10.81,18.44a141.1,141.1,0,0,1-27.18-13.26L86.55,136.24l4.29,21.3C49.35,125,42.56,79,42.56,79l4.34-7.26L51,65C54.32,65.15,57.62,65.43,60.87,65.82Z"/><g class="cls-8"><path class="cls-7" d="M60.87,65.82l1.89.24a1,1,0,0,1,.26,0c.57.07,1.16.16,1.71.24l1.93.28,1.92.32c1.17.2,2.33.42,3.48.65l1.66.34,1.71.37,3.31.79c.88.21,1.76.43,2.63.67l1.58.43,1.45.42,2.32.69c.66.21,1.33.41,2,.64,1.07.35,2.13.72,3.18,1.08s2.1.76,3.15,1.14l2.07.8c.68.27,1.37.54,2,.83,1.37.55,2.71,1.13,4,1.71l2,.9c1,.46,2,.92,3,1.41l1,.48c.64.31,1.29.64,1.94,1s1.27.64,1.9,1c.85.44,1.68.89,2.51,1.35.43.23.84.46,1.27.71,2.29,1.27,4.52,2.61,6.71,4,.22.13.4.26.6.39L99.61,93.53l36.22,3.28a1.45,1.45,0,0,0-.16-.18.58.58,0,0,1,.21.18h0c1.06.79,2.12,1.59,3.15,2.41s2.06,1.62,3.08,2.45l2.9,2.39a.63.63,0,0,0,.12.1c1,.83,2,1.68,2.91,2.5l0,0,2.88,2.58c.94.85,1.86,1.71,2.79,2.6l1.56,1.47q2,1.89,3.85,3.79L137,118.54l29.92,6.8c1.4,1.54,2.75,3.1,4.08,4.65.76.87,1.5,1.76,2.23,2.63,1.15,1.39,2.26,2.76,3.36,4.14.92,1.14,1.83,2.3,2.71,3.44.55.7,1.06,1.39,1.58,2.08l-22-.41L187,150.72l.47.67,1.74,2.54c.59.86,1.14,1.69,1.69,2.53l1.22,1.85c.38.58.77,1.16,1.13,1.74l1.13,1.78q1.65,2.64,3.12,5.06c.42.72.86,1.43,1.26,2.13.31.53.62,1,.91,1.56s.58,1,.86,1.5.63,1.11.93,1.66c.42.71.81,1.41,1.17,2.08l.58,1.07c.44.8.84,1.56,1.23,2.28l1,1.84.21.39c.23.48.46.93.68,1.35.33.64.63,1.23.9,1.79.18.35.34.71.51,1s.21.45.32.67l.27.59.19.4.6,1.28a1.91,1.91,0,0,0,.1.23l0,.07c-1.64-.79-115.35-56.7-162.33-117L51,65C54.32,65.15,57.62,65.43,60.87,65.82Z"/></g></g></g></g></g></svg>