<svg xmlns="http://www.w3.org/2000/svg" viewBox="0 0 252.33 252.35"><defs><style>.cls-1{fill:#3bc680;}.cls-2{fill:#7b4d0f;}.cls-3{fill:#f46b4d;}.cls-4{fill:#41bacc;}</style></defs><g id="Layer_2" data-name="Layer 2"><g id="Layer_1-2" data-name="Layer 1"><path class="cls-1" d="M97.88,97.89v56.57h56.57V97.89Zm7.28,7.11a2.36,2.36,0,0,1-1.69.71,2.4,2.4,0,1,1,2.4-2.4A2.36,2.36,0,0,1,105.16,105Zm39.52,39.69h-37v-37h37Zm6,6.05a2.4,2.4,0,1,1-1.69-4.1,2.42,2.42,0,0,1,2.4,2.4A2.4,2.4,0,0,1,150.64,150.74Z"/><rect class="cls-1" x="111.71" y="111.72" width="28.92" height="28.92"/><rect class="cls-1" x="111.71" y="111.72" width="28.92" height="28.92"/><path class="cls-1" d="M174.21,108.64h0q-.27-.73-.57-1.5a51.4,51.4,0,0,0-28.43-28.43c-.63-.26-1.3-.51-2-.75a51.31,51.31,0,0,0-34.6.17c-.54.19-1,.39-1.5.58A51.37,51.37,0,0,0,78.7,107.12c-.26.64-.51,1.31-.75,2a51.31,51.31,0,0,0,.17,34.6c.19.53.38,1,.58,1.5a51.39,51.39,0,0,0,28.43,28.44c.64.26,1.31.51,2,.74a51.31,51.31,0,0,0,34.6-.17c.5-.18,1-.37,1.5-.57a51.44,51.44,0,0,0,28.44-28.44c.26-.65.51-1.31.74-2a51.34,51.34,0,0,0-.17-34.61Zm-2,19.88H158.23v5.53h13.33a46.77,46.77,0,0,1-1.06,4.69H158.23v5.53h10.31a46.36,46.36,0,0,1-24.28,24.28V158.24h-5.53V170.5a44.77,44.77,0,0,1-4.69,1.07V158.24h-5.53v13.94q-1.17.06-2.34.06c-.79,0-1.57,0-2.35-.06V158.24h-5.53v13.33a46.58,46.58,0,0,1-4.68-1.06V158.24h-5.54v10.31A46.34,46.34,0,0,1,83.8,144.27H94.1v-5.53H81.84a44.77,44.77,0,0,1-1.07-4.69H94.1v-5.53H80.16q-.06-1.17-.06-2.34t.06-2.34H94.1V118.3H80.77a46.58,46.58,0,0,1,1.06-4.68H94.1v-5.54H83.8a46.29,46.29,0,0,1,24.27-24.27v10.3h5.54V81.85a44,44,0,0,1,4.68-1.07V94.11h5.53V80.17c.78,0,1.56-.06,2.35-.06s1.56,0,2.34.06V94.11H134V80.78a44.77,44.77,0,0,1,4.69,1.07V94.11h5.53V83.81a46.34,46.34,0,0,1,24.28,24.27H158.23v5.54h12.26a44,44,0,0,1,1.07,4.68H158.23v5.54h13.94q.06,1.16.06,2.34T172.17,128.52Z"/><rect class="cls-2" x="148.45" y="28.85" width="6.91" height="2.37" transform="translate(83.56 168.98) rotate(-74.99)"/><rect class="cls-2" x="97.03" y="221.14" width="6.91" height="2.37" transform="translate(-140.27 261.82) rotate(-74.99)"/><rect class="cls-2" x="172.53" y="38.76" width="6.91" height="2.37" transform="translate(53.4 172.38) rotate(-60)"/><rect class="cls-2" x="73.1" y="211.2" width="6.91" height="2.37" transform="translate(-145.65 172.49) rotate(-60)"/><rect class="cls-2" x="208.85" y="75.16" width="6.91" height="2.37" transform="translate(-9.73 116.38) rotate(-30)"/><rect class="cls-2" x="36.53" y="174.78" width="6.91" height="2.37" transform="translate(-82.63 43.57) rotate(-30)"/><rect class="cls-2" x="218.87" y="99.2" width="6.91" height="2.37" transform="translate(-18.41 60.96) rotate(-15)"/><rect class="cls-2" x="26.64" y="150.82" width="6.91" height="2.37" transform="matrix(0.97, -0.26, 0.26, 0.97, -38.32, 12.97)"/><rect class="cls-2" x="221.08" y="148.46" width="2.37" height="6.91" transform="translate(18 327.29) rotate(-75)"/><rect class="cls-2" x="28.79" y="97.05" width="2.37" height="6.91" transform="translate(-74.87 103.44) rotate(-75)"/><rect class="cls-2" x="211.17" y="172.55" width="2.37" height="6.91" transform="translate(-46.25 271.9) rotate(-60)"/><rect class="cls-2" x="38.74" y="73.12" width="2.37" height="6.91" transform="matrix(0.5, -0.87, 0.87, 0.5, -46.35, 72.86)"/><rect class="cls-2" x="174.77" y="208.87" width="2.37" height="6.91" transform="translate(-82.59 116.42) rotate(-30)"/><rect class="cls-2" x="75.16" y="36.54" width="2.37" height="6.91" transform="translate(-9.77 43.53) rotate(-30)"/><rect class="cls-2" x="150.73" y="218.89" width="2.37" height="6.91" transform="translate(-52.38 46.91) rotate(-15)"/><rect class="cls-2" x="99.11" y="26.65" width="2.37" height="6.91" transform="translate(-4.37 26.98) rotate(-15)"/><path class="cls-3" d="M111.85,34.37l-7.77,18.2A77.43,77.43,0,0,0,70.73,72.92C50.38,94.16,49.36,120,49.29,126.19H0l34.3-14.66A93,93,0,0,1,56.81,64.36l-7-14.58,14.58,7A91.61,91.61,0,0,1,82.76,44,93,93,0,0,1,111.85,34.37Z"/><path class="cls-3" d="M34.32,140.51l18.2,7.76a77.46,77.46,0,0,0,20.36,33.35C94.12,202,120,203,126.15,203.07v49.28q-7.34-17.15-14.66-34.3a93,93,0,0,1-47.17-22.51l-14.58,7,7-14.57A92,92,0,0,1,44,169.59,93.38,93.38,0,0,1,34.32,140.51Z"/><path class="cls-3" d="M140.48,218l7.77-18.2a77.46,77.46,0,0,0,33.35-20.36C202,158.22,203,132.35,203.05,126.19h49.28L218,140.86A93,93,0,0,1,195.52,188l7,14.58-14.57-7a92.38,92.38,0,0,1-18.4,12.8A93.35,93.35,0,0,1,140.48,218Z"/><path class="cls-3" d="M218,111.85l-18.2-7.77a77.57,77.57,0,0,0-20.36-33.35c-21.24-20.35-47.11-21.37-53.27-21.44V0q7.33,17.15,14.66,34.3A93,93,0,0,1,188,56.81l14.58-7-7,14.58a91.61,91.61,0,0,1,12.81,18.39A93.35,93.35,0,0,1,218,111.85Z"/><path class="cls-4" d="M193.75,126.12a5.72,5.72,0,0,0-.66-.32,64.67,64.67,0,0,0-.41-6.82,5.26,5.26,0,0,0,2.14-2,5.3,5.3,0,0,0-4-7.92A66.91,66.91,0,0,0,184,92.66h0a67.26,67.26,0,0,0-10.66-13.84,5.11,5.11,0,0,0,.46-2.14,5.31,5.31,0,0,0-8.16-4.48A67.29,67.29,0,0,0,160,68.44a6.19,6.19,0,0,0,0-.76,5.32,5.32,0,0,0-5.31-5.31,5.25,5.25,0,0,0-3.8,1.62c-1.65-.66-3.32-1.26-5-1.78A5.31,5.31,0,0,0,136,60c-1.58-.23-3.16-.41-4.76-.53a5.31,5.31,0,0,0-10.13,0c-1.6.12-3.19.29-4.76.53a5.31,5.31,0,0,0-9.92,2.25c-1.7.53-3.38,1.12-5,1.78a5.3,5.3,0,0,0-9.11,3.7,5.87,5.87,0,0,0,0,.74c-2,1.16-3.87,2.42-5.71,3.76a5.31,5.31,0,0,0-8.14,4.49,5.2,5.2,0,0,0,.45,2.12,67.1,67.1,0,0,0-10.79,14h0A67,67,0,0,0,61.49,109a5.18,5.18,0,0,0-2.08.67,5.31,5.31,0,0,0,.2,9.3,67.26,67.26,0,0,0-.4,6.81,4.73,4.73,0,0,0-.68.33,5.31,5.31,0,0,0-1.94,7.26,5.23,5.23,0,0,0,3.29,2.48c.25,1.75.58,3.5,1,5.24a5.31,5.31,0,0,0,3,9.72c.58,1.48,1.22,2.93,1.92,4.38A5.31,5.31,0,0,0,70.84,164q1.35,2,2.84,3.85a5.31,5.31,0,0,0,6.91,7.47c1.31,1.21,2.66,2.37,4,3.46a5.31,5.31,0,0,0,7.76,6,5.6,5.6,0,0,0,.62-.42,64.5,64.5,0,0,0,6.11,3.06,5.3,5.3,0,0,0,9.57,3.36,66.91,66.91,0,0,0,17.55,2.32h0a67,67,0,0,0,17.33-2.31,5.08,5.08,0,0,0,1.62,1.46,5.3,5.3,0,0,0,7.25-1.94,5.24,5.24,0,0,0,.7-2.88,63.16,63.16,0,0,0,6.1-3.06,5.39,5.39,0,0,0,.63.43,5.31,5.31,0,0,0,7.25-2,5.25,5.25,0,0,0,.5-4.1q2.1-1.63,4.06-3.45a5.31,5.31,0,0,0,6.91-7.47c1-1.24,1.93-2.52,2.84-3.85a5.31,5.31,0,0,0,5.07-8.77c.69-1.45,1.34-2.91,1.92-4.39a5.31,5.31,0,0,0,3-9.71c.39-1.74.72-3.49,1-5.24a5.31,5.31,0,0,0,1.34-9.75Zm-5.62-13.05,0-.07a2.42,2.42,0,0,1,3.25-.81l.19.13a2.42,2.42,0,0,1,.7,3.17,1.25,1.25,0,0,1-.09.12,2.4,2.4,0,0,1-3.21.76,1.88,1.88,0,0,1-.23-.16A2.4,2.4,0,0,1,188.13,113.07Zm-19.78-38.8h.18a2.42,2.42,0,0,1,2.4,2.22,1.21,1.21,0,0,1,0,.19,2.41,2.41,0,0,1-2.35,2.41h-.06a2.41,2.41,0,0,1-2.39-2.1,1.62,1.62,0,0,1,0-.31A2.4,2.4,0,0,1,168.35,74.27Zm-14.24-8.91a2.06,2.06,0,0,1,.62-.09A2.4,2.4,0,0,1,157,66.76a2.33,2.33,0,0,1,.19.92A2.39,2.39,0,0,1,155.52,70a2.09,2.09,0,0,1-.79.15,2.4,2.4,0,0,1-2.41-2.42A2.39,2.39,0,0,1,154.11,65.36Zm-14.8-4.83a2.41,2.41,0,0,1,3.71,2,2.42,2.42,0,0,1-1.26,2.12h0a2.45,2.45,0,0,1-1.15.29,2.38,2.38,0,0,1-2-1,2.36,2.36,0,0,1-.46-1.41A2.41,2.41,0,0,1,139.31,60.53Zm-14.78-1.28a2.39,2.39,0,0,1,1.64-.65A2.44,2.44,0,0,1,128.58,61a2.42,2.42,0,0,1-4.83,0A2.36,2.36,0,0,1,124.53,59.25Zm-14.85,2a2.41,2.41,0,0,1,4.45,1.28,2.34,2.34,0,0,1-.45,1.4,2.38,2.38,0,0,1-2,1,2.42,2.42,0,0,1-2.41-2.41A2.34,2.34,0,0,1,109.68,61.28Zm-14.3,5.46a2.41,2.41,0,0,1,2.22-1.47,2.35,2.35,0,0,1,.6.08A2.41,2.41,0,0,1,100,67.68a2.27,2.27,0,0,1-.12.75A2.4,2.4,0,0,1,97.6,70.1a2.24,2.24,0,0,1-.81-.15,2.4,2.4,0,0,1-1.6-2.27A2.47,2.47,0,0,1,95.38,66.74Zm-14,9.71a2.4,2.4,0,0,1,2.39-2.19H84a2.42,2.42,0,0,1,2.26,2.41,1.32,1.32,0,0,1,0,.28,2.4,2.4,0,0,1-2.39,2.13h-.08a2.41,2.41,0,0,1-2.33-2.41A1.64,1.64,0,0,1,81.41,76.45ZM60.7,112.29l.16-.11a2.4,2.4,0,0,1,3.26.83.13.13,0,0,1,0,0,2.4,2.4,0,0,1-.62,3.12,1.51,1.51,0,0,1-.26.18,2.42,2.42,0,0,1-3.2-.74,1.19,1.19,0,0,1-.09-.15A2.39,2.39,0,0,1,60.7,112.29Zm-1.22,20.13a2.64,2.64,0,0,1-.38-.5,2.4,2.4,0,0,1,.17-2.67,2.28,2.28,0,0,1,.71-.63,2.38,2.38,0,0,1,2.77.27,2.23,2.23,0,0,1,.52.62,2.41,2.41,0,0,1-.28,2.8,2.62,2.62,0,0,1-.6.49A2.41,2.41,0,0,1,59.48,132.42ZM66,146.49a2.33,2.33,0,0,1-1,1.1,2.38,2.38,0,0,1-2.31,0,2.43,2.43,0,0,1-1-.93,2.4,2.4,0,0,1,0-2.35,2.42,2.42,0,0,1,3.39-.92h0a2.31,2.31,0,0,1,.82.85A2.39,2.39,0,0,1,66,146.49Zm6,12.87a2.39,2.39,0,0,1-1.14,1.51A2.43,2.43,0,0,1,67.6,160a2.41,2.41,0,0,1,.88-3.29,2.4,2.4,0,0,1,3.29.88A2.39,2.39,0,0,1,72,159.36Zm7.42,13.25a2.46,2.46,0,0,1-1.28.32,2.39,2.39,0,0,1-2-1.21,2.36,2.36,0,0,1-.32-1.31,2.41,2.41,0,0,1,4.5-1.1,2.47,2.47,0,0,1,.32,1.16A2.41,2.41,0,0,1,79.45,172.61ZM91,182.27a2.24,2.24,0,0,1-.91.31,2.43,2.43,0,0,1-2.38-1.19,2.45,2.45,0,0,1-.23-.56A2.41,2.41,0,0,1,91.84,179a2.46,2.46,0,0,1,.28.77A2.4,2.4,0,0,1,91,182.27Zm14.69,7.46-.2.1a2.41,2.41,0,0,1-3.1-1l-.07-.13a2.41,2.41,0,0,1,1-3.16,1.46,1.46,0,0,1,.25-.13,2.41,2.41,0,0,1,3,1l0,.07A2.42,2.42,0,0,1,105.64,189.73Zm44.38-1a1.09,1.09,0,0,1-.08.15,2.4,2.4,0,0,1-3.12,1l-.18-.08a2.41,2.41,0,0,1-.9-3.24.11.11,0,0,1,0-.06,2.41,2.41,0,0,1,3-1,1,1,0,0,1,.28.13A2.41,2.41,0,0,1,150,188.71Zm14.84-7.89a2.09,2.09,0,0,1-.24.58,2.41,2.41,0,0,1-2.4,1.19,2.29,2.29,0,0,1-.89-.3,2.41,2.41,0,0,1,1.69-4.45,2.39,2.39,0,0,1,1.84,3Zm11.26-9.08a2.39,2.39,0,0,1-2,1.2,2.28,2.28,0,0,1-1.28-.32,2.4,2.4,0,0,1-1.21-2.15h0a2.37,2.37,0,0,1,.32-1.14,2.41,2.41,0,1,1,4.18,2.41ZM184.68,160a2.42,2.42,0,0,1-4.18-2.42,2.42,2.42,0,0,1,3.3-.88,2.42,2.42,0,0,1,.88,3.3Zm-1.26-6.46a5.31,5.31,0,0,0-5,8.58c-.81,1.18-1.65,2.33-2.53,3.44a5.31,5.31,0,0,0-6.7,7.23h0c-1.17,1.08-2.37,2.1-3.61,3.08l-.43-.28a5.31,5.31,0,0,0-7.82,5.82c-1.79,1-3.64,1.93-5.51,2.76a5.08,5.08,0,0,0-1.35-1.12,5.33,5.33,0,0,0-7.26,1.94,5.19,5.19,0,0,0-.7,2.44,63.45,63.45,0,0,1-16.31,2.16h0a64,64,0,0,1-16.5-2.16,5.31,5.31,0,0,0-8-4.4,5.17,5.17,0,0,0-1.37,1.12c-1.88-.83-3.71-1.74-5.5-2.75a5.3,5.3,0,0,0-7.82-5.83,4.17,4.17,0,0,0-.44.29q-1.86-1.47-3.6-3.09a5.31,5.31,0,0,0-6.7-7.23c-.88-1.11-1.72-2.26-2.53-3.44a5.31,5.31,0,0,0-5-8.58c-.61-1.29-1.18-2.6-1.7-3.92a5.31,5.31,0,0,0-2.91-9.4h0c-.35-1.55-.63-3.1-.86-4.66.16-.08.31-.15.46-.24a5.31,5.31,0,0,0,1.94-7.25,5.26,5.26,0,0,0-3.07-2.43q0-3.09.37-6.15a5.31,5.31,0,0,0,3.59-7.87,5.27,5.27,0,0,0-1.77-1.83A63.73,63.73,0,0,1,81.31,81.36,5.22,5.22,0,0,0,83.8,82a5.31,5.31,0,0,0,5.31-5.31,5.25,5.25,0,0,0-.29-1.74A60.63,60.63,0,0,1,94,71.54a5.31,5.31,0,0,0,9-3.86,4.84,4.84,0,0,0,0-.53q2.2-.87,4.47-1.57A5.31,5.31,0,0,0,117,63.39c1.41-.2,2.82-.36,4.25-.47a5.31,5.31,0,0,0,9.91,0c1.43.11,2.85.27,4.24.48A5.31,5.31,0,0,0,145,65.58h0c1.52.48,3,1,4.48,1.59a4.36,4.36,0,0,0,0,.51,5.31,5.31,0,0,0,9,3.87q2.65,1.58,5.14,3.39a5.19,5.19,0,0,0-.29,1.73A5.31,5.31,0,0,0,168.53,82a5.21,5.21,0,0,0,2.46-.61,63.93,63.93,0,0,1,10,13h0a64.13,64.13,0,0,1,6.39,15.37,5.31,5.31,0,0,0,.16,9.1,5.53,5.53,0,0,0,1.65.62c.23,2,.35,4.08.38,6.14a5.3,5.3,0,0,0-1.15,9.68q.24.13.48.24c-.23,1.56-.52,3.12-.87,4.67a5.31,5.31,0,0,0-2.92,9.41C184.61,151,184,152.26,183.42,153.55Zm7.14-6.83a2.4,2.4,0,0,1-3.29.89,2.42,2.42,0,0,1-.88-3.3,2.42,2.42,0,0,1,.83-.85,2.39,2.39,0,0,1,2.46,0,2.42,2.42,0,0,1,.88,3.29Zm2.62-14.79a2.15,2.15,0,0,1-.36.48,2.42,2.42,0,0,1-2.93.4,2.25,2.25,0,0,1-.58-.48,2.41,2.41,0,0,1-.3-2.81,2.31,2.31,0,0,1,.53-.63,2.39,2.39,0,0,1,2.76-.26,2.56,2.56,0,0,1,.73.65A2.41,2.41,0,0,1,193.18,131.93Z"/></g></g></svg>