<svg xmlns="http://www.w3.org/2000/svg" viewBox="0 0 293.39 293.41"><defs><style>.cls-1{fill:#3bc680;}.cls-2{fill:#7b4d0f;}.cls-3{fill:#f46b4d;}.cls-4{fill:#41bacc;}</style></defs><g id="Layer_2" data-name="Layer 2"><g id="Layer_1-2" data-name="Layer 1"><path class="cls-1" d="M113.8,113.82v65.77h65.78V113.82Zm8.47,8.27a2.79,2.79,0,1,1-2-4.76,2.8,2.8,0,0,1,2.79,2.79A2.78,2.78,0,0,1,122.27,122.09Zm46,46.14H125.16V125.17h43.06Zm6.93,7a2.75,2.75,0,0,1-2,.82,2.8,2.8,0,0,1-2.79-2.79,2.83,2.83,0,0,1,.82-2,2.78,2.78,0,0,1,2-.82,2.75,2.75,0,0,1,2,.82,2.78,2.78,0,0,1,.82,2A2.75,2.75,0,0,1,175.15,175.26Z"/><rect class="cls-1" x="129.88" y="129.9" width="33.62" height="33.62"/><rect class="cls-1" x="129.88" y="129.9" width="33.62" height="33.62"/><path class="cls-1" d="M202.56,126.32h0c-.21-.57-.43-1.16-.67-1.75a59.75,59.75,0,0,0-33-33c-.73-.3-1.51-.6-2.3-.88a59.75,59.75,0,0,0-40.24.2c-.62.23-1.2.45-1.74.67a59.78,59.78,0,0,0-33.06,33c-.3.74-.59,1.52-.87,2.31a59.75,59.75,0,0,0,.2,40.24c.22.61.45,1.2.67,1.74a59.7,59.7,0,0,0,33.06,33.06c.75.31,1.52.6,2.29.87a59.73,59.73,0,0,0,40.23-.2c.59-.21,1.17-.43,1.75-.67a59.76,59.76,0,0,0,33.06-33.06c.31-.76.6-1.53.87-2.29a59.73,59.73,0,0,0-.2-40.23Zm-2.38,23.11H184v6.44h15.49a50.89,50.89,0,0,1-1.23,5.44H184v6.44h12A53.86,53.86,0,0,1,167.73,196V184H161.3v14.26a53.68,53.68,0,0,1-5.45,1.24V184h-6.43v16.2c-.91.05-1.82.07-2.73.07s-1.81,0-2.72-.07V184h-6.44v15.5a53.49,53.49,0,0,1-5.44-1.24V184h-6.43v12a53.89,53.89,0,0,1-28.23-28.22h12v-6.44H95.15a53.49,53.49,0,0,1-1.24-5.44h15.5v-6.44H93.21c0-.91-.07-1.81-.07-2.72s0-1.82.07-2.73h16.2v-6.43H93.91a53.68,53.68,0,0,1,1.24-5.45h14.26v-6.43h-12a53.84,53.84,0,0,1,28.23-28.23v12h6.43V95.17a50.93,50.93,0,0,1,5.44-1.24v15.49H144V93.22c.91,0,1.82-.07,2.72-.07s1.82,0,2.73.07v16.2h6.43V93.93a53.63,53.63,0,0,1,5.45,1.23v14.26h6.43v-12A53.88,53.88,0,0,1,196,125.67H184v6.43h14.25a48.78,48.78,0,0,1,1.24,5.45H184V144h16.2c0,.91.07,1.82.07,2.73S200.23,148.52,200.18,149.43Z"/><rect class="cls-2" x="172.6" y="33.55" width="8.03" height="2.75" transform="translate(97.16 196.48) rotate(-74.99)"/><rect class="cls-2" x="112.82" y="257.12" width="8.03" height="2.75" transform="translate(-163.1 304.42) rotate(-74.99)"/><rect class="cls-2" x="200.6" y="45.07" width="8.03" height="2.75" transform="translate(62.09 200.43) rotate(-60)"/><rect class="cls-2" x="84.99" y="245.56" width="8.03" height="2.75" transform="matrix(0.5, -0.87, 0.87, 0.5, -169.35, 200.56)"/><rect class="cls-2" x="242.83" y="87.39" width="8.03" height="2.75" transform="translate(-11.31 135.31) rotate(-30)"/><rect class="cls-2" x="42.47" y="203.21" width="8.03" height="2.75" transform="matrix(0.87, -0.5, 0.5, 0.87, -96.07, 50.66)"/><rect class="cls-2" x="254.48" y="115.34" width="8.03" height="2.75" transform="translate(-21.4 70.88) rotate(-15)"/><rect class="cls-2" x="30.97" y="175.36" width="8.03" height="2.75" transform="matrix(0.97, -0.26, 0.26, 0.97, -44.55, 15.08)"/><rect class="cls-2" x="257.05" y="172.62" width="2.75" height="8.03" transform="translate(20.92 380.54) rotate(-75)"/><rect class="cls-2" x="33.47" y="112.84" width="2.75" height="8.03" transform="translate(-87.05 120.27) rotate(-75)"/><rect class="cls-2" x="245.53" y="200.62" width="2.75" height="8.03" transform="translate(-53.77 316.15) rotate(-60)"/><rect class="cls-2" x="45.04" y="85.01" width="2.75" height="8.03" transform="matrix(0.5, -0.87, 0.87, 0.5, -53.9, 84.71)"/><rect class="cls-2" x="203.21" y="242.85" width="2.75" height="8.03" transform="translate(-96.03 135.36) rotate(-30)"/><rect class="cls-2" x="87.39" y="42.49" width="2.75" height="8.03" transform="translate(-11.36 50.61) rotate(-30)"/><rect class="cls-2" x="175.26" y="254.5" width="2.75" height="8.03" transform="translate(-60.9 54.54) rotate(-15)"/><rect class="cls-2" x="115.24" y="30.99" width="2.75" height="8.03" transform="matrix(0.97, -0.26, 0.26, 0.97, -5.09, 31.37)"/><path class="cls-3" d="M130.05,40l-9,21.16A90,90,0,0,0,82.24,84.79C58.58,109.48,57.4,139.56,57.3,146.72H0l39.88-17.05A108.41,108.41,0,0,1,66.05,74.84l-8.16-17,17,8.16A106.38,106.38,0,0,1,96.23,51.15,108.19,108.19,0,0,1,130.05,40Z"/><path class="cls-3" d="M39.91,163.37l21.16,9a90,90,0,0,0,23.67,38.77c24.69,23.66,54.77,24.85,61.94,24.94v57.3q-8.53-19.94-17.05-39.88a108.17,108.17,0,0,1-54.84-26.17l-17,8.16,8.15-17A107,107,0,0,1,51.1,197.19,108.35,108.35,0,0,1,39.91,163.37Z"/><path class="cls-3" d="M163.34,253.49l9-21.16a90,90,0,0,0,38.78-23.67C234.81,184,236,153.89,236.08,146.72h57.31l-39.88,17.05a108.39,108.39,0,0,1-26.17,54.84l8.15,16.95-16.94-8.15a106.67,106.67,0,0,1-21.39,14.89A108.19,108.19,0,0,1,163.34,253.49Z"/><path class="cls-3" d="M253.44,130.05l-21.16-9a90,90,0,0,0-23.67-38.77C183.92,58.58,153.84,57.4,146.68,57.3V0q8.52,19.93,17,39.88a108.41,108.41,0,0,1,54.83,26.17l17-8.16-8.16,17a106.38,106.38,0,0,1,14.89,21.39A108.19,108.19,0,0,1,253.44,130.05Z"/><path class="cls-4" d="M225.28,146.65a6.11,6.11,0,0,0-.77-.38,77.75,77.75,0,0,0-.47-7.93,6.07,6.07,0,0,0,2.47-2.38,6.16,6.16,0,0,0-4.65-9.21,78.13,78.13,0,0,0-7.87-19h0v0h0a78,78,0,0,0-12.39-16.09,6.06,6.06,0,0,0,.53-2.48,6.16,6.16,0,0,0-9.48-5.21A78.83,78.83,0,0,0,186,79.57a6.25,6.25,0,0,0,.06-.87,6.17,6.17,0,0,0-10.6-4.3q-2.86-1.16-5.83-2.07a6.17,6.17,0,0,0-11.54-2.62c-1.82-.28-3.66-.48-5.52-.62a6.18,6.18,0,0,0-11.79,0c-1.86.14-3.71.34-5.53.61a6.17,6.17,0,0,0-11.53,2.62q-3,.92-5.84,2.07a6.17,6.17,0,0,0-10.6,4.31,6.11,6.11,0,0,0,.06.86,76.6,76.6,0,0,0-6.63,4.37,6.08,6.08,0,0,0-3.3-1,6.18,6.18,0,0,0-5.65,8.64,78.64,78.64,0,0,0-12.54,16.33h0a77.89,77.89,0,0,0-7.74,18.79,5.85,5.85,0,0,0-2.42.79,6.16,6.16,0,0,0,.23,10.81c-.29,2.63-.44,5.27-.47,7.92a7.11,7.11,0,0,0-.79.38A6.17,6.17,0,0,0,69.63,158c.29,2,.66,4.07,1.12,6.09a6.17,6.17,0,0,0,3.5,11.3c.68,1.72,1.42,3.41,2.23,5.09a6.18,6.18,0,0,0,5.89,10.21c1,1.54,2.15,3,3.3,4.48a6.17,6.17,0,0,0,8,8.68c1.52,1.41,3.09,2.76,4.71,4a6.17,6.17,0,0,0,9,7,4.91,4.91,0,0,0,.71-.48,77.31,77.31,0,0,0,7.11,3.56,6.06,6.06,0,0,0,.82,3.33,6.18,6.18,0,0,0,8.43,2.26,6.3,6.3,0,0,0,1.87-1.68,78.39,78.39,0,0,0,20.41,2.69h0a77.65,77.65,0,0,0,20.15-2.69,6.07,6.07,0,0,0,1.88,1.71,6.18,6.18,0,0,0,8.43-2.26,6.08,6.08,0,0,0,.82-3.36,74.43,74.43,0,0,0,7.09-3.55,7.25,7.25,0,0,0,.73.5,6.16,6.16,0,0,0,9-7q2.43-1.91,4.72-4a6.17,6.17,0,0,0,8-8.68q1.72-2.16,3.3-4.48a6.18,6.18,0,0,0,5.9-10.2c.8-1.68,1.55-3.38,2.23-5.1a6.17,6.17,0,0,0,3.49-11.29q.71-3,1.14-6.1a6.17,6.17,0,0,0,1.56-11.32Zm-6.54-15.18,0-.08a2.79,2.79,0,0,1,3.77-.94,1.18,1.18,0,0,1,.22.14,2.8,2.8,0,0,1,.82,3.69,1.7,1.7,0,0,1-.1.14,2.81,2.81,0,0,1-3.74.89l-.27-.19A2.8,2.8,0,0,1,218.74,131.47Zm-23-45.12h.2a2.8,2.8,0,0,1,2.79,2.58,1.69,1.69,0,0,1,0,.23A2.79,2.79,0,0,1,196,91.94H196a2.8,2.8,0,0,1-2.78-2.45,2,2,0,0,1,0-.35A2.82,2.82,0,0,1,195.75,86.35ZM179.18,76a2.86,2.86,0,0,1,.73-.09,2.8,2.8,0,0,1,2.58,1.72,2.74,2.74,0,0,1,.22,1.08,2.8,2.8,0,0,1-5.46.88,2.58,2.58,0,0,1-.15-.88A2.8,2.8,0,0,1,179.18,76ZM162,70.38a2.79,2.79,0,0,1,3.9.88,2.81,2.81,0,0,1-1,3.94h0a2.71,2.71,0,0,1-1.33.34,2.78,2.78,0,0,1-2.27-1.16,2.76,2.76,0,0,1-.54-1.64A2.82,2.82,0,0,1,162,70.38Zm-17.18-1.49a2.8,2.8,0,1,1,1.9,4.85,2.8,2.8,0,0,1-2.8-2.8A2.78,2.78,0,0,1,144.79,68.89Zm-17.27,2.37a2.79,2.79,0,0,1,2.38-1.33,2.9,2.9,0,0,1,1.51.44,2.84,2.84,0,0,1,1.3,2.37,2.73,2.73,0,0,1-.54,1.63,2.77,2.77,0,0,1-2.27,1.17,2.69,2.69,0,0,1-1.35-.35,2.8,2.8,0,0,1-1-3.93ZM110.9,77.59a2.81,2.81,0,0,1,2.58-1.69,2.32,2.32,0,0,1,.7.09,2.79,2.79,0,0,1,2.11,2.71,2.57,2.57,0,0,1-.15.87,2.8,2.8,0,0,1-2.66,1.93,2.7,2.7,0,0,1-.94-.17,2.78,2.78,0,0,1-1.86-2.63A2.89,2.89,0,0,1,110.9,77.59ZM94.65,88.89a2.8,2.8,0,0,1,2.78-2.55h.18a2.8,2.8,0,0,1,2.63,2.8c0,.1,0,.21,0,.32A2.81,2.81,0,0,1,97.43,92h-.09a2.79,2.79,0,0,1-2.7-2.79A2.17,2.17,0,0,1,94.65,88.89ZM70.57,130.56l.19-.13a2.81,2.81,0,0,1,3.8,1l0,.06a2.79,2.79,0,0,1-.73,3.63l-.29.2a2.8,2.8,0,0,1-3.72-.86,1,1,0,0,1-.11-.17A2.79,2.79,0,0,1,70.57,130.56ZM69.16,154a2.9,2.9,0,0,1-.45-.58,2.81,2.81,0,0,1,.2-3.1,2.67,2.67,0,0,1,.83-.73,2.78,2.78,0,0,1,3.23.31,3,3,0,0,1,.6.72,2.8,2.8,0,0,1-.33,3.26,2.74,2.74,0,0,1-.7.56A2.79,2.79,0,0,1,69.16,154Zm7.58,16.36a2.75,2.75,0,0,1-1.15,1.29,2.8,2.8,0,1,1-2.8-4.86,2.79,2.79,0,0,1,2.86,0h0a2.88,2.88,0,0,1,1,1A2.79,2.79,0,0,1,76.74,170.32Zm7,15a2.77,2.77,0,0,1-3.54,2A2.71,2.71,0,0,1,78.6,186a2.81,2.81,0,0,1,1-3.83,2.8,2.8,0,0,1,3.82,1A2.71,2.71,0,0,1,83.74,185.29Zm8.64,15.4a2.8,2.8,0,1,1-2.8-4.85,2.73,2.73,0,0,1,1.68-.36,2.78,2.78,0,0,1,2.15,1.38,2.88,2.88,0,0,1,.37,1.34A2.78,2.78,0,0,1,92.38,200.69Zm13.37,11.24a2.67,2.67,0,0,1-1.06.36,2.8,2.8,0,0,1-2.76-1.38,2.09,2.09,0,0,1-.27-.66,2.8,2.8,0,0,1,1.29-3.18,2.54,2.54,0,0,1,.82-.3,2.8,2.8,0,0,1,3,1.34,2.9,2.9,0,0,1,.33.89A2.79,2.79,0,0,1,105.75,211.93Zm17.07,8.67-.23.11a2.79,2.79,0,0,1-3.6-1.13l-.08-.16a2.8,2.8,0,0,1,1.11-3.67,1.59,1.59,0,0,1,.29-.15,2.8,2.8,0,0,1,3.54,1.18.56.56,0,0,1,.05.08A2.8,2.8,0,0,1,122.82,220.6Zm51.61-1.19-.09.18a2.8,2.8,0,0,1-3.63,1.13l-.2-.1a2.8,2.8,0,0,1-1.06-3.77l0-.06a2.81,2.81,0,0,1,3.51-1.18,1.87,1.87,0,0,1,.32.15A2.8,2.8,0,0,1,174.43,219.41Zm17.26-9.16a3,3,0,0,1-.28.67,2.81,2.81,0,0,1-2.79,1.38,2.67,2.67,0,0,1-1-.35,2.79,2.79,0,0,1-1.35-2.95,2.67,2.67,0,0,1,.32-.88,2.81,2.81,0,0,1,3-1.35,3,3,0,0,1,.84.32A2.82,2.82,0,0,1,191.69,210.25Zm13.09-10.57a2.8,2.8,0,0,1-2.34,1.4,2.79,2.79,0,0,1-2.89-2.87h0a2.8,2.8,0,0,1,2.51-2.72,2.76,2.76,0,0,1,1.69.36,2.82,2.82,0,0,1,1.4,2.3A2.72,2.72,0,0,1,204.78,199.68ZM214.73,186a2.74,2.74,0,0,1-1.61,1.27A2.8,2.8,0,1,1,215,184,2.73,2.73,0,0,1,214.73,186Zm-1.47-7.5a6.17,6.17,0,0,0-5.76,10c-.94,1.37-1.93,2.7-2.95,4a6.17,6.17,0,0,0-7.78,8.4h0q-2,1.88-4.2,3.58a5.39,5.39,0,0,0-.5-.33,6.18,6.18,0,0,0-9.1,6.77c-2.08,1.17-4.22,2.24-6.4,3.2a6.07,6.07,0,0,0-1.58-1.29,6.17,6.17,0,0,0-8.43,2.26,6,6,0,0,0-.81,2.83,73.82,73.82,0,0,1-19,2.51h0a74.23,74.23,0,0,1-19.2-2.51,6.11,6.11,0,0,0-.82-2.86,6.2,6.2,0,0,0-10-1,70.62,70.62,0,0,1-6.4-3.19,6.17,6.17,0,0,0-9.09-6.78,5.54,5.54,0,0,0-.51.33c-1.44-1.13-2.84-2.33-4.19-3.58a6.17,6.17,0,0,0-7.79-8.41c-1-1.29-2-2.63-2.94-4a6.17,6.17,0,0,0-5.76-10q-1.08-2.25-2-4.55a6.18,6.18,0,0,0,1.45-7.88A6.12,6.12,0,0,0,74.7,163h0c-.41-1.81-.74-3.61-1-5.43q.27-.12.54-.27a6.17,6.17,0,0,0-1.32-11.26c0-2.39.17-4.78.43-7.15a6.33,6.33,0,0,0,1.91-.71,6.18,6.18,0,0,0,2.26-8.44,6,6,0,0,0-2.05-2.12A74,74,0,0,1,94.54,94.6a6.18,6.18,0,0,0,9.07-5.45,6.22,6.22,0,0,0-.34-2q2.88-2.12,6-4a6.16,6.16,0,0,0,10.41-4.47c0-.21,0-.42,0-.62,1.7-.67,3.44-1.29,5.2-1.83A6.17,6.17,0,0,0,136,73.71c1.64-.24,3.28-.42,4.94-.55a6.17,6.17,0,0,0,11.52,0c1.66.13,3.31.32,4.94.55a6.17,6.17,0,0,0,11.17,2.54h0q2.66.82,5.2,1.85a5.88,5.88,0,0,0,0,.6,6.17,6.17,0,0,0,10.4,4.49c2.06,1.22,4.06,2.54,6,3.94a6.38,6.38,0,0,0-.33,2A6.18,6.18,0,0,0,196,95.32a6,6,0,0,0,2.87-.71,74.11,74.11,0,0,1,11.64,15.15h0a74.6,74.6,0,0,1,7.42,17.87,6.17,6.17,0,0,0,.19,10.58,6.31,6.31,0,0,0,1.92.72q.39,3.56.44,7.14a6.17,6.17,0,0,0-1.34,11.26,4.75,4.75,0,0,0,.55.28c-.26,1.82-.6,3.62-1,5.42a6.17,6.17,0,0,0-3.39,11C214.64,175.52,214,177,213.26,178.54Zm8.31-7.94a2.8,2.8,0,1,1-4.85-2.81,2.71,2.71,0,0,1,1-1,2.77,2.77,0,0,1,2.85,0,2.74,2.74,0,0,1,1.08,1.11A2.83,2.83,0,0,1,221.57,170.6Zm3.05-17.2a3,3,0,0,1-.43.56,2.81,2.81,0,0,1-3.4.46,2.61,2.61,0,0,1-.68-.55,2.8,2.8,0,0,1-.34-3.28,2.53,2.53,0,0,1,.61-.73,2.8,2.8,0,0,1,4.24,3.54Z"/></g></g></svg>