<svg xmlns="http://www.w3.org/2000/svg" viewBox="0 0 639.5 669.3"><defs><style>.cls-1{isolation:isolate;}.cls-2{fill:#fdd6b0;opacity:0.81;}.cls-3{fill:#fab420;}.cls-13,.cls-15,.cls-17,.cls-18,.cls-23,.cls-29,.cls-30,.cls-31,.cls-4{fill:none;}.cls-17,.cls-4{stroke:#353535;}.cls-13,.cls-15,.cls-18,.cls-23,.cls-29,.cls-30,.cls-31,.cls-4{stroke-miterlimit:10;}.cls-5{fill:#ffb873;}.cls-6{fill:#2a875a;}.cls-7{fill:#3bc680;}.cls-8{fill:#fff;opacity:0.2;mix-blend-mode:overlay;}.cls-9{fill:#d9d9ec;mix-blend-mode:multiply;}.cls-10{fill:#ffbe9d;}.cls-11{fill:#fcf4ee;}.cls-12{fill:#353535;}.cls-13{stroke:#ffeed3;}.cls-14{fill:#f46b4d;}.cls-15{stroke:#c72a2a;}.cls-16{fill:#7b4d0f;}.cls-17{stroke-linejoin:round;}.cls-18{stroke:#000001;}.cls-19{fill:#000001;}.cls-20{fill:#ca6535;}.cls-21{fill:#ebe3de;}.cls-22{fill:#929292;}.cls-23{stroke:#929292;}.cls-24{fill:#a05b3b;}.cls-25{fill:#eaeff3;}.cls-26{fill:#cb8875;}.cls-27{fill:#4fc4d0;}.cls-28{fill:#7d4444;}.cls-29{stroke:#7d4444;}.cls-30{stroke:#f46b4d;}.cls-31{stroke:#fff;}</style></defs><g class="cls-1"><g id="Layer_2" data-name="Layer 2"><g id="Layer_2-2" data-name="Layer 2"><path class="cls-2" d="M278.78,419.67c-18.55,41.47-33.38,51.56-45.56,56.91C180.12,499.89,88.73,472,44.23,432-44.16,352.6,9.62,186.75,120.16,163.57c59.82-12.55,130.22,18,165.37,52C344.54,272.61,311.47,346.56,278.78,419.67Z"/><path class="cls-2" d="M278.71,288.86C298,335.12,313.35,346.37,326,352.33c55.11,26,150-5.07,196.16-49.67,91.75-88.61,35.93-273.59-78.82-299.45-62.09-14-135.15,20-171.64,58C210.45,124.84,244.77,207.31,278.71,288.86Z"/><path class="cls-3" d="M412.6,264.91,330.31,284.5a23.4,23.4,0,0,1-28.78-23.9l4.83-100.07a24.77,24.77,0,0,1,19-22.89l79.51-18.93A24.77,24.77,0,0,1,435.35,144l-4.8,99.28A23.39,23.39,0,0,1,412.6,264.91Z"/><path class="cls-4" d="M316.47,149s6.79-1.52,13.14,5.79,13.28,111.38-.37,126.35"/><path class="cls-5" d="M348.76,135.33c-.23-.93-.48-1.82-.72-2.66-1-3.62-2-7-.17-9.84,1.23-1.9,3.39-3,6.81-3.55,8.48-1.29,13.09,6,14.34,10L364,130.89l2.53-.79-2.53.8c-.09-.3-2.39-7.3-8.47-6.38-2.45.38-3,1-3.15,1.19-.51.79.2,3.3.82,5.52.25.9.52,1.84.76,2.82Z"/><path class="cls-6" d="M587.74,563.31a68.08,68.08,0,0,0-78.4-30.11,50.51,50.51,0,0,0-95-2.74,50.42,50.42,0,0,0-9.65-5.68v61.87H639.5a35.05,35.05,0,0,0-51.76-23.34Z"/><path class="cls-7" d="M543.42,571.81a38.3,38.3,0,0,0-13.76,2.46c-9.38-10.52-26.5-17.57-46.08-17.57a78.3,78.3,0,0,0-15.8,1.59c-5.21-10.72-20.21-18.47-37.9-18.47a52.77,52.77,0,0,0-25.23,6.06v40.77H570.52C567.94,578.18,556.78,571.81,543.42,571.81Z"/><path class="cls-8" d="M541.86,571.81a38.21,38.21,0,0,0-13.75,2.46C518.72,563.75,501.6,556.7,482,556.7a78.3,78.3,0,0,0-15.8,1.59c-5.21-10.72-20.2-18.47-37.9-18.47a52.77,52.77,0,0,0-25.23,6.06v40.77H569C566.38,578.18,555.23,571.81,541.86,571.81Z"/><ellipse class="cls-9" cx="404" cy="649.33" rx="95.07" ry="19.96"/><path class="cls-10" d="M449.4,271.65c-41,0-100,2.27-100,2.27a212.23,212.23,0,0,0-4.27,33.15c7.35,2.69,28.48,19.89,37.62,27.5l-8.12,2.63,28.18,15.55c1.89,25.05,7.62,33.45,6.33,51.41-2.15,29.76-12.87,75.09-14,88.16s-1.67,99-1.67,99,11.35,27.29,32.76,16.34c0,0,16.92-92.23,16.47-104.46s13.35-57.52,19.21-89.47S462,301.21,449.4,271.65Z"/><path class="cls-11" d="M433.56,566.08c-9.9,4.7-31,3.21-39.94,2.3-.12,13.28-.18,22.9-.18,22.9s11.35,27.29,32.76,16.34c0,0,3.56-19.37,7.36-41.54Z"/><path class="cls-4" d="M393.44,575.92s22.93,1.76,38.82-2.32"/><path class="cls-4" d="M398.9,606c0-.86.88-28.9.88-28.9"/><line class="cls-4" x1="410.87" y1="611.32" x2="412.93" y2="576.3"/><line class="cls-4" x1="424.62" y1="575.79" x2="421.99" y2="611.32"/><path class="cls-10" d="M346.5,293.79s-1,19.11-1.69,30.88-9.64,23.06-10.23,42.42-5,81.37-9.26,99.53c-4.59,19.63-6.57,35.82-5.66,55.83,1,21.54,16,107.86,16,107.86s7.36,11.66,26.76,0c0,0,5.74-121.23,9.6-134.63s.32-6.82,11-28.22S426.2,318.12,426.2,318.12Z"/><path class="cls-11" d="M364.63,587.15c-14.86.85-35.89,1.88-35.89,1.88,3.59,22.35,6.88,41.28,6.88,41.28s7.36,11.66,26.76,0c0,0,.91-19.2,2.25-43.16Z"/><path class="cls-4" d="M329.57,595.78s20.37.28,34.41-2"/><line class="cls-4" x1="335.99" y1="595.79" x2="340.66" y2="632.12"/><line class="cls-4" x1="346.69" y1="595.79" x2="349.86" y2="631.39"/><line class="cls-4" x1="356.72" y1="594.76" x2="358.03" y2="630.22"/><path class="cls-4" d="M373.9,484.16s-2.65,8.16-15.72,8.16"/><path class="cls-4" d="M445.25,482.16s-2.64,8.16-15.72,8.16"/><path class="cls-12" d="M346.06,298.73s-22.85,69-26.62,138.42c0,0,46.6,21.78,79.25,7.17l6-28-2.58,23.55s56.1,3.28,66.55-4.14c0,0-3.67-111.09-12.23-137C456.39,298.72,388.39,307.55,346.06,298.73Z"/><path class="cls-13" d="M404.65,416.35l8.68-51.44s12.18-10.7,16.2-16.25"/><path class="cls-10" d="M525.94,223.54c4.36-26.32-1.43-52.95-11.4-76.26l-11.87.66L487.15,195c-4.45-3.43-32.93-42.27-32.93-42.27C437.8,133.19,416,134.81,416,134.81c6.4,10.45,17.9,15.51,24.18,18.84h0l-6.32,16.4C442.46,173.89,514.72,264.41,525.94,223.54Z"/><path class="cls-14" d="M408.14,134.36s27-1.9,36.3,6.26,20.48,22.15,20.48,22.15-8.72,13.65-20.71,14.41Z"/><path class="cls-14" d="M454.12,172c-3.86-15.51-28.91-36.66-28-37.24,0,0-7.95.23-35.06-1l-28.78,2.43s-28.52,5.82-43.56,20.39c0,0,1.75,26.81,5.19,43.26l1.91,9.12c2.53,12.08,11.59,34.32,11.59,34.32l-3.72,75.37s73.14,17.93,130.47-1.92c0,0-17.49-75.32-11.88-95.17C456.59,212.91,454.12,172,454.12,172Z"/><path class="cls-5" d="M432.69,139.34c-4.93-4.09-9.18-7.49-20.84-5.54l-4.44.65a93,93,0,0,1,23.13,27.4c9.64,10.06,28.75,37.21,20.58,77.71,7-10.33,12.21-22.37,11.46-41.33C461.62,173.52,447.39,151.56,432.69,139.34Z"/><path class="cls-4" d="M411.85,133.8s26.46,17.34,33.26,48"/><path class="cls-3" d="M336,273.58l-2.65-18.12a4.34,4.34,0,0,1,1.41-4c15.1-13.09,19.4-24.46,20.07-40.21,1.43-33.39-27.85-61.06-27.85-61.06l2.31-3.52c4.55-7.61,14.39-8.58,19.68-1.94,11.12,14,27.74,38.5,25.14,66.79C371,245.43,360.21,259.64,336,273.58Z"/><path class="cls-4" d="M329.24,146.71s65,52.7,4.91,113.73"/><line class="cls-15" x1="332.83" y1="231.33" x2="326.4" y2="211.37"/><path class="cls-16" d="M453.66,617.71l-16.91-12-42.86-.66s1.27,6.52-2.44,35.43l6.7.12v-2.18h8.14v2.31l9.13.16v-2.47h8.14V641l9.13.16v-2.77h8.14v2.91l9.13.15v-3.06h8.14v3.2l11.87.07S472.19,624.61,453.66,617.71Z"/><path class="cls-16" d="M392.43,587.73s29.61-1.67,39.24.64l5.08,17.34s-35.74,5.22-42.55,3Z"/><path class="cls-16" d="M417,596.91l-10.1-12s6.58-7,23.2-1.91l3.5,12Z"/><polyline class="cls-4" points="461.86 634.69 413.38 634.69 392.43 633.56"/><path class="cls-17" d="M430.9,614.32c4.94-5.87,7.82-7,7.82-7s-6.53-6.3-14.1-8.3a19.84,19.84,0,0,1,9.71-5.73"/><path class="cls-17" d="M446.45,612.59a32.93,32.93,0,0,0-19.75-5.93,60.81,60.81,0,0,1,8.12-7.4s-8-5.84-12.83-6"/><path class="cls-17" d="M414.36,619.36c-.77,4.94-4.31,8.48-7.89,7.92s-5.86-5-5.08-10,4.31-8.48,7.89-7.91S415.14,614.42,414.36,619.36Z"/><path class="cls-10" d="M318.75,159h0c-9.75,9.46-11,17.87-14.39,26.07-11.8,28.63-32,65.5-32,65.5l40.27,22.06,36.67-68.11S358.22,169.64,318.75,159Z"/><path class="cls-10" d="M290.62,230.19s49.16,6.91,71.57,4.69l-7.8,25.56s-8.67,2.83-24.48,10.35c-27.91,13.29-51.83,17.08-60.55,2.7C258.82,256.1,290.62,230.19,290.62,230.19Z"/><path class="cls-4" d="M333,234.6s-27.37-10-46.15,9.67"/><path class="cls-14" d="M318.75,156.62s-26.31,29.54-36.33,64.73c0,0,32.28,14.38,59.2,8.84C341.62,230.19,372.66,171.8,318.75,156.62Z"/><line class="cls-4" x1="334.9" y1="231.33" x2="342.99" y2="206.69"/><path class="cls-16" d="M387,642.39,377,629.5l-39.25-.67s-5.44,7-9.43,38l7.2.12v-2.33h8.75v2.48l9.81.17v-2.65h8.75v2.8l9.81.17v-3h8.75v3.12l9.81.17v-3.29H400v3.44l4.6.07S407,649.81,387,642.39Z"/><path class="cls-16" d="M330.43,610.19s32.22-1.79,42.57.7l4,18.61s-33.88,5.61-41.21,3.23Z"/><path class="cls-16" d="M356.48,620l-10.86-12.9s11.45-7.86,29.32-2.41L374.33,618Z"/><polyline class="cls-4" points="404 660.64 351.9 660.64 329.38 659.43"/><path class="cls-17" d="M364.55,641.1c5.31-6.31,14.58-9.86,14.58-9.86s-7-6.77-15.15-8.92a21.3,21.3,0,0,1,10.43-6.16"/><path class="cls-17" d="M384.46,639.07c-10-7.21-19-7.83-19-7.83a80,80,0,0,1,9.52-8.68s-8.62-6.27-13.79-6.4"/><path class="cls-17" d="M351.92,645.07c-.83,5.31-4.63,9.12-8.48,8.51s-6.3-5.4-5.46-10.7,4.63-9.12,8.49-8.51S352.76,639.77,351.92,645.07Z"/><path class="cls-10" d="M390,132h0c7,10.91-5.76,12.2-15,10.15a23.31,23.31,0,0,1-5.9-2.24l-6.81-3.63-4-42.21L383,89.22Z"/><path class="cls-10" d="M398,68.78c-17.57-56-93.67-15.51-52,26.84,5.64,21.24,15.33,25.74,26.19,27.94C407.3,129.82,402.72,81,398,68.78Z"/><path class="cls-10" d="M350.5,94.39c3.21,5.81,2.49,12.24-1.59,14.36s-10-.88-13.2-6.69-2.49-12.24,1.59-14.36S347.3,88.58,350.5,94.39Z"/><path class="cls-18" d="M339.26,94.77s3.77-3.46,7.46,1.31c0,0-6.38,4.14-.92,6.17"/><path class="cls-18" d="M383.48,78.26s-.13.85,3.74,4.84c1.58,1.64-.81,6-5.92,6.77"/><path class="cls-19" d="M367.68,85c.4,1.34,1.35,2.24,2.13,2s1.09-1.51.7-2.85-1.36-2.24-2.14-2S367.28,83.64,367.68,85Z"/><path class="cls-19" d="M391.26,80.75c.39,1.32,1.33,2.2,2.1,2s1.07-1.48.68-2.8-1.33-2.2-2.1-2S390.87,79.43,391.26,80.75Z"/><path class="cls-20" d="M371.79,72.36c-1.63-1.4-8.77,2.51-9.06,2.72-2.19,1.57-1.22,3.06-.84,3.55.23.29,1-.26,3.13-1,4.44-1.57,6.46-1.11,7.17-2.59A2.44,2.44,0,0,0,371.79,72.36Z"/><path class="cls-20" d="M387.9,71.12c.83-1.37,6,.22,6.27.34a2.77,2.77,0,0,1,1.46,3.16c-.1.27-.74-.05-2.27-.31-3.24-.57-4.51.11-5.25-1A2.3,2.3,0,0,1,387.9,71.12Z"/><path class="cls-16" d="M383.48,91.35S372.54,88.9,369.09,96c0,0-10.91-1.47-15.23-5.08s-7-2.25-7-2.25,6.35,15.47,3.56,19c0,0-2.63,21.37,16.46,25.06s29.93.48,39.11-8.55-4.77-39.56-4.77-39.56-2.41,6.46-4.93,6.76C396.29,91.32,392.21,83.88,383.48,91.35Z"/><path class="cls-16" d="M351.61,94.31s-1.11-17.85-4.75-26.48c0,0,25.25-2.21,28.76-3.21S372.76,60,372.76,60s13.42,4.41,23.53-2-.51-30.29-16.36-27.68S346.39,48.17,335.2,54.59s2.1,33.11,2.1,33.11S349.34,89,351.61,94.31Z"/><path class="cls-4" d="M356,92.25s.92,8,2.35,14.27,13.28,16.66,10.78,26.55"/><path class="cls-4" d="M364.54,95.13s.23,8.8,2.34,11.39,15.69,15.54,17.69,27.28"/><path class="cls-4" d="M380.78,103.86a16,16,0,0,0,5.05,7.69c4.07,3.48,8.47,16.75,8.38,19.57"/><path class="cls-4" d="M392.07,98.66s0,5.82,3.65,8.6,9.06,14.27,7.63,19.25"/><path class="cls-4" d="M399.33,89.22s-.39,5.09,1.47,9c2.79,5.87,7.62,12,8.26,17.85"/><path class="cls-4" d="M368.44,97.91s9.55,15.82,17.76-1.75c0,0,9.52,8.29,11.47-1.85"/><path class="cls-4" d="M336.71,60.64S359,43,375.19,37.61s19,19.42,19,19.42"/><path class="cls-4" d="M336.71,60.64S369,43.72,378.12,50.1s9.38,11.06,9.38,11.06"/><path class="cls-4" d="M336.71,63.14s26.19-10.59,32.38,2.47"/><path class="cls-11" d="M370.22,163.86l39.28-19.22,39.15,2.41,30.72-21.67s33.74-12.22,33.69-13.83l1.8,171.14-24.73,4.25-31.89,19.25H416.85l-42.42,9.61Z"/><polygon class="cls-21" points="370.22 163.87 409.5 144.64 416.85 306.19 374.43 315.81 370.22 163.87"/><polygon class="cls-21" points="479.37 125.38 490.13 286.94 458.24 306.19 448.65 147.04 479.37 125.38"/><path class="cls-10" d="M362.19,234.88l9.62-13.53a73.17,73.17,0,0,0,2.55,13.74L387,231.7s14.41,10.52-5.74,28.67l-26.91.07S336.15,240.08,362.19,234.88Z"/><path class="cls-10" d="M384.57,232.35s16-6.71,17.7-7.57c7.72-3.92,11.08,1.39,7.24,3.28l-24.33,12Z"/><path class="cls-10" d="M389.94,245.33s23.05-9.23,24.13-10.89c1.91-2.92-2.78-4.72-7.69-2.67-7.57,3.17-23.51,8.55-23.51,8.55Z"/><path class="cls-10" d="M386.88,254.33s27.13-8.24,26.05-12.66c-.74-3-5.41-1-10,.62-7.15,2.48-22.11,6.43-22.11,6.43Z"/><path class="cls-10" d="M381.3,260.37s15.95-1.76,20.21-3.95c1.53-.78.08-4.78-6.37-3.14s-21.4.45-21.4.45Z"/><path class="cls-10" d="M372.58,227.29s2.16,10,13,5.11l-15,8.7Z"/><path class="cls-10" d="M513.57,133.52s0,4.1-5.63,10.3-10,14.3-6.87,15.43,12.95-9.6,12.95-9.6S522.68,136.29,513.57,133.52Z"/><path class="cls-10" d="M515.58,143.82s0,4.1-5.62,10.3-6.18,11.06-3.08,12.18S516,160,516,160,524.7,146.59,515.58,143.82Z"/><path class="cls-10" d="M516.8,154.57s0,2.9-4,7.28-4.37,7.82-2.17,8.61,6.46-4.49,6.46-4.49S523.25,156.53,516.8,154.57Z"/><path class="cls-10" d="M513.91,128.88s-1.46,3.83-9,7.59-9.74,8.08-7.25,10.25,10.82-2.63,10.82-2.63S521.42,134.75,513.91,128.88Z"/><path class="cls-4" d="M516,134.86s-3.65,7.34-8.09,9"/><path class="cls-4" d="M516.53,144.64s-3.07,6.3-5.73,8.52"/><path class="cls-4" d="M517.74,155.68s-1.19,4.58-4.24,7"/><path class="cls-22" d="M423.58,280.54l7.77-.3a.77.77,0,0,0,0-1.54h0l-7.77.3a.77.77,0,0,0,0,1.54Zm15.54-.6,7.77-.3a.78.78,0,0,0,.74-.8.73.73,0,0,0-.8-.74l-7.77.3a.77.77,0,0,0,0,1.54Zm15.54-.6,1.94-.07,5.49-2.8a.77.77,0,0,0-.72-1.37l-5,2.63-1.76.07a.77.77,0,0,0-.74.8.76.76,0,0,0,.77.74ZM469,272.85l6.89-3.61a.77.77,0,0,0-.72-1.37l-6.88,3.62a.76.76,0,0,0-.33,1,.78.78,0,0,0,.68.41A.74.74,0,0,0,469,272.85Zm13.77-7.23,6.05-3.17.83-.42a.77.77,0,0,0-.69-1.37l-6.91,3.6a.77.77,0,0,0,.36,1.45A.8.8,0,0,0,482.74,265.62Zm13.6-7.76a28.84,28.84,0,0,0,5.66-5.58.77.77,0,1,0-1.23-.93,27.26,27.26,0,0,1-5.37,5.29.78.78,0,0,0-.15,1.08.79.79,0,0,0,.62.3A.76.76,0,0,0,496.34,257.86Zm8.79-13.09v-.18c0-2.57-1.36-4.71-4.29-6.74a.77.77,0,1,0-.88,1.26c2.48,1.72,3.63,3.46,3.63,5.48v.14a.76.76,0,0,0,.75.79h0A.77.77,0,0,0,505.13,244.77Zm-10.91-9.57a.78.78,0,0,0-.4-1c-2.09-.9-4.44-1.84-7.07-2.88l-.34-.07a.77.77,0,0,0-.22,1.53l.13,0c2.48,1,4.82,1.91,6.89,2.81a.8.8,0,0,0,.3.06A.76.76,0,0,0,494.22,235.2ZM479.33,231a.77.77,0,0,0-.65-.87L471,229a.77.77,0,0,0-.22,1.53l7.72,1.1h.11A.77.77,0,0,0,479.33,231Zm-15.43-2.21a.77.77,0,0,0-.66-.87l-7.72-1.11a.77.77,0,1,0-.22,1.52l7.72,1.11h.12A.78.78,0,0,0,463.9,228.79Zm-15.31-2.85a.77.77,0,0,0-.46-1,69.41,69.41,0,0,1-7.05-3.07.77.77,0,1,0-.69,1.38,72.6,72.6,0,0,0,7.21,3.14.86.86,0,0,0,.27,0A.76.76,0,0,0,448.59,225.94Zm-14-6.71a.78.78,0,0,0-.26-1.06c-2.3-1.38-4.47-2.8-6.45-4.24a.77.77,0,1,0-.91,1.25c2,1.46,4.23,2.91,6.56,4.31a.73.73,0,0,0,.4.11A.76.76,0,0,0,434.57,219.23Zm-12.63-9.07a.76.76,0,0,0,0-1.09c-2.41-2.31-3.88-4.34-4.25-5.88a.77.77,0,0,0-1.5.37c.45,1.85,2,4.08,4.68,6.62a.76.76,0,0,0,.54.22A.75.75,0,0,0,421.94,210.16ZM421,197.75a31.47,31.47,0,0,1,6.86-3.2.77.77,0,0,0,.47-1,.76.76,0,0,0-1-.47,32.76,32.76,0,0,0-7.2,3.36.78.78,0,0,0-.22,1.07.79.79,0,0,0,.65.34A.81.81,0,0,0,421,197.75Zm14.25-5.35c2.28-.57,4.82-1.11,7.56-1.63a.77.77,0,0,0-.29-1.52c-2.76.53-5.33,1.08-7.64,1.65a.78.78,0,0,0-.57.93.79.79,0,0,0,.75.59Zm15.2-2.94.92-.15s2.72-.82,6.64-2.15a.78.78,0,0,0,.49-1,.77.77,0,0,0-1-.48c-3.86,1.31-6.52,2.11-6.49,2.11h0l-.82.13a.77.77,0,0,0,.12,1.53Zm14.92-4.93c2.56-1,5-1.92,7.26-2.87a.78.78,0,0,0-.6-1.43c-2.24,1-4.66,1.91-7.21,2.86a.77.77,0,0,0,.27,1.49A.69.69,0,0,0,465.38,184.53Zm14.3-6.07c1.19-.59,2.35-1.2,3.43-1.81a.77.77,0,1,0-.75-1.34c-1.06.6-2.2,1.19-3.37,1.77a.77.77,0,0,0-.35,1,.78.78,0,0,0,.69.43A.85.85,0,0,0,479.68,178.46Z"/><line class="cls-23" x1="497.05" y1="170.09" x2="491.27" y2="180.91"/><line class="cls-23" x1="498.8" y1="179.5" x2="489.52" y2="171.49"/><line class="cls-4" x1="402.58" y1="274.82" x2="395.35" y2="284.72"/><line class="cls-4" x1="403" y1="284.39" x2="394.93" y2="275.16"/><path class="cls-12" d="M478.64,178.11a.78.78,0,0,0,.69.43.85.85,0,0,0,.35-.08c1.08-.54,2.12-1.08,3.11-1.63l-.1-1.61a.74.74,0,0,0-.33.09c-1.06.6-2.2,1.19-3.37,1.77A.77.77,0,0,0,478.64,178.11Z"/><path class="cls-12" d="M468.61,272.94a.74.74,0,0,0,.36-.09l6.89-3.61a.77.77,0,0,0-.72-1.37l-6.88,3.62a.76.76,0,0,0-.33,1A.78.78,0,0,0,468.61,272.94Z"/><path class="cls-12" d="M458,187.16a.78.78,0,0,0,.49-1,.77.77,0,0,0-1-.48c-3.57,1.21-6.08,2-6.42,2.09l.09,1.55.18,0S454.1,188.49,458,187.16Z"/><path class="cls-12" d="M473.05,180.65a.78.78,0,0,0-1-.42c-2.24,1-4.66,1.91-7.21,2.86a.77.77,0,0,0,.27,1.49.69.69,0,0,0,.28-.05c2.56-1,5-1.92,7.26-2.87A.78.78,0,0,0,473.05,180.65Z"/><path class="cls-12" d="M488.39,260.93,482,264.26a.77.77,0,0,0,.36,1.45.8.8,0,0,0,.36-.09l5.76-3Z"/><path class="cls-12" d="M478.57,231.66a.77.77,0,0,0,.11-1.53L471,229a.77.77,0,0,0-.22,1.53l7.72,1.1Z"/><path class="cls-12" d="M486.41,231.23a.77.77,0,0,0-.22,1.53l.13,0,.2.08-.1-1.64Z"/><path class="cls-12" d="M462.09,276.47a.77.77,0,0,0-.72-1.37l-4.85,2.55.09,1.61Z"/><path class="cls-12" d="M455.52,226.81a.77.77,0,1,0-.22,1.52l7.72,1.11h.12a.78.78,0,0,0,.76-.66.77.77,0,0,0-.66-.87Z"/><path class="cls-12" d="M410.41,281a.77.77,0,0,1,0-1.54l3.85-.15a.74.74,0,0,1,.8.74.78.78,0,0,1-.74.8l-3.85.15Z"/><polygon class="cls-20" points="421.47 175.74 430.94 175.74 426.2 186.07 421.47 175.74"/><polygon class="cls-24" points="469.97 251.26 479.44 251.26 474.71 261.58 469.97 251.26"/><path class="cls-16" d="M209.11,112.92c4.65-4.76,20.3-5.47,29.64-3.3,17.11,4,23.55,20.22,19.06,43.59-2.11,11-5.82,27-3.72,40.39,1.44,9.25,5.69,16.59,3.77,17.86-1.69,1.11-7-3.29-10.64-7.56-10.81-12.62-22.49-11.5-23.4-29.19-1.55-30.13-.86-44-5-44.36a24.36,24.36,0,0,1-9.73-2.92c-2.54-1.4-3.71-4.92-3.52-7.73C205.64,119,205.91,116.2,209.11,112.92Z"/><path class="cls-4" d="M217.87,121.82s23.37-4,24.4,7-4.43,62.69,11.69,80.46"/><path class="cls-4" d="M216.16,126.14s10.32-2.13,13.07,5.76-1.59,49,3.15,56.46"/><path class="cls-14" d="M157.3,206.13l65.68,19A18.92,18.92,0,0,0,247.16,207v-2.65a20,20,0,0,0-14.45-19.23l-63.47-18.39A20,20,0,0,0,143.64,186v2A18.92,18.92,0,0,0,157.3,206.13Z"/><ellipse class="cls-4" cx="233.02" cy="207.63" rx="12.09" ry="14.86"/><path class="cls-3" d="M145,303.1l65.68,19A18.91,18.91,0,0,0,234.89,304V223a20,20,0,0,0-14.45-19.23L157,185.33a20,20,0,0,0-25.6,19.23v80.37A18.93,18.93,0,0,0,145,303.1Z"/><path class="cls-20" d="M195.71,199.47c.22-.74.46-1.44.68-2.12,1-2.88,1.88-5.6.53-7.93-.92-1.59-2.62-2.59-5.36-3.14-6.8-1.37-10.81,4.34-12,7.55l4,1.47-2-.74,2,.74c.08-.23,2.21-5.79,7.09-4.81,2,.39,2.4.92,2.49,1.08.38.66-.29,2.66-.88,4.42-.23.72-.48,1.47-.72,2.25Z"/><ellipse class="cls-25" cx="119.08" cy="657.08" rx="102.74" ry="11.41"/><path class="cls-26" d="M155.06,355.61S162,510,180.45,517.87c0,0,4.48,70.07-3.44,123.23,0,0,8.81,6,22.3-2.58,0,0,33.5-89.95,9.89-139.54,0,0,19.54-123.87,3-153S155.06,355.61,155.06,355.61Z"/><path class="cls-26" d="M86.9,485.33c7.61-24.77,7.45-88.24,34.78-149.43l72.57,8.2s-15.73,57.7-70.12,152.48c0,0,1.8,27.92-8.12,43.71-29.21,46.54-27.67,66.82-38.48,93-4.46.9-6.4,7-18.55,3.59C58.82,596.52,69.94,540.52,86.9,485.33Z"/><path class="cls-16" d="M38.1,637.22l12.68-9,27.36-.46s3.79,4.85,6.57,26.51l-5,.09v-1.63h-6.1v1.73l-6.84.12v-1.85h-6.1v2l-6.84.11v-2.07H47.72v2.18l-6.85.11v-2.29H34.78v2.4l-8.89.05S24.22,642.39,38.1,637.22Z"/><path class="cls-16" d="M84,614.76s-22.19-1.25-29.4.48l-3.8,13s23.61,3.92,28.72,2.25Z"/><path class="cls-16" d="M65.6,621.64l7.57-9s-4.93-5.23-17.39-1.43l-2.62,9Z"/><polyline class="cls-4" points="31.96 649.94 68.28 649.94 83.98 649.1"/><path class="cls-17" d="M55.15,634.69c-3.7-4.41-5.85-5.24-5.85-5.24s4.89-4.72,10.56-6.22a14.8,14.8,0,0,0-7.27-4.29"/><path class="cls-17" d="M43.5,633.39a24.65,24.65,0,0,1,14.8-4.45,46.2,46.2,0,0,0-6.08-5.54s6-4.37,9.61-4.46"/><path class="cls-17" d="M67.54,638.46c.59,3.7,3.24,6.35,5.92,5.93s4.39-3.76,3.81-7.46S74,630.57,71.35,631,67,634.76,67.54,638.46Z"/><path class="cls-12" d="M188.9,299.48s24.65,38.71,27.06,57.11l-105.22,8s.48-21.16,11.31-55C122.05,309.61,155,319.45,188.9,299.48Z"/><path class="cls-26" d="M227.43,224.93h0c3.26,2.29,6.74,5,7.62,8.91,7.57,33.41,30.34,65.64,30.34,65.64L233.49,317l-29.05-54S189.64,233.06,227.43,224.93Z"/><path class="cls-26" d="M169.45,234.24s-17.85-38.38-32.33-36.42a95,95,0,0,0-15.49,3.81l10-47.39a23.33,23.33,0,0,1-16-1.41L92,220.64A4.44,4.44,0,0,0,93,224.79l41.61,9.08Z"/><path class="cls-26" d="M114.72,160.78V149.32l22.71,8.6,2.3,1.35S127.88,171.28,114.72,160.78Z"/><path class="cls-4" d="M152.64,284.18S170,293,183.91,277.64"/><path class="cls-27" d="M135.28,198.18s72-15.57,99.54,35l-1.56-.08c-9.3,1.14-23.86,10.22-29.84,21.72h0s-3.27,46.93-21.83,64.44c0,0-34.56,20.79-62.16-11.08,0,0-7.48-46,3.15-77.71Z"/><path class="cls-3" d="M193.11,302.71l5.08-12.48a3,3,0,0,0-.53-3.1c-10.15-11.71-11.87-20.65-10-32.3,3.93-24.69,31.34-40.49,31.63-40.66L218,211a10,10,0,0,0-15.53-4.15c-11.06,8.69-28.16,24.39-30.37,45.51C169.45,277.64,175.73,289.11,193.11,302.71Z"/><path class="cls-4" d="M215.76,207.63s-52.41,36.08-28.24,77.2"/><path class="cls-26" d="M162.79,181.55l-1.55,13.82s-10.29,5.49-6.39,9.33,13.86,9.26,34.1-3.2l3.16-40.72Z"/><path class="cls-26" d="M183.45,106.15c-38.21-10.5-43,34.24-43.21,35.34-3.82,20.47,5.81,46,15.19,46.73,28.43,2.29,34.32-25.61,34.32-25.61.71-1.65,12.91-17.77,13.38-19.54C208.69,122.24,205.78,112.28,183.45,106.15Z"/><path class="cls-16" d="M154.09,117.38s2.72,24.1,36.68,27.47l-.56,8.14.43,23.64c-1.55,15.84,31.28-6.62,26.81-47.86-23.32-49.83-71.25-30.2-79.23-17.85-9.13,14.13,4.52,20.06,3.47,23.17C141.69,134.09,144,122.67,154.09,117.38Z"/><path class="cls-12" d="M164.61,151.31c-.28,1.2-1.08,2.05-1.78,1.88s-1.05-1.27-.76-2.48,1.08-2.05,1.78-1.88S164.89,150.1,164.61,151.31Z"/><path class="cls-12" d="M145.32,149.59c-.26,1.1-1,1.87-1.63,1.71s-.95-1.16-.69-2.25,1-1.87,1.62-1.72S145.57,148.49,145.32,149.59Z"/><path class="cls-12" d="M183.13,174.71a29.25,29.25,0,0,1-21.08,13.5l-.81,7.16C176.8,193.38,183.13,174.71,183.13,174.71Z"/><path class="cls-26" d="M202.86,165.16c-1.82,5.8-7.54,9.17-12.78,7.53s-8-7.68-6.2-13.49,7.55-9.17,12.79-7.52S204.68,159.36,202.86,165.16Z"/><path class="cls-4" d="M151.07,148.31s-1.19,6.64-4,8.27-1,5.08,3,5.9"/><path class="cls-28" d="M142.71,140.42a2.62,2.62,0,0,1,3.16-.33c1.24.69,2,2.38,1.62,2.89s-1-.29-2.91-.37c-1.66-.07-2.57.38-2.74-.21S142.21,140.94,142.71,140.42Z"/><path class="cls-28" d="M163.66,141.39c1.7-.94,3.78.64,4,.84,1.52,1.19,2.34,3.26,1.89,3.69s-1.21-.68-3.68-1.49c-2.09-.7-3.28-.56-3.45-1.25S163,141.76,163.66,141.39Z"/><path class="cls-29" d="M154.09,117.38s-3,12.08,6.83,20.71"/><path class="cls-4" d="M154.84,116.77a22,22,0,0,1,7.92-10c11.21-7.46,29.91-5.83,46.71,9.44"/><path class="cls-4" d="M156.58,118.47s26.53,18.09,56.61,6.36"/><path class="cls-4" d="M156.12,120.27S179.37,154,217.4,134.16"/><path class="cls-4" d="M145.6,105.11s-7.09,12.4,6.94,12.33"/><path class="cls-29" d="M216.16,141.64s-5,51.8-24.11,38.91"/><path class="cls-5" d="M206.72,112.15s17.65,5.91,11,23.45C217.74,135.6,215.2,128.14,206.72,112.15Z"/><polyline class="cls-30" points="155.33 438.26 142.16 398.87 126.98 382.93"/><path class="cls-16" d="M164.91,648l7-9,27.36-.47s3.79,4.85,6.57,26.52l-5,.08v-1.62h-6.1v1.73l-6.84.11v-1.84h-6.1v2l-6.84.12v-2.07h-6.1v2.17l-6.84.12v-2.29h-6.1v2.39l-3.2.06S151,653.16,164.91,648Z"/><path class="cls-16" d="M204.38,625.54s-22.46-1.24-29.68.49l-2.79,13s23.61,3.91,28.72,2.25Z"/><path class="cls-16" d="M186.21,632.41l7.57-9s-8-5.48-20.43-1.68l.42,9.27Z"/><polyline class="cls-4" points="153.09 660.72 189.41 660.72 205.11 659.87"/><path class="cls-17" d="M180.59,647.09c-3.7-4.4-10.16-6.87-10.16-6.87S175.32,635.5,181,634a14.8,14.8,0,0,0-7.28-4.29"/><path class="cls-17" d="M166.72,645.68A28.28,28.28,0,0,1,180,640.22a56.39,56.39,0,0,0-6.64-6.05s6-4.37,9.61-4.46"/><path class="cls-17" d="M189.39,649.86c.58,3.7,3.23,6.36,5.92,5.93s4.39-3.76,3.8-7.46-3.23-6.35-5.91-5.93S188.81,646.16,189.39,649.86Z"/><path class="cls-26" d="M251,283.35s-33.26,5.62-51,3.86l6.13,21.87s1.23.48,13.75,6.44c22.11,10.53,41.07,13.53,48,2.13C276.16,303.88,251,283.35,251,283.35Z"/><path class="cls-26" d="M194.25,310.78c.94.08,10.91-.35,11.83-1.7,1.21-1.76,11-19-11.3-23.53-6.74-1.37-11-.45-12.55,0-7.64,2.48-3.14,5.92-3.14,5.92s-3.82,1-3.32,4.07c.63,3.82,5.95,2.24,5.95,2.24a3.13,3.13,0,0,0-1.75,4.39c1.1,2.74,5.32,1.81,6,2.07,0,0-3.39,2.91,2.05,4.88C192.31,310.71,191.05,310.52,194.25,310.78Z"/><path class="cls-26" d="M202.7,288.59s-5.95-4.21-8.27-10.69c-3.21-8.95-5.68-10.1-6.7-7.12a9.79,9.79,0,0,0,.11,7.19c2.29,4.64-3.11,8.35-3.11,8.35S200.54,290.56,202.7,288.59Z"/><path class="cls-4" d="M218.84,287.15s20.24-8.27,35.12,7.36"/><line class="cls-4" x1="179.38" y1="291.18" x2="187.52" y2="291.34"/><line class="cls-4" x1="181.72" y1="297.82" x2="188.79" y2="297.98"/><line class="cls-4" x1="185.98" y1="304.28" x2="190.59" y2="304.29"/><path class="cls-12" d="M108.29,160.57l37.42-2.78c2.95-4.06.86-13.19.86-13.19l-37.79-7h0c1.33,7.6,1.5,15.52-.49,22.93Z"/><ellipse class="cls-12" cx="108.29" cy="149.07" rx="3.96" ry="11.5"/><path class="cls-31" d="M109.15,142.07a16.82,16.82,0,0,1-.52,14.61"/><path class="cls-26" d="M136.42,143.51c.23-.22,3.64-1.77,3.38-2.08-3-3.49-25.16-8.05-28.6-5.6a3,3,0,0,0-1.37,3.49c1,2.54,5.42,2.2,5.42,2.2s.32,1.31,3.32,1.92c3.74.75,2.32-.93,2.32-.93s-.8,1.89,1.81,3a4.67,4.67,0,0,0,4.18-.34s.83,1.43,4.71,1S135.62,144.26,136.42,143.51Z"/><polyline class="cls-4" points="126.88 145.15 128.45 142.15 132.12 140.55"/><polyline class="cls-4" points="120.72 143.54 122.3 140.54 125.97 138.94"/><polyline class="cls-4" points="115.2 141.56 116.6 138.76 120.27 137.16"/><path class="cls-26" d="M130.42,156.57c-.23,1.84,2.09,3.65,5.2,4.05s5.81-.77,6-2.61-2.09-3.65-5.19-4S130.66,154.73,130.42,156.57Z"/><path class="cls-4" d="M136,160.65s-2.35.58-6.08-2.86"/><path class="cls-4" d="M198.33,160s-6.86-.89-8.58,2.57c0,0,3.6,2.42,1.71,5"/><path class="cls-4" d="M164.71,166.47A15.16,15.16,0,0,1,153.35,169"/><path class="cls-12" d="M167.7,555.06a74.6,74.6,0,0,0,51.35-3.94s5.81.06,2.76-46.87,17.8-96-15.65-174.17l-91,5.06s-28.33,106-31,137.23-8.86,30.16-12.83,72.46c0,0,13.47,8.86,42.83,3.54,0,0,11-22.87,22.4-47.67s18.79-62.44,18.79-62.44,8.19,67.76,11,83.7S167.7,555.06,167.7,555.06Z"/><path class="cls-30" d="M173.24,308s33,22.68,35.19,70.5S213,553.61,213,553.61"/><path class="cls-30" d="M171.52,323.49s13.21,29.4,28.43,17.67"/><path class="cls-3" d="M120.29,252.09c-1-4.15.56-10.68,1.21-14.78C125.71,211,155,196.18,155.32,196a18.43,18.43,0,0,0-14.16-1.27c-12.71,4.31-27.51,21.2-31.47,45.75-1.64,10.12-3.29,16.86.56,26.77"/><path class="cls-4" d="M151.07,194.4S109.59,213.84,117.7,255"/><path class="cls-27" d="M123.34,238.13s-26.51,28.69-7.55,37.5l1.42,6.69"/><ellipse class="cls-14" cx="175.15" cy="478.59" rx="11.8" ry="22.92"/><path class="cls-14" d="M78.74,470.27c-1.55,10.85.64,20.13,4.91,20.74s9-7.68,10.54-18.52-.65-20.13-4.92-20.74S80.29,459.43,78.74,470.27Z"/><path class="cls-30" d="M138.47,327.5s-4.2,2.76-2,11.39-4.6,15.93-4.6,15.93"/><path class="cls-30" d="M138.55,327.52s-2.46,4.39,3.49,11,3.28,16.26,3.28,16.26"/></g></g></g></svg>