<svg xmlns="http://www.w3.org/2000/svg" viewBox="0 0 1923.29 530.22"><defs><style>.cls-1{fill:#fdd6b0;}</style></defs><g id="Layer_2" data-name="Layer 2"><g id="Layer_1-2" data-name="Layer 1"><path class="cls-1" d="M1922.28,6.41q.51,261.92,1,523.81H0V142.55c43.52,30.13,103.11,60.58,159,45.73,82.48-21.93,77.52-125.13,150.74-152.87,98.61-37.36,167.4,123.34,337,141,154.09,16.05,169.41-109.15,356-116,193.14-7.08,306.86,122.36,392.1,55.64,41.09-32.18,62.51-99.74,136.35-113.51a115.76,115.76,0,0,1,39-1.56c110.07,15.18,141.38,165.34,223.15,158.85C1824.74,157.35,1870.86,131.05,1922.28,6.41Z"/></g></g></svg>