<svg xmlns="http://www.w3.org/2000/svg" viewBox="0 0 252.32 394.07"><defs><style>.cls-1{isolation:isolate;}.cls-2{fill:#2a875a;}.cls-3,.cls-7{fill:#fdd6b0;}.cls-3,.cls-6{mix-blend-mode:multiply;}.cls-4{fill:#fff;}.cls-4,.cls-8{opacity:0.2;mix-blend-mode:overlay;}.cls-5{fill:#3bc680;}</style></defs><g class="cls-1"><g id="Layer_2" data-name="Layer 2"><g id="Layer_1-2" data-name="Layer 1"><path class="cls-2" d="M109.44,382.2a35.94,35.94,0,0,0,12.37-8.78c7.26-7.44,12.5-16.22,16.64-25.66,1-2.39,2.7-3.16,5-3.37,1.78-.17,2.6.67,2.1,2.36a13.79,13.79,0,0,1-1.94,4.25c-3.52,4.76-7,9.54-10.85,14.07-5.19,6.18-10.66,12.14-16.15,18.36a17.38,17.38,0,0,0,2.94.27,50.57,50.57,0,0,1,15.22,1.59c2.14.62,3.62.41,4.86-.81,2.48-2.43,5.1-4.74,7.36-7.37,8.14-9.45,13.66-20.42,18-32,.55-1.5,1.08-3,1.62-4.51l.52,0a42.48,42.48,0,0,1,1,4.4c.55,4.46-.56,8.68-2.27,12.75-3.33,7.94-8.55,14.61-14.33,20.86-2.2,2.38-4.52,4.66-6.92,7.14a75.49,75.49,0,0,0,20.13.26,30.19,30.19,0,0,0,12.65-4.46,5,5,0,0,0,2.33-3.49c2.46-13.43,5-26.83,7.52-40.25a6.84,6.84,0,0,0-.08-1.5c6.22,3.64,9.48,10.47,7.31,17.68-1.35,4.47-4,8.16-7,11.59l-2.05,2.28c1,.39,1.73.74,2.51,1,7.59,2.48,21.76.11,27.88-9.72a51.62,51.62,0,0,0,6.84-17.76,3,3,0,0,1,1.53-2.16,12.76,12.76,0,0,1,2.51-1.44c1.75-.41,1.63-1.5,1.36-2.77a5.72,5.72,0,0,0-.14-.72,77.4,77.4,0,0,0-9.43-22.55,7.33,7.33,0,0,0-3.06-2.7,15.54,15.54,0,0,0-11.8-.73c28.11-13.7,48.8-3.32,48.8-3.32l-4.49-17.42a48.24,48.24,0,0,0-11.73.29c-1.13-2.42-2.85-5.74-2.85-5.74l-19.58,12.32a151.73,151.73,0,0,0-15.81,7.89A34.6,34.6,0,0,0,199,269a65,65,0,0,0-5.79-9.39c-4.1-5.52-9.05-10.05-15.54-12.63-7.76-3.09-15.57-2.59-23.35-.11-2.39.76-4.71,1.75-7.33,2.75.76.59,1.16.93,1.59,1.24a108.82,108.82,0,0,1,17.33,15.39c2.66,3,5.26,6.18,6.23,10.2a11.71,11.71,0,0,1,0,5.3,3.23,3.23,0,0,1-4.58,2.18,14.86,14.86,0,0,1-3.32-2.15c-4.46-3.75-8-8.38-11.29-13.1-2.83-4-5.46-8.16-8.21-12.22-.91-1.34-1.71-3.29-3-3.71s-3.31.43-5,.86c-8.41,2.14-16.26,5.71-23.94,9.66-1.48.75-2.86,1.7-4.61,2.75.92.2,1.45.29,2,.42a138.24,138.24,0,0,1,25.91,9.22c7.77,3.77,15.07,8.21,20.49,15.17a19.58,19.58,0,0,1,3.71,7.26c-.71-.43-1.08-.65-1.49-.93-3.2-2.2-6.39-4.39-9.67-6.46-9.77-6.14-19.81-11.77-30.91-15.17a36.81,36.81,0,0,0-13.63-1.88A3.37,3.37,0,0,0,102,275c-4.67,5.73-9.4,11.42-14.11,17.12-1.85,2.24-3.68,4.5-5.71,7l1.48-.16a137.28,137.28,0,0,1,32.16-.14c7,.89,13.73,2.45,19.85,6.07a20.76,20.76,0,0,1,6.58,5.79,3.44,3.44,0,0,1-.44,3.8c-.85,1-1.78.67-2.78.22-3.65-1.68-7.29-3.42-11-5-9.41-3.92-19-7.15-29.24-8.25-5.86-.63-11.66-.48-17.22,1.8a2.12,2.12,0,0,0-1.15,1.15c-2.69,6.32-5.33,12.66-8,19a6.42,6.42,0,0,0-.28,1c3.64-1.15,7.15-2.39,10.73-3.35,6.91-1.84,13.91-3,21.09-1.73a17.18,17.18,0,0,1,9.7,4.88,9.84,9.84,0,0,1,3,4.86c-.78,0-1.34,0-1.95-.06a104.21,104.21,0,0,0-24.38,1.17c-6.14,1-12.09,2.58-17.35,6.2-1.25.86-1.7,1.75-1.14,4a55.38,55.38,0,0,1,1.41,21.09c-.82,5.88-1.46,7.16.45,8,6,2.63,12,5.5,18.07,7.91,5,2,10.22,3.43,15.36,5A3.67,3.67,0,0,0,109.44,382.2Z"/><path class="cls-3" d="M100,389.7a35.9,35.9,0,0,0,12.37-8.78c7.26-7.43,12.5-16.21,16.63-25.65A5.3,5.3,0,0,1,134,351.9c1.79-.17,2.61.66,2.11,2.36a14.27,14.27,0,0,1-1.94,4.25c-3.52,4.76-7,9.54-10.85,14.07-5.2,6.18-10.66,12.14-16.16,18.36a17.47,17.47,0,0,0,2.94.27,51,51,0,0,1,15.23,1.58c2.13.62,3.61.42,4.86-.8,2.48-2.43,5.1-4.75,7.36-7.37,8.14-9.46,13.66-20.42,18-32.05.55-1.49,1.08-3,1.62-4.51l.52,0a39.83,39.83,0,0,1,1,4.39c.56,4.47-.55,8.69-2.26,12.76-3.33,7.94-8.55,14.6-14.34,20.86-2.2,2.38-4.51,4.66-6.91,7.13a74.67,74.67,0,0,0,20.13.26A29.88,29.88,0,0,0,167.9,389a4.9,4.9,0,0,0,2.33-3.49c2.47-13.42,5-26.83,7.53-40.24a7,7,0,0,0-.09-1.51c6.22,3.65,9.48,10.48,7.31,17.68-1.34,4.47-4,8.17-7,11.6l-2.05,2.28c1,.39,1.73.73,2.52,1,7.59,2.48,21.75.1,27.88-9.73a51.46,51.46,0,0,0,6.84-17.76,3,3,0,0,1,1.52-2.16,13.06,13.06,0,0,1,2.52-1.43c1.74-.42,1.62-1.51,1.36-2.78-.05-.24-.08-.48-.14-.72A77.51,77.51,0,0,0,209,319.22a7.44,7.44,0,0,0-3.06-2.69,15.5,15.5,0,0,0-11.8-.74c28.11-13.69,48.8-3.31,48.8-3.31l-4.49-17.42a47.72,47.72,0,0,0-11.73.29c-1.14-2.43-2.86-5.74-2.86-5.74l-19.57,12.32a149.78,149.78,0,0,0-15.81,7.89,34.63,34.63,0,0,0,1.1-33.32,65,65,0,0,0-5.78-9.39c-4.1-5.52-9-10.05-15.55-12.64-7.76-3.09-15.56-2.59-23.34-.11-2.4.76-4.72,1.76-7.34,2.75.76.6,1.17.94,1.6,1.25a108.27,108.27,0,0,1,17.32,15.39c2.67,3,5.26,6.18,6.24,10.19a11.71,11.71,0,0,1,0,5.3,3.21,3.21,0,0,1-4.58,2.18,14.38,14.38,0,0,1-3.32-2.14c-4.47-3.76-8-8.38-11.3-13.11-2.82-4-5.45-8.15-8.2-12.21-.91-1.34-1.71-3.29-3-3.71-1.42-.46-3.32.43-5,.85-8.42,2.15-16.26,5.72-24,9.66-1.47.76-2.85,1.7-4.61,2.76.93.19,1.46.28,2,.42a139.07,139.07,0,0,1,25.9,9.21c7.78,3.78,15.08,8.22,20.49,15.18a19.43,19.43,0,0,1,3.71,7.26c-.7-.44-1.08-.65-1.49-.93-3.19-2.2-6.38-4.4-9.66-6.46-9.77-6.14-19.81-11.78-30.91-15.18a36.86,36.86,0,0,0-13.63-1.87,3.38,3.38,0,0,0-2.59,1.35c-4.68,5.74-9.41,11.42-14.11,17.13-1.85,2.24-3.68,4.5-5.71,7l1.48-.16a136.66,136.66,0,0,1,32.15-.14c7,.89,13.73,2.44,19.86,6.07a20.7,20.7,0,0,1,6.57,5.78,3.43,3.43,0,0,1-.43,3.8c-.86,1-1.78.68-2.78.22-3.66-1.68-7.29-3.41-11-5-9.4-3.93-19-7.16-29.23-8.25-5.86-.63-11.66-.49-17.22,1.79A2.19,2.19,0,0,0,71,311.91c-2.7,6.33-5.33,12.67-8,19a10,10,0,0,0-.28,1c3.65-1.15,7.16-2.39,10.74-3.35,6.91-1.84,13.91-3,21.09-1.73a17,17,0,0,1,9.69,4.87,9.93,9.93,0,0,1,3,4.87c-.78,0-1.34,0-2-.06A103.62,103.62,0,0,0,81,337.69c-6.14,1-12.09,2.58-17.35,6.19-1.25.86-1.7,1.75-1.14,4a55.34,55.34,0,0,1,1.41,21.08c-.83,5.89-1.46,7.16.44,8,6,2.63,12,5.51,18.07,7.91,5,2,10.22,3.43,15.37,5A3.67,3.67,0,0,0,100,389.7Z"/><path class="cls-2" d="M205.53,301.53c-.89-.56-1.75-1.11-2.62-1.69a2,2,0,0,1-.35-.24c-.79-.5-1.6-1.05-2.36-1.56s-1.76-1.19-2.62-1.79l-2.6-1.84q-2.37-1.7-4.66-3.43l-2.2-1.69c-.75-.57-1.49-1.17-2.25-1.74-1.46-1.19-2.9-2.35-4.3-3.53-1.15-.94-2.29-1.89-3.39-2.86l-2-1.76-1.82-1.65c-1-.86-2-1.78-2.92-2.67s-1.67-1.55-2.5-2.35c-1.31-1.28-2.61-2.58-3.89-3.86s-2.56-2.61-3.83-3.91c-.82-.87-1.66-1.76-2.47-2.65s-1.63-1.77-2.43-2.68q-2.41-2.69-4.73-5.4l-2.27-2.74c-1.13-1.38-2.26-2.76-3.36-4.18l-1.09-1.39c-.73-.92-1.44-1.87-2.16-2.82s-1.42-1.86-2.1-2.82c-.92-1.26-1.83-2.5-2.72-3.77-.47-.64-.91-1.28-1.36-1.95-2.46-3.49-4.79-7.05-7.05-10.61-.22-.35-.4-.67-.6-1l39.43,10.27-50.94-30.61-.11-.07c-1-1.91-2-3.84-2.92-5.78s-1.87-3.85-2.78-5.8-1.72-3.72-2.56-5.57a2.08,2.08,0,0,0-.1-.24c-.86-1.92-1.69-3.85-2.51-5.75l0-.07c-.81-2-1.6-3.9-2.39-5.84s-1.52-3.84-2.26-5.81c-.42-1.08-.83-2.18-1.24-3.28-1-2.78-2-5.55-3-8.32l33.62,13.75L92,138.52c-1-3.25-1.84-6.51-2.69-9.73-.49-1.83-1-3.66-1.4-5.46-.7-2.86-1.36-5.67-2-8.47-.53-2.34-1-4.69-1.52-7-.32-1.41-.59-2.79-.86-4.17L115.55,120,80.44,86.89l-.21-1.32c-.25-1.67-.51-3.33-.75-5s-.46-3.3-.68-4.93c-.17-1.2-.33-2.4-.48-3.58s-.29-2.26-.42-3.37-.27-2.3-.4-3.42c-.36-3.36-.69-6.59-1-9.66-.11-1.35-.24-2.71-.34-4-.08-1-.15-2-.22-2.94s-.15-1.89-.21-2.81-.12-2.09-.18-3.11c-.11-1.35-.19-2.64-.23-3.89,0-.66-.07-1.32-.1-2-.08-1.49-.13-2.89-.18-4.24,0-1.19-.07-2.33-.1-3.39,0-.26,0-.49,0-.72,0-.86,0-1.69-.05-2.47,0-1.18,0-2.26,0-3.27a16.58,16.58,0,0,0,0-1.87c0-.42,0-.82,0-1.22s0-.73,0-1.06,0-.52,0-.73c0-1,0-1.82,0-2.3,0-.17,0-.33,0-.42a.45.45,0,0,1,0-.12v0C114.37,31.59,145.14,51,169,71.64L188.3,122l-2.78-34.82A231.11,231.11,0,0,1,216.06,126l1.82,53.67,8.86-34.38c37.85,77.4,15.11,149.8,15.11,149.8l-11.54,7.59-10.79,7.09C214.67,307.17,210,304.42,205.53,301.53Z"/><path class="cls-4" d="M205.53,301.53c-.89-.56-1.75-1.11-2.62-1.69a2,2,0,0,1-.35-.24c-.79-.5-1.6-1.05-2.36-1.56s-1.76-1.19-2.62-1.79l-2.6-1.84q-2.37-1.7-4.66-3.43l-2.2-1.69c-.75-.57-1.49-1.17-2.25-1.74-1.46-1.19-2.9-2.35-4.3-3.53-1.15-.94-2.29-1.89-3.39-2.86l-2-1.76-1.82-1.65c-1-.86-2-1.78-2.92-2.67s-1.67-1.55-2.5-2.35c-1.31-1.28-2.61-2.58-3.89-3.86s-2.56-2.61-3.83-3.91c-.82-.87-1.66-1.76-2.47-2.65s-1.63-1.77-2.43-2.68q-2.41-2.69-4.73-5.4l-2.27-2.74c-1.13-1.38-2.26-2.76-3.36-4.18l-1.09-1.39c-.73-.92-1.44-1.87-2.16-2.82s-1.42-1.86-2.1-2.82c-.92-1.26-1.83-2.5-2.72-3.77-.47-.64-.91-1.28-1.36-1.95-2.46-3.49-4.79-7.05-7.05-10.61-.22-.35-.4-.67-.6-1l39.43,10.27-50.94-30.61c0,.14.09.26.12.37a.91.91,0,0,1-.18-.41l0,0c-1-1.91-2-3.84-2.92-5.78s-1.87-3.85-2.78-5.8-1.72-3.72-2.56-5.57a2.08,2.08,0,0,0-.1-.24c-.86-1.92-1.69-3.85-2.51-5.75l0-.07c-.81-2-1.6-3.9-2.39-5.84s-1.52-3.84-2.26-5.81c-.42-1.08-.83-2.18-1.24-3.28-1-2.78-2-5.55-3-8.32l33.62,13.75L92,138.52c-1-3.25-1.84-6.51-2.69-9.73-.49-1.83-1-3.66-1.4-5.46-.7-2.86-1.36-5.67-2-8.47-.53-2.34-1-4.69-1.52-7-.32-1.41-.59-2.79-.86-4.17L115.55,120,80.44,86.89l-.21-1.32c-.25-1.67-.51-3.33-.75-5s-.46-3.3-.68-4.93c-.17-1.2-.33-2.4-.48-3.58s-.29-2.26-.42-3.37-.27-2.3-.4-3.42c-.36-3.36-.69-6.59-1-9.66-.11-1.35-.24-2.71-.34-4-.08-1-.15-2-.22-2.94s-.15-1.89-.21-2.81-.12-2.09-.18-3.11c-.11-1.35-.19-2.64-.23-3.89,0-.66-.07-1.32-.1-2-.08-1.49-.13-2.89-.18-4.24,0-1.19-.07-2.33-.1-3.39,0-.26,0-.49,0-.72,0-.86,0-1.69-.05-2.47,0-1.18,0-2.26,0-3.27,0-.65,0-1.28,0-1.87,0-.42,0-.82,0-1.22s0-.73,0-1.06,0-.52,0-.73c0-1,0-1.82,0-2.3,0-.17,0-.33,0-.42a.45.45,0,0,1,0-.12c1.85,2.33,129.27,165.49,155.41,287.64l-10.79,7.09C214.67,307.17,210,304.42,205.53,301.53Z"/><path class="cls-5" d="M189.88,322.21c-.77-.09-1.51-.18-2.28-.29l-.31,0-2.07-.29c-.77-.1-1.55-.21-2.32-.34l-2.31-.38c-1.42-.25-2.81-.51-4.21-.79l-2-.41-2.06-.44q-2-.47-4-1c-1.06-.25-2.13-.52-3.17-.8l-1.91-.53-1.74-.5c-.93-.26-1.88-.56-2.8-.84s-1.61-.49-2.42-.76c-1.28-.42-2.56-.87-3.82-1.31s-2.54-.91-3.8-1.37c-.83-.31-1.68-.63-2.5-1s-1.65-.65-2.47-1q-2.47-1-4.89-2.07c-.8-.36-1.6-.72-2.38-1.09-1.2-.55-2.39-1.1-3.58-1.69l-1.17-.58c-.78-.38-1.56-.78-2.34-1.18s-1.55-.78-2.3-1.19c-1-.54-2-1.08-3-1.63-.52-.28-1-.56-1.54-.86-2.75-1.53-5.44-3.15-8.09-4.78l-.72-.47,29.5-5.87-43.69-4h-.09q-1.92-1.43-3.8-2.9c-1.26-1-2.49-1.95-3.72-3l-3.49-2.87a.58.58,0,0,0-.14-.13c-1.19-1-2.36-2-3.52-3l0,0-3.47-3.11c-1.13-1-2.24-2.06-3.37-3.13-.63-.58-1.26-1.18-1.88-1.78-1.57-1.52-3.13-3-4.64-4.57l26.75-1.68L62,250.43c-1.68-1.86-3.31-3.73-4.91-5.6-.92-1.06-1.81-2.13-2.69-3.18-1.38-1.68-2.73-3.33-4.06-5-1.1-1.38-2.2-2.78-3.26-4.16-.66-.84-1.28-1.67-1.91-2.5l26.54.49-34-10.67-.57-.81L35.09,216c-.7-1-1.37-2.05-2-3.06-.49-.74-1-1.48-1.47-2.23s-.92-1.4-1.36-2.1l-1.36-2.14c-1.33-2.12-2.58-4.15-3.77-6.1-.5-.87-1-1.73-1.51-2.57-.38-.63-.75-1.27-1.1-1.88s-.71-1.21-1-1.8-.75-1.35-1.12-2c-.51-.86-1-1.7-1.41-2.51-.23-.43-.46-.86-.7-1.29-.53-1-1-1.88-1.48-2.75s-.79-1.53-1.16-2.22c-.1-.17-.16-.33-.25-.47-.28-.57-.56-1.12-.82-1.63-.4-.77-.76-1.49-1.09-2.16-.2-.44-.39-.85-.61-1.23s-.26-.55-.39-.82-.23-.48-.33-.71-.16-.34-.23-.48c-.32-.69-.57-1.22-.71-1.54L11,174s0-.06,0-.08l0,0c31.55-1.69,58.22,1.28,80.74,7.34l29,27.26-13-22.24a170.27,170.27,0,0,1,32.78,16l18.47,35.07-5.17-25.69c50,39.25,58.21,94.66,58.21,94.66L206.72,315l-4.89,8.19C197.77,323,193.8,322.67,189.88,322.21Z"/><path class="cls-4" d="M189.88,322.21c-.77-.09-1.51-.18-2.28-.29l-.31,0-2.07-.29c-.77-.1-1.55-.21-2.32-.34l-2.31-.38c-1.42-.25-2.81-.51-4.21-.79l-2-.41-2.06-.44q-2-.47-4-1c-1.06-.25-2.13-.52-3.17-.8l-1.91-.53-1.74-.5c-.93-.26-1.88-.56-2.8-.84s-1.61-.49-2.42-.76c-1.28-.42-2.56-.87-3.82-1.31s-2.54-.91-3.8-1.37c-.83-.31-1.68-.63-2.5-1s-1.65-.65-2.47-1q-2.47-1-4.89-2.07c-.8-.36-1.6-.72-2.38-1.09-1.2-.55-2.39-1.1-3.58-1.69l-1.17-.58c-.78-.38-1.56-.78-2.34-1.18s-1.55-.78-2.3-1.19c-1-.54-2-1.08-3-1.63-.52-.28-1-.56-1.54-.86-2.75-1.53-5.44-3.15-8.09-4.78l-.72-.47,29.5-5.87-43.69-4,.2.21a.75.75,0,0,1-.26-.22h0q-1.92-1.43-3.8-2.9c-1.26-1-2.49-1.95-3.72-3l-3.49-2.87a.58.58,0,0,0-.14-.13c-1.19-1-2.36-2-3.52-3l0,0-3.47-3.11c-1.13-1-2.24-2.06-3.37-3.13-.63-.58-1.26-1.18-1.88-1.78-1.57-1.52-3.13-3-4.64-4.57l26.75-1.68L62,250.43c-1.68-1.86-3.31-3.73-4.91-5.6-.92-1.06-1.81-2.13-2.69-3.18-1.38-1.68-2.73-3.33-4.06-5-1.1-1.38-2.2-2.78-3.26-4.16-.66-.84-1.28-1.67-1.91-2.5l26.54.49-34-10.67-.57-.81L35.09,216c-.7-1-1.37-2.05-2-3.06-.49-.74-1-1.48-1.47-2.23s-.92-1.4-1.36-2.1l-1.36-2.14c-1.33-2.12-2.58-4.15-3.77-6.1-.5-.87-1-1.73-1.51-2.57-.38-.63-.75-1.27-1.1-1.88s-.71-1.21-1-1.8-.75-1.35-1.12-2c-.51-.86-1-1.7-1.41-2.51-.23-.43-.46-.86-.7-1.29-.53-1-1-1.88-1.48-2.75s-.79-1.53-1.16-2.22c-.1-.17-.16-.33-.25-.47-.28-.57-.56-1.12-.82-1.63-.4-.77-.76-1.49-1.09-2.16-.22-.42-.41-.85-.61-1.23s-.26-.55-.39-.82-.23-.48-.33-.71-.16-.34-.23-.48c-.32-.69-.57-1.22-.71-1.54L11,174s0-.06,0-.08c2,1,139.1,68.38,195.74,141.12l-4.89,8.19C197.77,323,193.8,322.67,189.88,322.21Z"/><g class="cls-6"><path class="cls-7" d="M198.37,299.55c-.93-.59-1.83-1.16-2.74-1.77a2,2,0,0,1-.37-.25c-.83-.53-1.67-1.1-2.46-1.64s-1.85-1.23-2.75-1.87l-2.71-1.91c-1.66-1.19-3.27-2.38-4.88-3.6l-2.29-1.76-2.36-1.82c-1.53-1.24-3-2.46-4.5-3.69-1.2-1-2.39-2-3.54-3l-2.12-1.85-1.91-1.71c-1-.91-2-1.87-3.05-2.79-.86-.81-1.74-1.63-2.61-2.47-1.38-1.33-2.73-2.69-4.07-4s-2.68-2.73-4-4.09c-.86-.9-1.74-1.84-2.59-2.77s-1.7-1.85-2.54-2.8c-1.68-1.87-3.33-3.76-4.94-5.65l-2.38-2.86c-1.18-1.44-2.36-2.89-3.51-4.37l-1.14-1.46c-.76-1-1.51-2-2.26-3s-1.48-1.94-2.19-2.94c-1-1.32-1.91-2.62-2.84-3.94-.49-.68-1-1.34-1.43-2-2.57-3.65-5-7.38-7.37-11.1-.23-.36-.42-.69-.62-1l41.22,10.73-53.26-32-.11-.07c-1-2-2.07-4-3-6.05s-2-4-2.92-6.06-1.79-3.88-2.67-5.82a.91.91,0,0,0-.11-.25c-.9-2-1.76-4-2.62-6l0-.07c-.85-2.05-1.68-4.08-2.5-6.11s-1.59-4-2.36-6.07c-.45-1.13-.87-2.28-1.3-3.43-1.07-2.91-2.11-5.81-3.1-8.7l35.15,14.37L79.61,129.11q-1.48-5.1-2.81-10.18c-.51-1.9-1-3.82-1.46-5.7-.73-3-1.43-5.93-2.1-8.86-.55-2.44-1.09-4.9-1.59-7.31-.33-1.48-.61-2.92-.89-4.37l33.53,17L67.58,75.13c-.07-.46-.15-.92-.22-1.38-.26-1.75-.54-3.48-.79-5.2s-.48-3.45-.71-5.15c-.17-1.25-.34-2.51-.5-3.75s-.31-2.36-.44-3.52-.28-2.41-.41-3.57c-.38-3.52-.73-6.89-1-10.11-.12-1.41-.25-2.83-.36-4.21-.08-1-.16-2.07-.23-3.07s-.15-2-.21-2.94S62.55,30,62.48,29c-.11-1.41-.19-2.77-.24-4.07,0-.69-.06-1.39-.1-2.08-.09-1.55-.13-3-.19-4.42s-.07-2.44-.11-3.55c0-.27,0-.52,0-.75,0-.9,0-1.77,0-2.58,0-1.24-.05-2.37-.06-3.43a18,18,0,0,0,0-1.95c0-.44,0-.86,0-1.28s0-.76,0-1.1,0-.54,0-.76c0-1.08,0-1.91,0-2.41a2.25,2.25,0,0,0,0-.44c0-.06,0-.1,0-.12V0c41.28,17.31,73.44,37.56,98.42,59.18l20.15,52.65-2.9-36.39a242,242,0,0,1,31.93,40.61l1.9,56.12,9.26-35.95c39.58,80.92,15.81,156.62,15.81,156.62l-12.08,7.94L213,308.19C207.93,305.45,203.07,302.57,198.37,299.55Z"/><g class="cls-8"><path class="cls-7" d="M198.37,299.55c-.93-.59-1.83-1.16-2.74-1.77a2,2,0,0,1-.37-.25c-.83-.53-1.67-1.1-2.46-1.64s-1.85-1.23-2.75-1.87l-2.71-1.91c-1.66-1.19-3.27-2.38-4.88-3.6l-2.29-1.76-2.36-1.82c-1.53-1.24-3-2.46-4.5-3.69-1.2-1-2.39-2-3.54-3l-2.12-1.85-1.91-1.71c-1-.91-2-1.87-3.05-2.79-.86-.81-1.74-1.63-2.61-2.47-1.38-1.33-2.73-2.69-4.07-4s-2.68-2.73-4-4.09c-.86-.9-1.74-1.84-2.59-2.77s-1.7-1.85-2.54-2.8c-1.68-1.87-3.33-3.76-4.94-5.65l-2.38-2.86c-1.18-1.44-2.36-2.89-3.51-4.37l-1.14-1.46c-.76-1-1.51-2-2.26-3s-1.48-1.94-2.19-2.94c-1-1.32-1.91-2.62-2.84-3.94-.49-.68-1-1.34-1.43-2-2.57-3.65-5-7.38-7.37-11.1-.23-.36-.42-.69-.62-1l41.22,10.73-53.26-32c0,.15.09.27.12.39a1.22,1.22,0,0,1-.19-.43l0,0c-1-2-2.07-4-3-6.05s-2-4-2.92-6.06-1.79-3.88-2.67-5.82a.91.91,0,0,0-.11-.25c-.9-2-1.76-4-2.62-6l0-.07c-.85-2.05-1.68-4.08-2.5-6.11s-1.59-4-2.36-6.07c-.45-1.13-.87-2.28-1.3-3.43-1.07-2.91-2.11-5.81-3.1-8.7l35.15,14.37L79.61,129.11q-1.48-5.1-2.81-10.18c-.51-1.9-1-3.82-1.46-5.7-.73-3-1.43-5.93-2.1-8.86-.55-2.44-1.09-4.9-1.59-7.31-.33-1.48-.61-2.92-.89-4.37l33.53,17L67.58,75.13c-.07-.46-.15-.92-.22-1.38-.26-1.75-.54-3.48-.79-5.2s-.48-3.45-.71-5.15c-.17-1.25-.34-2.51-.5-3.75s-.31-2.36-.44-3.52-.28-2.41-.41-3.57c-.38-3.52-.73-6.89-1-10.11-.12-1.41-.25-2.83-.36-4.21-.08-1-.16-2.07-.23-3.07s-.15-2-.21-2.94S62.55,30,62.48,29c-.11-1.41-.19-2.77-.24-4.07,0-.69-.06-1.39-.1-2.08-.09-1.55-.13-3-.19-4.42s-.07-2.44-.11-3.55c0-.27,0-.52,0-.75,0-.9,0-1.77,0-2.58,0-1.24-.05-2.37-.06-3.43,0-.67,0-1.33,0-1.95,0-.44,0-.86,0-1.28s0-.76,0-1.1,0-.54,0-.76c0-1.08,0-1.91,0-2.41a2.25,2.25,0,0,0,0-.44c0-.06,0-.1,0-.12,1.93,2.43,135.16,173,162.48,300.74L213,308.19C207.93,305.45,203.07,302.57,198.37,299.55Z"/></g><path class="cls-7" d="M178.93,314.7l-2.29-.28a1.44,1.44,0,0,1-.31-.05c-.69-.08-1.4-.18-2.07-.28s-1.55-.22-2.32-.35l-2.31-.38c-1.42-.24-2.81-.5-4.2-.78l-2-.42-2-.43c-1.35-.32-2.69-.63-4-1-1.06-.25-2.12-.52-3.17-.81l-1.91-.52-1.74-.51c-.93-.26-1.87-.55-2.8-.83l-2.42-.76c-1.28-.43-2.56-.87-3.82-1.32s-2.54-.9-3.8-1.37c-.83-.3-1.67-.63-2.5-1s-1.65-.65-2.47-1q-2.48-1-4.89-2.06l-2.38-1.09c-1.2-.56-2.39-1.11-3.58-1.7l-1.17-.57c-.78-.38-1.56-.78-2.34-1.18s-1.54-.78-2.3-1.2c-1-.54-2-1.07-3-1.63-.52-.28-1-.56-1.54-.86-2.75-1.52-5.44-3.14-8.09-4.78l-.72-.47,29.5-5.86-43.69-4h-.09q-1.92-1.41-3.8-2.9t-3.72-2.95l-3.49-2.88a.89.89,0,0,0-.14-.13c-1.19-1-2.36-2-3.52-3l0-.05c-1.17-1-2.32-2.07-3.47-3.1s-2.24-2.07-3.37-3.14c-.63-.58-1.25-1.18-1.88-1.78-1.57-1.52-3.13-3-4.64-4.57l26.75-1.68L51,242.92c-1.67-1.85-3.31-3.73-4.91-5.6-.92-1-1.81-2.13-2.69-3.17q-2.07-2.52-4.06-5c-1.1-1.38-2.19-2.78-3.26-4.16-.66-.83-1.28-1.66-1.91-2.5l26.54.5-34-10.68-.56-.81c-.71-1-1.41-2-2.1-3.06s-1.37-2-2-3c-.5-.75-1-1.49-1.48-2.23s-.92-1.41-1.36-2.11l-1.36-2.14c-1.33-2.12-2.58-4.15-3.77-6.1-.5-.86-1-1.72-1.51-2.56l-1.1-1.89c-.37-.62-.7-1.21-1-1.8s-.75-1.35-1.12-2c-.51-.87-1-1.7-1.41-2.52-.23-.43-.46-.86-.7-1.29-.53-1-1-1.87-1.48-2.75s-.79-1.53-1.16-2.22c-.1-.16-.16-.33-.25-.47-.28-.57-.56-1.12-.82-1.63-.4-.77-.76-1.48-1.09-2.15a11.92,11.92,0,0,0-.61-1.24q-.2-.42-.39-.81c-.11-.27-.23-.49-.33-.71l-.22-.49c-.33-.69-.57-1.21-.72-1.54,0-.12-.1-.22-.13-.28a.2.2,0,0,1,0-.08l0,0c31.55-1.7,58.22,1.27,80.74,7.33l29,27.26-13-22.24a170.27,170.27,0,0,1,32.78,16L148,229.78l-5.17-25.68c50,39.24,58.22,94.65,58.22,94.65l-5.24,8.76-4.88,8.18C186.81,315.5,182.84,315.17,178.93,314.7Z"/><g class="cls-8"><path class="cls-7" d="M178.93,314.7l-2.29-.28a1.44,1.44,0,0,1-.31-.05c-.69-.08-1.4-.18-2.07-.28s-1.55-.22-2.32-.35l-2.31-.38c-1.42-.24-2.81-.5-4.2-.78l-2-.42-2-.43c-1.35-.32-2.69-.63-4-1-1.06-.25-2.12-.52-3.17-.81l-1.91-.52-1.74-.51c-.93-.26-1.87-.55-2.8-.83l-2.42-.76c-1.28-.43-2.56-.87-3.82-1.32s-2.54-.9-3.8-1.37c-.83-.3-1.67-.63-2.5-1s-1.65-.65-2.47-1q-2.48-1-4.89-2.06l-2.38-1.09c-1.2-.56-2.39-1.11-3.58-1.7l-1.17-.57c-.78-.38-1.56-.78-2.34-1.18s-1.54-.78-2.3-1.2c-1-.54-2-1.07-3-1.63-.52-.28-1-.56-1.54-.86-2.75-1.52-5.44-3.14-8.09-4.78l-.72-.47,29.5-5.86-43.69-4c.07.09.15.15.2.21a.68.68,0,0,1-.25-.21h0q-1.92-1.41-3.8-2.9t-3.72-2.95l-3.49-2.88a.89.89,0,0,0-.14-.13c-1.19-1-2.36-2-3.52-3l0-.05c-1.17-1-2.32-2.07-3.47-3.1s-2.24-2.07-3.37-3.14c-.63-.58-1.25-1.18-1.88-1.78-1.57-1.52-3.13-3-4.64-4.57l26.75-1.68L51,242.92c-1.67-1.85-3.31-3.73-4.91-5.6-.92-1-1.81-2.13-2.69-3.17q-2.07-2.52-4.06-5c-1.1-1.38-2.19-2.78-3.26-4.16-.66-.83-1.28-1.66-1.91-2.5l26.54.5-34-10.68-.56-.81c-.71-1-1.41-2-2.1-3.06s-1.37-2-2-3c-.5-.75-1-1.49-1.48-2.23s-.92-1.41-1.36-2.11l-1.36-2.14c-1.33-2.12-2.58-4.15-3.77-6.1-.5-.86-1-1.72-1.51-2.56l-1.1-1.89c-.37-.62-.7-1.21-1-1.8s-.75-1.35-1.12-2c-.51-.87-1-1.7-1.41-2.52-.23-.43-.46-.86-.7-1.29-.53-1-1-1.87-1.48-2.75s-.79-1.53-1.16-2.22c-.1-.16-.16-.33-.25-.47-.28-.57-.56-1.12-.82-1.63-.4-.77-.76-1.48-1.09-2.15-.21-.43-.41-.85-.61-1.24s-.26-.55-.39-.81-.23-.49-.33-.71l-.22-.49c-.33-.69-.57-1.21-.72-1.54,0-.12-.1-.22-.13-.28a.2.2,0,0,1,0-.08c2,1,139.1,68.37,195.74,141.12l-4.88,8.18C186.81,315.5,182.84,315.17,178.93,314.7Z"/></g></g></g></g></g></svg>