<svg xmlns="http://www.w3.org/2000/svg" viewBox="0 0 250.39 239.98"><defs><style>.cls-1{isolation:isolate;}.cls-2{fill:#fff;}.cls-3{fill:none;}.cls-4{mix-blend-mode:multiply;}.cls-5{fill:#fdd6b0;}.cls-6{fill:#fab420;}</style></defs><g class="cls-1"><g id="Layer_2" data-name="Layer 2"><g id="Layer_1-2" data-name="Layer 1"><path class="cls-2" d="M159.68,228.77A118.15,118.15,0,1,1,228.77,76.63,118.3,118.3,0,0,1,159.68,228.77ZM94.58,55.36a67.07,67.07,0,1,0,86.36,39.22A67.15,67.15,0,0,0,94.58,55.36Z"/><path class="cls-3" d="M118.09,51.09l1.59,11.78L80.63,77.53l-6.56-9.91a67.43,67.43,0,0,0-23,50.6l11.78-1.59,14.66,39.05-9.91,6.56a67.39,67.39,0,0,0,50.6,23l-1.59-11.77,39.05-14.66,6.56,9.91a67.45,67.45,0,0,0,23-50.6l-11.78,1.59L158.78,80.63l9.91-6.56A67.45,67.45,0,0,0,118.09,51.09Z"/><g class="cls-4"><path class="cls-5" d="M173.75,232.44A118.15,118.15,0,1,1,242.84,80.3,118.28,118.28,0,0,1,173.75,232.44ZM108.66,59A67.07,67.07,0,1,0,195,98.25,67.15,67.15,0,0,0,108.66,59Z"/></g><path class="cls-2" d="M159.68,228.77A118.15,118.15,0,1,1,228.77,76.63,118.3,118.3,0,0,1,159.68,228.77ZM94.58,55.36a67.07,67.07,0,1,0,86.36,39.22A67.15,67.15,0,0,0,94.58,55.36Z"/><path class="cls-6" d="M94.58,55.36a66.93,66.93,0,0,1,23.51-4.27L111.23.2A118.28,118.28,0,0,0,45.75,24.78L74.07,67.62A66.8,66.8,0,0,1,94.58,55.36Z"/><path class="cls-6" d="M141.72,180.94a66.39,66.39,0,0,1-23.5,4.27l6.86,50.9a118.28,118.28,0,0,0,65.48-24.58l-28.32-42.84A66.51,66.51,0,0,1,141.72,180.94Z"/><path class="cls-6" d="M55.36,141.72a66.84,66.84,0,0,1-4.27-23.5L.2,125.08a118.28,118.28,0,0,0,24.58,65.48l42.84-28.32A66.73,66.73,0,0,1,55.36,141.72Z"/><path class="cls-6" d="M211.53,45.75,168.69,74.07a67,67,0,0,1,16.53,44l50.89-6.86a118.28,118.28,0,0,0-24.58-65.48Z"/></g></g></g></svg>